<?xml version="1.0" encoding="UTF-8"?>
<svg width="106px" height="24px" viewBox="0 0 106 24" version="1.1" xmlns="http://www.w3.org/2000/svg" xmlns:xlink="http://www.w3.org/1999/xlink">
    <!-- Generator: Sketch 52.5 (67469) - http://www.bohemiancoding.com/sketch -->
    <title>2xu_grey copy</title>
    <desc>Created with Sketch.</desc>
    <g id="Page-1" stroke="none" stroke-width="1" fill="none" fill-rule="evenodd">
        <g id="HomePage-Final" transform="translate(-1416.000000, -2174.000000)" fill="#201F1F" fill-rule="nonzero">
            <g id="Client-Logos" transform="translate(320.000000, 1962.000000)">
                <g id="Logos" transform="translate(45.000000, 140.000000)">
                    <g id="2xu_grey-copy" transform="translate(1051.000000, 72.000000)">
                        <g id="Group">
                            <g transform="translate(0.000000, 20.903226)" id="Shape">
                                <path d="M7.90064516,0.174193548 L7.90064516,2.31096774 L8.62064516,2.31096774 C8.62064516,2.31096774 8.62064516,0.808258065 8.62064516,0.624 C8.77703226,0.624 9.43664516,0.624 9.59380645,0.624 C9.59380645,0.807483871 9.59380645,2.31096774 9.59380645,2.31096774 L10.2929032,2.31096774 C10.2929032,2.31096774 10.2929032,0.808258065 10.2929032,0.624 C10.4578065,0.624 11.1390968,0.624 11.1390968,0.624 C11.2474839,0.624 11.2552258,0.750193548 11.2552258,0.788129032 L11.2552258,2.31174194 L11.9550968,2.31174194 L11.9550968,1.01419355 L11.955871,0.816 C11.955871,0.438967742 11.7104516,0.174967742 11.3605161,0.174967742 L7.90064516,0.174193548 Z"></path>
                                <path d="M0,0.276387097 L0.000774193548,2.31251613 L0.699870968,2.31251613 C0.699870968,2.31251613 0.699870968,1.61187097 0.699870968,1.45083871 C0.879483871,1.45083871 2.49832258,1.45083871 2.67716129,1.45083871 C2.67716129,1.61187097 2.67793548,2.31251613 2.67793548,2.31251613 L3.37780645,2.31251613 L3.37780645,0.173419355 L2.6763871,0.172645161 C2.6763871,0.172645161 2.6763871,0.851612903 2.6763871,1.01109677 C2.49754839,1.01109677 0.879483871,1.01109677 0.699870968,1.01109677 C0.699870968,0.851612903 0.699870968,0.173419355 0.699870968,0.173419355 L0,0.171870968 L0,0.276387097 Z"></path>
                                <path d="M15.2624516,0.15716129 C15.8810323,0.15716129 16.0103226,0.583741935 16.0103226,0.941419355 L16.0103226,2.31251613 L15.2887742,2.31251613 C15.2887742,2.31251613 15.2887742,1.79535484 15.2887742,1.64670968 C15.1076129,1.64670968 13.3261935,1.64670968 13.1450323,1.64670968 C13.1450323,1.79458065 13.1450323,2.31251613 13.1450323,2.31251613 L12.4242581,2.31251613 L12.4242581,0.158709677 L15.2624516,0.15716129 Z M13.1458065,1.21625806 C13.3269677,1.21625806 15.1083871,1.21625806 15.2895484,1.21625806 C15.2895484,1.07845161 15.2895484,0.766451613 15.2895484,0.766451613 C15.2895484,0.606967742 15.2547097,0.579096774 15.0580645,0.579096774 L13.1427097,0.579096774 L13.1458065,1.21625806 Z"></path>
                                <path d="M16.4787097,0.262451613 L16.4794839,2.31174194 L17.180129,2.31174194 C17.180129,2.1476129 17.180129,0.785032258 17.180129,0.620129032 C17.3512258,0.620129032 18.1656774,0.620129032 18.1656774,0.620129032 L18.9274839,0.623225806 C19.076129,0.627096774 19.1179355,0.663483871 19.1202581,0.792 C19.1202581,0.792 19.1202581,2.30787097 19.1202581,2.31174194 L19.8456774,2.31174194 L19.8433548,1.22864516 L19.8456774,0.700645161 C19.8402581,0.452903226 19.6993548,0.15716129 19.0583226,0.160258065 L16.4787097,0.15716129 L16.4787097,0.262451613 M19.8456774,0.701419355 L19.8456774,0.700645161 L19.8456774,0.701419355"></path>
                                <path d="M7.32851613,0.15716129 L6.71148387,0.15716129 L6.71148387,1.70322581 C6.71148387,1.86348387 6.67664516,1.89135484 6.48,1.89135484 L4.79922581,1.89135484 C4.60258065,1.89135484 4.56696774,1.86348387 4.56696774,1.70322581 L4.56696774,0.15716129 L3.84619355,0.15716129 L3.84619355,1.52825806 C3.84619355,1.88593548 3.97625806,2.31251613 4.59483871,2.31251613 L6.6843871,2.31251613 C7.30219355,2.31251613 7.43225806,1.88593548 7.43225806,1.52825806 L7.43225806,0.15716129 L7.32851613,0.15716129 Z"></path>
                            </g>
                            <path d="M44.372129,21.0781935 L44.372129,23.2165161 L45.0929032,23.2165161 C45.0929032,23.2165161 45.0929032,21.7122581 45.0929032,21.528 C45.2492903,21.528 45.9096774,21.528 46.0668387,21.528 C46.0668387,21.7114839 46.0668387,23.2165161 46.0668387,23.2165161 L46.7667097,23.2165161 C46.7667097,23.2165161 46.7667097,21.7122581 46.7667097,21.528 C46.9316129,21.528 47.6129032,21.528 47.6129032,21.528 C47.7212903,21.528 47.7290323,21.6541935 47.7290323,21.692129 L47.7290323,23.2172903 L48.4296774,23.2172903 L48.4296774,21.9181935 L48.4304516,21.72 C48.4304516,21.3421935 48.1850323,21.0781935 47.8343226,21.0781935 L44.372129,21.0781935 Z" id="Shape"></path>
                            <path d="M39.2446452,21.0750968 L37.1527742,21.0750968 C36.5341935,21.0750968 36.4049032,21.5024516 36.4049032,21.8609032 L36.4049032,22.0381935 L36.4049032,22.2263226 L36.4049032,22.4407742 C36.4049032,22.7992258 36.5349677,23.2265806 37.1543226,23.2265806 L39.2461935,23.2265806 C39.8647742,23.2265806 39.9940645,22.7992258 39.9940645,22.4407742 L39.9940645,22.2263226 L39.9940645,22.0381935 L39.9940645,21.8609032 C39.9940645,21.5016774 39.8632258,21.0750968 39.2446452,21.0750968 Z M39.2725161,22.6149677 C39.2725161,22.7752258 39.2376774,22.8030968 39.0410323,22.8030968 L37.3587097,22.8030968 C37.1612903,22.8030968 37.1264516,22.7744516 37.1264516,22.6149677 L37.1264516,22.0374194 L37.1264516,21.6851613 C37.1264516,21.5249032 37.1605161,21.4970323 37.3579355,21.4970323 L39.0402581,21.4970323 C39.2376774,21.4970323 39.2717419,21.5249032 39.2717419,21.6851613 L39.2717419,22.2263226 L39.2717419,22.6149677 L39.2725161,22.6149677 Z" id="Shape"></path>
                            <polygon id="Shape" points="64.3765161 22.6993548 63.7610323 22.6993548 63.7610323 23.2211613 64.4818065 23.2211613 64.4818065 22.6993548"></polygon>
                            <path d="M51.6263226,21.0603871 C52.2449032,21.0603871 52.3741935,21.4869677 52.3741935,21.8454194 L52.3741935,23.2180645 L51.6526452,23.2180645 C51.6526452,23.2180645 51.6526452,22.700129 51.6526452,22.5514839 C51.4707097,22.5514839 49.6885161,22.5514839 49.5073548,22.5514839 C49.5073548,22.700129 49.5073548,23.2180645 49.5073548,23.2180645 L48.7858065,23.2180645 L48.7858065,21.0627097 L51.6263226,21.0603871 Z M49.5065806,22.1202581 C49.6885161,22.1202581 51.4707097,22.1202581 51.651871,22.1202581 C51.651871,21.9824516 51.651871,21.6696774 51.651871,21.6696774 C51.651871,21.5094194 51.6170323,21.4815484 51.4203871,21.4815484 L49.5034839,21.4815484 L49.5065806,22.1202581 Z" id="Shape"></path>
                            <path d="M56.4541935,21.0665806 L56.4549677,22.1225806 C56.4549677,22.1427097 56.4526452,22.6738065 56.4526452,22.6738065 C56.4580645,22.9215484 56.5989677,23.2172903 57.24,23.2141935 L59.8227097,23.2172903 L59.8227097,22.7543226 L58.1341935,22.7543226 L57.3716129,22.752 C57.2229677,22.748129 57.1811613,22.7117419 57.1788387,22.5832258 C57.1788387,22.5832258 57.1765161,22.2603871 57.1765161,22.2603871 L57.1765161,22.0289032 L57.1850323,21.531871 L58.1349677,21.5341935 L59.8234839,21.5341935 L59.8234839,21.0712258 L59.7181935,21.072 L56.4541935,21.0665806 Z" id="Shape"></path>
                            <path d="M21.5930323,21.0673548 L21.4892903,21.0673548 L21.4892903,23.2172903 L22.2100645,23.2172903 C22.2100645,23.2172903 22.2100645,22.6854194 22.2100645,22.5375484 C22.4005161,22.5375484 24.500129,22.5367742 24.500129,22.5367742 C24.7695484,22.5367742 25.0482581,22.2990968 25.0482581,21.9011613 L25.0482581,21.7099355 C25.0482581,21.332129 24.8036129,21.0673548 24.452129,21.0673548 L22.0738065,21.0673548 L21.5930323,21.0673548 Z M24.2446452,21.5187097 C24.3538065,21.5187097 24.3615484,21.644129 24.3615484,21.6820645 L24.3615484,21.9236129 C24.3615484,22.0103226 24.3251613,22.1047742 24.2446452,22.1047742 C24.2446452,22.1047742 22.3981935,22.1047742 22.2100645,22.1047742 C22.2100645,21.9708387 22.2100645,21.651871 22.2100645,21.5187097 C22.3981935,21.5187097 24.2446452,21.5187097 24.2446452,21.5187097 Z" id="Shape"></path>
                            <path d="M60.9019355,21.5365161 C60.9019355,21.6580645 60.9011613,21.8593548 60.9003871,21.9243871 C61.0939355,21.9243871 63.5458065,21.9243871 63.5458065,21.9243871 L63.5458065,22.3649032 C63.5458065,22.3649032 61.0939355,22.3649032 60.9003871,22.3649032 C60.9011613,22.460129 60.9019355,22.5824516 60.9019355,22.584 C60.9042581,22.7117419 60.9460645,22.7473548 61.0954839,22.7527742 L63.5458065,22.7550968 L63.5458065,23.2180645 L60.963871,23.2149677 C60.3228387,23.2180645 60.1819355,22.9230968 60.1757419,22.6738065 L60.1788387,22.1458065 L60.1765161,21.0743226 L63.5458065,21.0704516 L63.5458065,21.5341935 L61.8572903,21.5341935 L60.9019355,21.5365161" id="Shape"></path>
                            <path d="M26.1274839,21.5365161 C26.1274839,21.6580645 26.1267097,21.8593548 26.1259355,21.9243871 C26.3194839,21.9243871 28.7713548,21.9243871 28.7713548,21.9243871 L28.7713548,22.3649032 C28.7713548,22.3649032 26.3194839,22.3649032 26.1259355,22.3649032 C26.1267097,22.460129 26.1274839,22.5824516 26.1274839,22.584 C26.1298065,22.7117419 26.1708387,22.7473548 26.3210323,22.7527742 L28.7713548,22.7550968 L28.7713548,23.2180645 L26.1894194,23.2149677 C25.5491613,23.2180645 25.4082581,22.9230968 25.4020645,22.6738065 L25.4043871,22.1458065 L25.4020645,21.0743226 L28.7713548,21.0704516 L28.7713548,21.5341935 L27.0828387,21.5341935 L26.1274839,21.5365161" id="Shape"></path>
                            <path d="M52.7287742,21.1656774 L52.7295484,23.2172903 L53.4301935,23.2172903 C53.4301935,23.0523871 53.4301935,21.6890323 53.4301935,21.524129 C53.6005161,21.524129 54.4165161,21.524129 54.4165161,21.524129 L55.1790968,21.5264516 C55.3277419,21.5303226 55.3687742,21.5667097 55.371871,21.696 C55.371871,21.696 55.371871,23.2134194 55.371871,23.2165161 L56.0980645,23.2165161 L56.0957419,22.1326452 L56.0980645,21.6046452 C56.0926452,21.356129 55.9517419,21.0603871 55.3099355,21.0634839 L52.7287742,21.0603871 L52.7287742,21.1656774 M56.0980645,21.6054194 L56.0980645,21.603871 L56.0980645,21.6054194" id="Shape"></path>
                            <path d="M36.0503226,22.1047742 C35.6036129,22.1047742 34.0258065,22.1047742 33.8701935,22.1047742 C33.8701935,21.9708387 33.8701935,21.651871 33.8701935,21.5187097 C34.0002581,21.5187097 35.4929032,21.5187097 36.0503226,21.5187097 L36.0503226,21.5101935 L36.0503226,21.0673548 L33.7347097,21.0673548 L33.2539355,21.0673548 L33.1501935,21.0673548 L33.1501935,23.2172903 L33.8701935,23.2172903 C33.8701935,23.2172903 33.8701935,22.6854194 33.8701935,22.5375484 C34.0072258,22.5375484 35.4294194,22.5367742 36.0503226,22.5367742 L36.0503226,22.1047742 Z" id="Shape"></path>
                            <path d="M32.7956129,23.16 L32.3326452,22.4941935 C32.5261935,22.4098065 32.684129,22.2007742 32.684129,21.9011613 L32.684129,21.7099355 C32.684129,21.332129 32.4387097,21.0673548 32.088,21.0673548 L29.7096774,21.0673548 L29.2289032,21.0673548 L29.1251613,21.0673548 L29.1251613,23.2172903 L29.8459355,23.2172903 C29.8459355,23.2172903 29.8459355,22.6854194 29.8459355,22.5375484 C29.9829677,22.5375484 31.104,22.5367742 31.7249032,22.5367742 L32.1259355,23.1623226 L32.7956129,23.16 Z M29.8467097,21.5187097 C30.0356129,21.5187097 31.8812903,21.5187097 31.8812903,21.5187097 C31.9896774,21.5187097 31.9981935,21.644129 31.9981935,21.6820645 L31.9981935,21.9236129 C31.9981935,22.0103226 31.9618065,22.1047742 31.8812903,22.1047742 C31.8812903,22.1047742 30.0348387,22.1047742 29.8467097,22.1047742 C29.8467097,21.9708387 29.8467097,21.651871 29.8467097,21.5187097 Z" id="Shape"></path>
                            <g transform="translate(65.806452, 20.903226)" id="Shape">
                                <path d="M24.9894194,0.624774194 C24.9894194,0.745548387 24.9886452,0.945290323 24.987871,1.01032258 C25.1806452,1.01032258 27.6154839,1.01032258 27.6154839,1.01032258 L27.6154839,1.44774194 C27.6154839,1.44774194 25.1806452,1.44774194 24.987871,1.44774194 C24.9894194,1.54219355 24.9894194,1.66451613 24.9894194,1.66529032 C24.9925161,1.79225806 25.0327742,1.82787097 25.1814194,1.83251613 L27.6154839,1.83483871 L27.6154839,2.29470968 L25.0513548,2.2916129 C24.4157419,2.29470968 24.2748387,2.00129032 24.2694194,1.75432258 L24.2717419,1.23019355 L24.2701935,0.165677419 L27.6154839,0.162580645 L27.6154839,0.622451613 L25.9393548,0.622451613 L24.9894194,0.624774194"></path>
                                <path d="M14.5757419,0.169548387 L10.4322581,0.169548387 L10.4322581,0.611612903 C10.4322581,0.611612903 12.027871,0.611612903 12.2113548,0.611612903 C12.2113548,0.794322581 12.2113548,2.29083871 12.2113548,2.29083871 L12.9065806,2.29083871 C12.9065806,2.29083871 12.9065806,0.794322581 12.9065806,0.611612903 C13.0892903,0.611612903 14.6787097,0.611612903 14.6787097,0.611612903 L14.6787097,0.169548387 L14.5757419,0.169548387 Z"></path>
                                <polygon points="14.9729032 0.267870968 14.9736774 2.29083871 15.6689032 2.29083871 15.6696774 0.164903226 14.9729032 0.163354839"></polygon>
                                <polygon points="23.2614194 0.267870968 23.2629677 2.29083871 23.9574194 2.29083871 23.9581935 0.164903226 23.2614194 0.163354839"></polygon>
                                <path d="M27.9483871,0.265548387 L27.9499355,2.30090323 L30.5109677,2.30090323 C31.148129,2.30322581 31.2890323,2.0043871 31.2952258,1.752 L31.2929032,1.22554839 L31.2952258,0.701419355 C31.2890323,0.454451613 31.1496774,0.161032258 30.5132903,0.164903226 L27.9491613,0.161806452 L27.9491613,0.265548387 L27.9483871,0.265548387 Z M31.2944516,0.702193548 L31.2944516,0.700645161 L31.2944516,0.702193548 Z M29.6245161,0.621677419 L30.3824516,0.624 C30.5303226,0.627870968 30.5713548,0.664258065 30.5744516,0.792 C30.5744516,0.792 30.5744516,1.65909677 30.5744516,1.66296774 C30.5713548,1.79070968 30.5303226,1.82632258 30.3832258,1.83096774 C30.3824516,1.83096774 29.6252903,1.83329032 29.6252903,1.83329032 C29.6252903,1.83329032 28.8154839,1.83329032 28.6459355,1.83329032 C28.6459355,1.66993548 28.6459355,0.785032258 28.6459355,0.621677419 C28.8147097,0.621677419 29.6245161,0.621677419 29.6245161,0.621677419 Z"></path>
                                <path d="M15.9778065,0.15716129 L15.9778065,2.28154839 L16.6939355,2.28154839 C16.6939355,2.28154839 16.6939355,1.7643871 16.6939355,1.61651613 C16.8836129,1.61651613 18.9685161,1.61651613 18.9685161,1.61651613 C19.2363871,1.61651613 19.512,1.3803871 19.512,0.985548387 L19.512,0.795870968 C19.512,0.420387097 19.2696774,0.15716129 18.9205161,0.15716129 L15.9778065,0.15716129 Z M18.7153548,0.604645161 C18.8229677,0.604645161 18.8307097,0.729290323 18.8307097,0.767225806 L18.8307097,1.00645161 C18.8307097,1.09625806 18.7912258,1.18683871 18.7153548,1.18683871 C18.7153548,1.18683871 16.8812903,1.18683871 16.6939355,1.18683871 C16.6939355,1.05367742 16.6939355,0.737032258 16.6939355,0.603870968 C16.8812903,0.604645161 18.7153548,0.604645161 18.7153548,0.604645161 Z"></path>
                                <path d="M0.146322581,0.164903226 L0.146322581,2.28851613 L0.862451613,2.28851613 C0.862451613,2.28851613 0.862451613,0.795096774 0.862451613,0.611612903 C1.01729032,0.611612903 1.67380645,0.611612903 1.82941935,0.611612903 C1.82941935,0.794322581 1.82941935,2.28851613 1.82941935,2.28851613 L2.52387097,2.28851613 C2.52387097,2.28851613 2.52387097,0.795096774 2.52387097,0.611612903 C2.688,0.611612903 3.36464516,0.611612903 3.36464516,0.611612903 C3.47303226,0.611612903 3.48,0.737032258 3.48,0.774967742 L3.48,2.28929032 L4.17522581,2.28929032 L4.17522581,0.998709677 L4.176,0.802064516 C4.176,0.426580645 3.93290323,0.164903226 3.58451613,0.164903226 L0.146322581,0.164903226 Z"></path>
                                <path d="M7.89987097,0.164903226 L7.28670968,0.164903226 L7.28670968,1.70167742 C7.28670968,1.8603871 7.25264516,1.88825806 7.05754839,1.88825806 L5.38683871,1.88825806 C5.19096774,1.88825806 5.15612903,1.8603871 5.15612903,1.70167742 L5.15612903,0.164903226 L4.43922581,0.164903226 L4.43922581,1.52748387 C4.43922581,1.88283871 4.56929032,2.30709677 5.18322581,2.30709677 L7.2603871,2.30709677 C7.87509677,2.30709677 8.0036129,1.88283871 8.0036129,1.52748387 L8.0036129,0.164903226 L7.89987097,0.164903226 Z"></path>
                                <path d="M8.94116129,0.168 L8.328,0.168 L8.328,1.50735484 C8.328,1.86270968 8.45729032,2.28696774 9.072,2.28696774 L11.5649032,2.28696774 L11.5649032,1.824 L9.27483871,1.824 C9.07896774,1.824 9.04412903,1.79612903 9.04412903,1.63741935 L9.04412903,0.168 L8.94116129,0.168 Z"></path>
                                <path d="M20.4085161,0.168 L19.7945806,0.168 L19.7945806,1.53135484 C19.7945806,1.88670968 19.923871,2.28774194 20.5385806,2.28774194 L23.0314839,2.28774194 L23.0314839,1.82477419 L20.7421935,1.82477419 C20.5463226,1.82477419 20.5122581,1.79690323 20.5122581,1.63819355 L20.5122581,0.168774194 L20.4085161,0.168774194 L20.4085161,0.168 Z"></path>
                                <polygon points="32.0423226 1.77058065 31.4307097 1.77058065 31.4307097 2.28851613 32.1460645 2.28851613 32.1460645 1.77058065"></polygon>
                            </g>
                            <path d="M35.0965161,0.096 C34.8402581,0.063483871 34.6157419,0.0580645161 34.364129,0.0580645161 C34.1132903,0.0572903226 7.96103226,0.0588387097 7.96103226,0.0588387097 L5.98374194,4.27664516 C5.99070968,4.28206452 26.4627097,4.27819355 26.8552258,4.27354839 C28.2085161,4.27896774 28.1171613,4.45780645 27.2113548,5.62916129 C26.948129,5.96980645 26.5254194,6.22374194 24.8616774,6.57754839 C24.6665806,6.61935484 7.24645161,10.0699355 7.12877419,10.0993548 C4.92696774,10.5987097 3.504,11.7507097 2.93109677,13.0064516 C2.60593548,13.7179355 0.0131612903,19.2263226 0,19.2340645 L32.4743226,19.2340645 L34.4554839,14.9945806 C34.4554839,14.9945806 11.5029677,14.9984516 11.5029677,14.9914839 C12.0588387,13.4988387 12.3104516,13.5538065 13.539871,13.3068387 C13.5824516,13.2983226 30.2353548,10.0211613 30.284129,10.011871 C33.9034839,9.24929032 34.9114839,7.96567742 35.5416774,6.79509677 C35.8110968,6.29574194 37.0312258,3.69445161 37.3076129,2.94658065 C37.4887742,2.45651613 37.4632258,1.81006452 37.1287742,1.25264516 C36.7927742,0.695225806 36.1494194,0.228387097 35.0965161,0.096 Z" id="Shape"></path>
                            <path d="M98.019871,0 C98.019871,0 92.6043871,10.7024516 91.8418065,12.0820645 C90.1153548,15.2036129 87.9367742,15.2020645 86.8467097,15.2020645 C85.8216774,15.2020645 78.9948387,15.216 78.9948387,15.216 C77.3334194,15.2291613 74.2792258,14.9643871 75.4544516,11.8621935 C75.7470968,11.0887742 80.9202581,0 80.9202581,0 L72.9313548,0 C72.9313548,0 67.9409032,10.536 67.6010323,11.3535484 C65.595871,16.1922581 68.5261935,19.3532903 72.2330323,19.4260645 C72.8307097,19.4376774 87.9847742,19.4260645 87.9847742,19.4260645 C87.9847742,19.4260645 90.8988387,19.3316129 91.6792258,19.2371613 C93.3584516,19.0327742 95.0074839,18.5334194 96.4683871,17.5076129 C98.8157419,15.8609032 100.639742,11.4263226 100.639742,11.4263226 L106.01729,0 L98.019871,0 Z" id="Shape"></path>
                            <polygon id="Shape" points="57.5504516 9.81135484 68.8753548 19.3107097 59.8722581 19.3145806 52.5917419 13.1914839 43.6660645 19.3114839 33.1393548 19.3083871 47.9574194 9.31974194 36.984 0.0588387097 45.9336774 0.0557419355 52.9347097 5.92877419 61.4926452 0.0456774194 72.0348387 0.0441290323"></polygon>
                            <path d="M43.9981935,23.2211613 L43.4818065,22.532129 C43.7380645,22.5096774 43.9889032,22.2781935 43.9889032,21.9011613 L43.9889032,21.7099355 C43.9889032,21.332129 43.7442581,21.0673548 43.3927742,21.0673548 L40.4299355,21.0673548 L40.4299355,23.2172903 L41.1507097,23.2172903 C41.1507097,23.2172903 41.1507097,22.6854194 41.1507097,22.5375484 C41.2699355,22.5375484 42.1339355,22.5375484 42.7656774,22.5367742 L43.2781935,23.2211613 L43.9981935,23.2211613 Z M41.1514839,21.5187097 C41.3403871,21.5187097 43.1860645,21.5187097 43.1860645,21.5187097 C43.2944516,21.5187097 43.3029677,21.644129 43.3029677,21.6820645 L43.3029677,21.9236129 C43.3029677,22.0103226 43.2665806,22.1047742 43.1860645,22.1047742 C43.1860645,22.1047742 41.3396129,22.1047742 41.1514839,22.1047742 L41.1514839,21.5187097 Z" id="Shape"></path>
                        </g>
                    </g>
                </g>
            </g>
        </g>
    </g>
</svg>