<?xml version="1.0" encoding="UTF-8"?>
<svg width="182px" height="36px" viewBox="0 0 182 36" version="1.1" xmlns="http://www.w3.org/2000/svg" xmlns:xlink="http://www.w3.org/1999/xlink">
    <!-- Generator: Sketch 52.5 (67469) - http://www.bohemiancoding.com/sketch -->
    <title>Front Rush Copy 2</title>
    <desc>Created with Sketch.</desc>
    <defs>
        <polygon id="path-1" points="0 0.0139949008 35.9725596 0.0139949008 35.9725596 35.9867211 0 35.9867211"></polygon>
        <linearGradient x1="90.9513881%" y1="21.7157035%" x2="8.58441716%" y2="72.4628929%" id="linearGradient-3">
            <stop stop-color="#1F53A0" offset="0%"></stop>
            <stop stop-color="#12264C" offset="100%"></stop>
        </linearGradient>
    </defs>
    <g id="Page-1" stroke="none" stroke-width="1" fill="none" fill-rule="evenodd">
        <g id="HomePage-Final" transform="translate(-1120.000000, -2168.000000)">
            <g id="Client-Logos" transform="translate(320.000000, 1962.000000)">
                <g id="Logos" transform="translate(45.000000, 140.000000)">
                    <g id="Front-Rush-Copy-2" transform="translate(755.000000, 66.000000)">
                        <g id="front_rush">
                            <g id="Page-1" transform="translate(43.127820, 10.285714)" fill-rule="nonzero">
                                <polygon id="Fill-1" fill="#F0993F" points="3.2378078 2.76036817 3.2378078 7.03166162 8.83340385 7.03166162 8.83340385 9.54538412 3.2378078 9.54538412 3.2378078 15.7128305 0 15.7128305 0 0.257094349 9.90547795 0.257094349 9.90547795 2.76036817"></polygon>
                                <g id="Group-29" transform="translate(12.254848, 0.000000)">
                                    <path d="M4.90037017,7.60295786 C5.42083007,7.60295786 5.8705693,7.53665134 6.24848285,7.40459083 C6.62694891,7.27253033 6.93690433,7.09073993 7.17945411,6.85866708 C7.4220039,6.62714678 7.60046307,6.35418491 7.71483165,6.040334 C7.82864772,5.7264831 7.88610826,5.38389937 7.88610826,5.01258281 C7.88610826,4.27768545 7.64134846,3.70689674 7.15293386,3.3002167 C6.66396677,2.89353666 5.92029477,2.69019663 4.92191788,2.69019663 L3.25224717,2.69019663 L3.25224717,7.60295786 L4.90037017,7.60295786 Z M12.423281,15.779658 L9.52318114,15.779658 C8.98117356,15.779658 8.58889487,15.5724501 8.34579259,15.1591394 L5.3926523,10.3961204 C5.27110116,10.2110146 5.13739491,10.0756389 4.99098103,9.98944033 C4.84456715,9.90379444 4.62909013,9.86124776 4.34344493,9.86124776 L3.25224717,9.86124776 L3.25224717,15.779658 L0.0416394677,15.779658 L0.0416394677,0.250116376 L4.92191788,0.250116376 C6.00593307,0.250116376 6.9335893,0.362284921 7.70433405,0.587174564 C8.4745263,0.811511653 9.10603976,1.12425744 9.59832189,1.52375428 C10.090604,1.92325112 10.4502849,2.39955301 10.679022,2.95210742 C10.9072066,3.50521438 11.0215752,4.11357678 11.0215752,4.77719463 C11.0215752,5.29107023 10.9480921,5.77787066 10.8022307,6.23814848 C10.6558168,6.6984263 10.4436549,7.11726254 10.1651922,7.49576231 C9.88728208,7.87370952 9.5447289,8.20911005 9.13808508,8.50141133 C8.73144121,8.79426516 8.26788936,9.03020589 7.74687695,9.20812845 C7.9535139,9.32195459 8.14633821,9.45954063 8.32479739,9.62033405 C8.50325656,9.78057474 8.66348307,9.97175865 8.80658192,10.1927803 L12.423281,15.779658 Z" id="Fill-2" fill="#F0993F"></path>
                                    <path d="M25.5224609,8.00930637 C25.5224609,7.19594629 25.4152749,6.46657447 25.2014554,5.82063837 C24.9876359,5.17525482 24.6787855,4.62546318 24.2760092,4.17292113 C23.8726804,3.71927396 23.3837133,3.3733749 22.8091079,3.1346714 C22.235055,2.89541534 21.5842038,2.77551104 20.8565545,2.77551104 C20.1289052,2.77551104 19.475844,2.89541534 18.8979236,3.1346714 C18.3200032,3.3733749 17.829931,3.71927396 17.4266023,4.17292113 C17.0232734,4.62546318 16.7149756,5.17525482 16.5006035,5.82063837 C16.286784,6.46657447 16.179598,7.19594629 16.179598,8.00930637 C16.179598,8.82984967 16.286784,9.56364189 16.5006035,10.2084729 C16.7149756,10.854409 17.0232734,11.402543 17.4266023,11.8517697 C17.829931,12.3009965 18.3200032,12.6457904 18.8979236,12.8839414 C19.475844,13.1231974 20.1289052,13.2431017 20.8565545,13.2431017 C21.5842038,13.2431017 22.235055,13.1231974 22.8091079,12.8839414 C23.3837133,12.6457904 23.8726804,12.3009965 24.2760092,11.8517697 C24.6787855,11.402543 24.9876359,10.854409 25.2014554,10.2084729 C25.4152749,9.56364189 25.5224609,8.82984967 25.5224609,8.00930637 M28.8076568,8.00930637 C28.8076568,9.14370054 28.6170425,10.1968693 28.2352614,11.1666023 C27.8534803,12.1368878 27.3147878,12.9751128 26.6191837,13.68183 C25.9235797,14.3879944 25.0870869,14.9427591 24.1097051,15.3455712 C23.1323234,15.748936 22.0477557,15.9506183 20.8565545,15.9506183 C19.6648008,15.9506183 18.5807857,15.748936 17.6034039,15.3455712 C16.6254697,14.9427591 15.7873194,14.3879944 15.0884003,13.68183 C14.3889287,12.9751128 13.8485786,12.1368878 13.4667975,11.1666023 C13.0850165,10.1968693 12.8949546,9.14370054 12.8949546,8.00930637 C12.8949546,6.87491218 13.0850165,5.82450625 13.4667975,4.85753604 C13.8485786,3.89056583 14.3889287,3.05399846 15.0884003,2.34783392 C15.7873194,1.64111684 16.6254697,1.08690477 17.6034039,0.683540053 C18.5807857,0.28072789 19.6648008,0.0784929773 20.8565545,0.0784929773 C22.0477557,0.0784929773 23.1323234,0.28072789 24.1097051,0.683540053 C25.0870869,1.08690477 25.9235797,1.64332705 26.6191837,2.35280691 C27.3147878,3.06339189 27.8534803,3.90161691 28.2352614,4.86803458 C28.6170425,5.83500478 28.8076568,6.88209539 28.8076568,8.00930637" id="Fill-4" fill="#F0993F"></path>
                                    <path d="M44.5712378,0.25006112 L44.5712378,15.7796027 L42.9120648,15.7796027 C42.6623324,15.7796027 42.4518279,15.7387137 42.2805513,15.6563831 C42.1098272,15.574605 41.9413131,15.4337036 41.7772191,15.233679 L34.0399363,5.38715944 C34.0620365,5.63746658 34.0775066,5.8833533 34.0885567,6.12592468 C34.0990544,6.36849606 34.1051319,6.59283315 34.1051319,6.80004106 L34.1051319,15.7796027 L31.2685703,15.7796027 L31.2685703,0.25006112 L32.9592361,0.25006112 C33.0951524,0.25006112 33.210626,0.255586665 33.3078669,0.266085198 C33.4040028,0.276583732 33.4907461,0.302001235 33.5692019,0.341232597 C33.6476576,0.380463961 33.7233508,0.432404074 33.7946239,0.496500386 C33.8658972,0.560596697 33.9443529,0.64624263 34.0294387,0.753438185 L41.8203145,10.6419519 C41.7921367,10.3712002 41.7711415,10.1087368 41.7562239,9.85511441 C41.7424112,9.60259696 41.7346762,9.36168325 41.7346762,9.13347835 L41.7346762,0.25006112 L44.5712378,0.25006112 Z" id="Fill-6" fill="#F0993F"></path>
                                    <polygon id="Fill-8" fill="#F0993F" points="58.9217868 2.83988362 54.3840617 2.83988362 54.3840617 15.7796027 51.1635088 15.7796027 51.1635088 2.83988362 46.6252312 2.83988362 46.6252312 0.25006112 58.9217868 0.25006112"></polygon>
                                    <path d="M69.8515552,7.60295786 C70.372015,7.60295786 70.8217543,7.53665134 71.2002204,7.40459083 C71.578134,7.27253033 71.8886418,7.09073993 72.1311916,6.85866708 C72.3731889,6.62714678 72.5522006,6.35418491 72.6660167,6.040334 C72.7798327,5.7264831 72.8372932,5.38389937 72.8372932,5.01258281 C72.8372932,4.27768545 72.5930859,3.70689674 72.1041189,3.3002167 C71.6157042,2.89353666 70.8720323,2.69019663 69.8731029,2.69019663 L68.2039847,2.69019663 L68.2039847,7.60295786 L69.8515552,7.60295786 Z M77.3750184,15.779658 L74.4749187,15.779658 C73.9323586,15.779658 73.5400799,15.5724501 73.2975301,15.1591394 L70.3438373,10.3961204 C70.2222862,10.2110146 70.0885799,10.0756389 69.9427186,9.98944033 C69.7963047,9.90379444 69.5802752,9.86124776 69.2951824,9.86124776 L68.2039847,9.86124776 L68.2039847,15.779658 L64.9933769,15.779658 L64.9933769,0.250116376 L69.8731029,0.250116376 C70.9571181,0.250116376 71.8847743,0.362284921 72.655519,0.587174564 C73.4262638,0.811511653 74.0572247,1.12425744 74.5495068,1.52375428 C75.0423415,1.92325112 75.4020224,2.39955301 75.6302071,2.95210742 C75.8589442,3.50521438 75.9727602,4.11357678 75.9727602,4.77719463 C75.9727602,5.29107023 75.8998296,5.77787066 75.7534157,6.23814848 C75.6070018,6.6984263 75.3948398,7.11726254 75.1169297,7.49576231 C74.8384671,7.87370952 74.4959138,8.20911005 74.08927,8.50141133 C73.6831787,8.79426516 73.2190743,9.03020589 72.6980619,9.20812845 C72.9052514,9.32195459 73.0975232,9.45954063 73.2759824,9.62033405 C73.4544416,9.78057474 73.6152206,9.97175865 73.7577669,10.1927803 L77.3750184,15.779658 Z" id="Fill-10" fill="#1F53A0"></path>
                                    <path d="M85.219211,13.2105563 C85.7402234,13.2105563 86.2076428,13.1232527 86.6214692,12.9480929 C87.0347431,12.7740383 87.3844788,12.5259413 87.6706766,12.2049072 C87.9552167,11.8844257 88.1734563,11.4954273 88.3226327,11.0379124 C88.4729141,10.5820549 88.5469498,10.0681794 88.5469498,9.49683808 L88.5469498,0.249840098 L91.7575579,0.249840098 L91.7575579,9.49683808 C91.7575579,10.4383908 91.6067233,11.3042435 91.3033985,12.0932912 C91.0000728,12.8806813 90.5669089,13.5603232 90.002801,14.1316645 C89.4397982,14.7019006 88.7541392,15.147812 87.9480342,15.4688461 C87.1419291,15.7904328 86.231953,15.9506736 85.219211,15.9506736 C84.2059165,15.9506736 83.2953879,15.7904328 82.4854153,15.4688461 C81.6748901,15.147812 80.9892312,14.7019006 80.4251234,14.1316645 C79.8615681,13.5603232 79.428404,12.8806813 79.1250787,12.0932912 C78.8212008,11.3042435 78.6698144,10.4383908 78.6698144,9.49683808 L78.6698144,0.249840098 L81.880422,0.249840098 L81.880422,9.49683808 C81.880422,10.0681794 81.9561152,10.5820549 82.1052917,11.0379124 C82.2555731,11.4954273 82.4721551,11.8844257 82.7578003,12.2049072 C83.0434455,12.5259413 83.3926288,12.7740383 83.8064552,12.9480929 C84.2202816,13.1232527 84.691016,13.2105563 85.219211,13.2105563" id="Fill-12" fill="#1F53A0"></path>
                                    <path d="M103.337459,3.22545609 C103.237455,3.38956475 103.136347,3.5089165 103.032475,3.58351134 C102.929157,3.65865874 102.795451,3.69623244 102.631357,3.69623244 C102.474446,3.69623244 102.304826,3.640977 102.123052,3.53046612 C101.941278,3.41995524 101.729116,3.30060349 101.485462,3.17185832 C101.242912,3.04311313 100.965002,2.92431393 100.651731,2.81325051 C100.336803,2.70273962 99.9699392,2.64748418 99.5494827,2.64748418 C98.8074686,2.64748418 98.249991,2.81325051 97.8792595,3.14478315 C97.508529,3.47686834 97.3228872,3.910071 97.3228872,4.44549622 C97.3228872,4.78807995 97.4251002,5.07154036 97.6278704,5.29643 C97.8311919,5.52131965 98.0991573,5.71526625 98.4306605,5.87992746 C98.7627158,6.04403612 99.1384195,6.18991048 99.5599805,6.31865566 C99.9809892,6.44684828 100.411943,6.58774965 100.855053,6.74135977 C101.297057,6.89496991 101.729116,7.07455009 102.150125,7.28175798 C102.570029,7.48841333 102.946285,7.74921901 103.278893,8.06251736 C103.609843,8.37747337 103.878361,8.76039358 104.081683,9.21293567 C104.285005,9.66658277 104.385561,10.2180321 104.385561,10.866731 C104.385561,11.5734481 104.263457,12.2354082 104.016487,12.8520589 C103.770623,13.4703673 103.416467,14.0080028 102.952362,14.4682806 C102.488811,14.9280059 101.915863,15.2904816 101.234072,15.5546026 C100.553385,15.8192761 99.7809826,15.9507841 98.9174174,15.9507841 C98.425135,15.9507841 97.9350632,15.9010542 97.4466478,15.8004892 C96.957129,15.7010294 96.4869465,15.5623383 96.0333402,15.3833107 C95.5808382,15.2048356 95.1537519,14.990997 94.754843,14.7412425 C94.3548289,14.4914879 94.005646,14.2130005 93.7056352,13.9068854 L94.6476568,12.3868082 C94.7261125,12.2735345 94.8299838,12.1784951 94.9576123,12.1027952 C95.0863462,12.0282004 95.222262,11.9906266 95.3648084,11.9906266 C95.5570809,11.9906266 95.7604024,12.0624587 95.9747747,12.2044652 C96.1891462,12.3475768 96.4350108,12.5045022 96.713474,12.6757941 C96.9919362,12.847086 97.3145991,13.0040114 97.6820156,13.147123 C98.0494313,13.2891295 98.4903302,13.3604091 99.003055,13.3604091 C99.7528051,13.3604091 100.332383,13.1896697 100.742894,12.847086 C101.152853,12.5045022 101.35728,11.9944945 101.35728,11.3165102 C101.35728,10.9241967 101.255619,10.6070304 101.052297,10.3639065 C100.848975,10.1218877 100.583773,9.91799504 100.255584,9.75388638 C99.9268439,9.58977771 99.5522454,9.44887633 99.1317889,9.33118232 C98.710228,9.21293567 98.2792737,9.08363792 97.8361642,8.94052631 C97.39416,8.79796728 96.9632066,8.62722797 96.5416448,8.42720327 C96.1206361,8.22662602 95.7465898,7.96305757 95.4184015,7.63484026 C95.0896611,7.30662293 94.8244583,6.8999429 94.6211368,6.41480012 C94.4172623,5.92965735 94.3161537,5.3268205 94.3161537,4.60628955 C94.3161537,4.02831764 94.4305227,3.46802747 94.6581546,2.9259716 C94.8863395,2.38391572 95.222262,1.90153573 95.6642662,1.48104183 C96.1062704,1.05999537 96.6504884,0.721279518 97.2958141,0.46434172 C97.9416929,0.20740392 98.6820496,0.0786587436 99.5174373,0.0786587436 C100.451172,0.0786587436 101.316947,0.223427998 102.112002,0.512413952 C102.908162,0.801399908 103.579456,1.2025544 104.129751,1.71643001 L103.337459,3.22545609 Z" id="Fill-14" fill="#1F53A0"></path>
                                    <polygon id="Fill-16" fill="#1F53A0" points="120.127926 0.25006112 120.127926 15.7796027 116.896323 15.7796027 116.896323 9.09037904 110.057966 9.09037904 110.057966 15.7796027 106.825811 15.7796027 106.825811 0.25006112 110.057966 0.25006112 110.057966 6.84258774 116.896323 6.84258774 116.896323 0.25006112"></polygon>
                                    <polygon id="Fill-18" fill="#1F53A0" points="123.651749 13.9066091 122.984875 13.9066091 122.984875 15.7797685 122.573811 15.7797685 122.573811 13.9066091 121.906937 13.9066091 121.906937 13.5689983 123.651749 13.5689983"></polygon>
                                    <path d="M126.354383,13.5688325 L126.354383,15.7796027 L125.99194,15.7796027 L125.99194,14.3512496 C125.99194,14.2937839 125.995255,14.2324504 126.001333,14.1661438 L125.333354,15.4221 C125.301861,15.4817759 125.25324,15.5116139 125.188045,15.5116139 L125.130032,15.5116139 C125.064836,15.5116139 125.016216,15.4817759 124.984722,15.4221 L124.308457,14.1617234 C124.311771,14.1954292 124.314534,14.2285825 124.316744,14.2617357 C124.318401,14.2937839 124.319506,14.3236219 124.319506,14.3512496 L124.319506,15.7796027 L123.957063,15.7796027 L123.957063,13.5688325 L124.267571,13.5688325 C124.285804,13.5688325 124.301827,13.5693851 124.315086,13.5699376 C124.328347,13.5710428 124.339949,13.5738055 124.351,13.5782259 C124.361497,13.5820938 124.371442,13.5887245 124.379729,13.598118 C124.38857,13.6069588 124.39741,13.619115 124.405145,13.634034 L125.067046,14.8623624 C125.084174,14.8944106 125.099644,14.9281164 125.115114,14.9629273 C125.130032,14.9977382 125.144949,15.0331017 125.158762,15.0701229 C125.173127,15.0319966 125.188045,14.9960806 125.203515,14.9607171 C125.218433,14.9253536 125.234455,14.8916478 125.252136,14.8590471 L125.905196,13.634034 C125.912931,13.619115 125.921772,13.6069588 125.930612,13.598118 C125.940005,13.5887245 125.949949,13.5820938 125.960999,13.5782259 C125.971497,13.5738055 125.983652,13.5710428 125.996912,13.5699376 C126.00962,13.5693851 126.025643,13.5688325 126.043875,13.5688325 L126.354383,13.5688325 Z" id="Fill-20" fill="#1F53A0"></path>
                                </g>
                            </g>
                            <g id="Page-1-Copy-3">
                                <g id="Group-3">
                                    <g id="Fill-1-Clipped">
                                        <mask id="mask-2" fill="white">
                                            <use xlink:href="#path-1"></use>
                                        </mask>
                                        <g id="path-1"></g>
                                        <path d="M35.9725596,18.0002746 C35.9725596,27.9339885 27.9198271,35.9867211 17.9861132,35.9867211 C8.05273254,35.9867211 0,27.9339885 0,18.0002746 C0,8.06656084 8.05273254,0.0138282948 17.9861132,0.0138282948 C27.9198271,0.0138282948 35.9725596,8.06656084 35.9725596,18.0002746" id="Fill-1" fill="url(#linearGradient-3)" fill-rule="nonzero" mask="url(#mask-2)"></path>
                                    </g>
                                </g>
                                <path d="M24.879743,16.8792732 C24.6180119,17.1307659 24.2830762,17.3278637 23.8752703,17.4705665 C23.4667958,17.6139409 22.9817741,17.6854602 22.4205396,17.6854602 L20.641904,17.6854602 L20.641904,12.3611341 L22.4432698,12.3611341 C23.5212813,12.3611341 24.3235225,12.5817359 24.8509961,13.0226037 C25.3781354,13.4631356 25.6418721,14.0819623 25.6418721,14.8784118 C25.6418721,15.2803301 25.580367,15.6516932 25.4573567,15.9918296 C25.3336778,16.3323017 25.1414742,16.6277804 24.879743,16.8792732 Z M26.6349798,20.4925085 C26.4808827,20.2531035 26.3073981,20.0459326 26.1151944,19.8720031 C25.9226566,19.6984093 25.7147424,19.548991 25.4917862,19.4254272 C26.0536893,19.2323587 26.5544215,18.9768367 26.9926457,18.6595328 C27.4315385,18.3422289 27.801238,17.97926 28.1017442,17.569619 C28.4015818,17.1593064 28.6308891,16.7053436 28.7883289,16.2063874 C28.946103,15.707767 29.02499,15.1799345 29.02499,14.6232256 C29.02499,13.9040035 28.9016454,13.2448843 28.6556248,12.6455325 C28.4092699,12.0461807 28.0205173,11.5301001 27.4893668,11.0969552 C26.9582162,10.6641459 26.277314,10.3253526 25.445323,10.0819184 C24.6140007,9.83848421 23.6135391,9.71659922 22.4432698,9.71659922 L20.2882494,9.71659922 L17.1775592,17.5004501 L17.1775592,26.5471371 L20.641904,26.5471371 L20.641904,20.1328974 L21.8198616,20.1328974 C22.1277216,20.1328974 22.3603715,20.1795696 22.5184799,20.2722425 C22.6759197,20.3652512 22.8203231,20.5116475 22.9510215,20.7124387 L26.1385932,25.8745871 C26.3999901,26.3228418 26.8235065,26.5471371 27.408474,26.5471371 L30.5378831,26.5471371 L26.6349798,20.4925085 Z" id="Fill-4" fill="#F0993F" fill-rule="nonzero"></path>
                                <polygon id="Fill-6" fill="#F0993F" fill-rule="nonzero" points="17.7696291 9.71659922 17.2919256 9.71659922 7.11393869 9.71659922 7.11393869 26.5471371 10.5967337 26.5471371 10.5967337 19.8310389 14.182013 19.8310389 15.274288 17.0938311 10.5967337 17.0938311 10.5967337 12.4423908 17.1306882 12.4423908 17.2919256 12.0377864 17.7696291 10.8414331 18.2186235 9.71659922"></polygon>
                            </g>
                        </g>
                    </g>
                </g>
            </g>
        </g>
    </g>
</svg>