<?xml version="1.0" encoding="UTF-8"?>
<svg width="104px" height="40px" viewBox="0 0 104 40" version="1.1" xmlns="http://www.w3.org/2000/svg" xmlns:xlink="http://www.w3.org/1999/xlink">
    <!-- Generator: Sketch 52.5 (67469) - http://www.bohemiancoding.com/sketch -->
    <title>harvard-business-review</title>
    <desc>Created with Sketch.</desc>
    <g id="Page-1" stroke="none" stroke-width="1" fill="none" fill-rule="evenodd">
        <g id="HomePage-Final" transform="translate(-902.000000, -2497.000000)" fill="#000000" fill-rule="nonzero">
            <g id="Client-Logos" transform="translate(320.000000, 1962.000000)">
                <g id="Logos" transform="translate(45.000000, 140.000000)">
                    <g id="harvard-business-review" transform="translate(537.000000, 395.000000)">
                        <path d="M35.1490196,11.6180392 L35.1490196,0.614117647 L38.2313725,0.614117647 L38.2313725,4.70117647 L42.0219608,4.70117647 L42.0219608,0.614117647 L45.0815686,0.614117647 L45.0815686,11.6180392 L42.0219608,11.6180392 L42.0219608,7.35764706 L38.2313725,7.35764706 L38.2313725,11.6180392 L35.1490196,11.6180392 Z M95.9105882,0.0596078431 L98.9701961,0.0596078431 L98.9701961,11.6180392 L96.2305882,11.6180392 L95.9105882,10.1294118 C95.612549,11.2752941 94.6541176,11.8486275 93.2847059,11.8486275 C91.2972549,11.8486275 89.8133333,10.28 89.8133333,7.47372549 C89.8133333,4.56862745 91.1827451,2.79294118 93.6039216,2.79294118 C94.7678431,2.79294118 95.612549,3.26980392 95.9098039,4.10980392 L95.9098039,0.0596078431 L95.9105882,0.0596078431 Z M95.9105882,6.68862745 C95.9105882,5.58117647 95.4078431,4.98901961 94.5631373,4.98901961 C93.6039216,4.98901961 92.8501961,5.63764706 92.8501961,7.35764706 C92.8501961,8.77098039 93.4894118,9.51764706 94.4486275,9.51764706 C95.2933333,9.51764706 95.9098039,8.94431373 95.9098039,7.7772549 L95.9098039,6.68862745 L95.9105882,6.68862745 Z M88.6494118,6.38431373 C88.3513725,6.25019608 88.1231373,6.15372549 87.5984314,6.15372549 C86.9819608,6.15372549 86.0227451,6.44156863 86.0227451,7.96862745 L86.0227451,11.6172549 L83.0768627,11.6172549 L83.0768627,2.98196078 L85.5890196,2.98196078 L85.9317647,5.12156863 C86.1380392,3.66901961 87.3929412,2.98196078 88.854902,2.98196078 L88.6494118,6.38431373 Z M80.6580392,8.77098039 C80.6580392,9.19372549 80.772549,9.42196078 81.0682353,9.42196078 C81.2737255,9.42196078 81.4792157,9.30745098 81.5929412,9.25098039 L81.5929412,11.3701961 C81.1827451,11.6760784 80.8619608,11.7898039 80.1317647,11.7898039 C78.9678431,11.7898039 78.3278431,11.2760784 78.0305882,10.4337255 C77.5058824,11.3333333 76.7529412,11.8282353 75.4964706,11.8282353 C73.9215686,11.8282353 72.9631373,10.892549 72.9631373,9.42196078 C72.9631373,7.56784314 74.2188235,6.63215686 76.8682353,6.63215686 L77.7129412,6.63215686 L77.7129412,6.04078431 C77.7129412,5.4854902 77.5984314,5.10431373 76.9584314,5.10431373 C76.4564706,5.10431373 76.227451,5.41019608 76.227451,6.11607843 L73.2815686,5.67764706 C73.5105882,3.90117647 74.8580392,2.79372549 77.0721569,2.79372549 C79.6070588,2.79372549 80.6580392,3.86196078 80.6580392,5.75294118 L80.6580392,8.77098039 Z M77.7121569,8.16078431 L77.3921569,8.16078431 C76.227451,8.16078431 75.9082353,8.50352941 75.9082353,9.05803922 C75.9082353,9.47843137 76.1129412,9.78431373 76.6611765,9.78431373 C77.1639216,9.78431373 77.7121569,9.51764706 77.7121569,8.71372549 L77.7121569,8.16078431 Z M63.28,2.9827451 L66.4321569,2.9827451 L67.505098,6.46039216 C67.8015686,7.72078431 68.0305882,8.58196078 68.0305882,8.58196078 L68.145098,8.58196078 C68.145098,8.58196078 68.2360784,7.72078431 68.6486275,6.46039216 L69.8117647,2.9827451 L72.7576471,2.9827451 L69.6062745,11.6180392 L66.3411765,11.6180392 L63.28,2.9827451 Z M62.2298039,6.38431373 C61.9333333,6.25019608 61.705098,6.15372549 61.1803922,6.15372549 C60.5403922,6.15372549 59.6039216,6.44156863 59.6039216,7.96862745 L59.6039216,11.6172549 L56.6588235,11.6172549 L56.6588235,2.98196078 L59.1701961,2.98196078 L59.4894118,5.12156863 C59.8094118,3.66901961 60.9741176,2.98196078 62.4352941,2.98196078 L62.2298039,6.38431373 Z M54.2156863,8.77098039 C54.2156863,9.19372549 54.3301961,9.42196078 54.6494118,9.42196078 C54.854902,9.42196078 55.0603922,9.30745098 55.174902,9.25098039 L55.174902,11.3701961 C54.7639216,11.6760784 54.4439216,11.7898039 53.7137255,11.7898039 C52.5498039,11.7898039 51.9098039,11.2760784 51.612549,10.4337255 C51.0643137,11.3333333 50.3341176,11.8282353 49.0784314,11.8282353 C47.5027451,11.8282353 46.5435294,10.892549 46.5435294,9.42196078 C46.5435294,7.56784314 47.7992157,6.63215686 50.4486275,6.63215686 L51.2933333,6.63215686 L51.2933333,6.04078431 C51.2933333,5.4854902 51.1788235,5.10431373 50.5396078,5.10431373 C50.1286275,5.10431373 49.8086275,5.41019608 49.8086275,6.11607843 L46.9772549,5.67764706 C47.0917647,3.90117647 48.4392157,2.79372549 50.6541176,2.79372549 C53.1654902,2.79372549 54.2164706,3.86196078 54.2164706,5.75294118 L54.2164706,8.77098039 L54.2156863,8.77098039 Z M51.292549,8.16078431 L50.9498039,8.16078431 C49.8078431,8.16078431 49.4886275,8.50352941 49.4886275,9.05803922 C49.4886275,9.47843137 49.8078431,9.78431373 50.2415686,9.78431373 C50.7443137,9.78431373 51.2917647,9.51764706 51.2917647,8.71372549 L51.2917647,8.16078431 L51.292549,8.16078431 Z M85.1788235,29.6392157 L85.8180392,32.6533333 C86.1380392,34.2282353 86.3427451,35.3701961 86.3427451,35.3701961 C86.3427451,35.3701961 86.5490196,34.2282353 86.8682353,32.6988235 L87.5992157,29.64 L90.545098,29.64 L88.1239216,38.2933333 L84.7678431,38.2933333 L84.2431373,35.7592157 C84.0368627,34.48 83.8321569,32.9968627 83.8321569,32.9968627 L83.694902,32.9968627 C83.694902,32.9968627 83.6039216,34.4807843 83.2847059,35.7592157 L82.7592157,38.2933333 L79.3796078,38.2933333 L77.0729412,29.64 L80.132549,29.64 L80.772549,32.6988235 C81.1827451,34.2282353 81.3882353,35.3701961 81.3882353,35.3701961 C81.3882353,35.3701961 81.5937255,34.2282353 81.9137255,32.6533333 L82.4392157,29.6392157 L85.1788235,29.6392157 Z M73.9215686,35.1647059 L76.4556863,35.9411765 C75.9082353,37.7898039 74.3552941,38.4980392 72.665098,38.4980392 C70.1309804,38.4980392 68.2352941,36.8784314 68.2352941,34.0690196 C68.2352941,31.145098 69.9027451,29.4337255 72.5505882,29.4337255 C75.1772549,29.4337255 76.4556863,31.0784314 76.4556863,33.4752941 L76.4556863,34.5709804 L71.1803922,34.5709804 C71.1803922,35.6439216 71.7058824,36.214902 72.665098,36.214902 C73.2815686,36.214902 73.7152941,35.9176471 73.9215686,35.1647059 Z M73.6015686,33.0407843 C73.6015686,32.2870588 73.3952941,31.6486275 72.5505882,31.6486275 C71.7976471,31.6486275 71.294902,32.2196078 71.1811765,33.0407843 L73.6015686,33.0407843 Z M65.3811765,25.9168627 C66.2258824,25.9168627 67.0705882,26.5098039 67.0705882,27.492549 C67.0705882,28.4745098 66.2258824,29.0909804 65.3811765,29.0909804 C64.4447059,29.0909804 63.6917647,28.4745098 63.6917647,27.492549 C63.6917647,26.5098039 64.4447059,25.9168627 65.3811765,25.9168627 Z M66.8658824,38.292549 L63.92,38.292549 L63.92,29.6611765 L66.8658824,29.6611765 L66.8658824,38.292549 Z M53.507451,29.6392157 L56.6596078,29.6392157 L57.7090196,33.132549 C58.0290196,34.3647059 58.2352941,35.2329412 58.2352941,35.2329412 C58.2352941,35.2329412 58.4415686,34.3654902 58.8737255,33.132549 L60.0156863,29.6392157 L62.8705882,29.6392157 L59.8109804,38.292549 L56.5458824,38.292549 L53.507451,29.6392157 Z M50.5396078,35.1647059 L53.0737255,35.9411765 C52.5490196,37.7898039 50.9498039,38.4980392 49.2831373,38.4980392 C46.7482353,38.4980392 44.8533333,36.8784314 44.8533333,34.0690196 C44.8533333,31.145098 46.5435294,29.4337255 49.1921569,29.4337255 C51.8180392,29.4337255 53.0737255,31.0784314 53.0737255,33.4752941 L53.0737255,34.5709804 L47.7992157,34.5709804 C47.7992157,35.6439216 48.347451,36.214902 49.2839216,36.214902 C49.8996078,36.214902 50.3341176,35.9176471 50.5396078,35.1647059 Z M50.2423529,33.0407843 C50.2423529,32.2870588 49.8996078,31.6486275 49.1921569,31.6486275 C48.4392157,31.6486275 47.9137255,32.2196078 47.7992157,33.0407843 L50.2423529,33.0407843 Z M41.3372549,38.292549 C40.9952941,37.9733333 40.8352941,37.5615686 40.7207843,37.0360784 L40.3780392,35.6894118 C40.172549,34.8894118 39.8760784,34.7537255 39.1678431,34.7537255 L38.2086275,34.7537255 L38.2086275,38.292549 L35.1490196,38.292549 L35.1490196,27.2643137 L39.8760784,27.2643137 C42.3419608,27.2643137 44.054902,28.2462745 44.054902,30.734902 C44.054902,32.4705882 42.9129412,33.3152941 41.7027451,33.5427451 C42.707451,33.7490196 43.2329412,34.1827451 43.4839216,35.1419608 L44.0094118,37.0368627 C44.1466667,37.5160784 44.2839216,37.8815686 44.6713725,38.2933333 L41.3372549,38.2933333 L41.3372549,38.292549 Z M38.2086275,32.2870588 L39.3733333,32.2870588 C40.4462745,32.2870588 40.9027451,31.8533333 40.9027451,31.0776471 C40.9027451,30.2776471 40.4462745,29.8447059 39.3733333,29.8447059 L38.2086275,29.8447059 L38.2086275,32.2870588 Z M44.1223529,21.9662745 C44.1223529,23.747451 42.8894118,24.9576471 40.1952941,24.9576471 L35.1490196,24.9576471 L35.1490196,13.9498039 L40.0588235,13.9498039 C42.4101961,13.9498039 43.6431373,15.0188235 43.6431373,16.8156863 C43.6431373,18.107451 42.8894118,19.0211765 41.7254902,19.2956863 C43.2776471,19.6141176 44.1223529,20.665098 44.1223529,21.9662745 Z M38.1858824,18.5411765 L39.3733333,18.5411765 C40.172549,18.5411765 40.6517647,18.2211765 40.6517647,17.4909804 C40.6517647,16.7192157 40.172549,16.4337255 39.3733333,16.4337255 L38.1858824,16.4337255 L38.1858824,18.5411765 Z M38.1858824,22.4235294 L39.7843137,22.4235294 C40.5380392,22.4235294 40.9945098,22.08 40.9945098,21.4643137 C40.9945098,20.8243137 40.5372549,20.4823529 39.7843137,20.4823529 L38.1858824,20.4823529 L38.1858824,22.4235294 Z M98.6501961,21.9662745 C98.7647059,22.6980392 99.3811765,23.0619608 100.020392,23.0619608 C100.545882,23.0619608 100.865098,22.88 100.865098,22.5145098 C100.865098,22.1262745 100.545882,21.9662745 100.020392,21.8298039 L98.8784314,21.6007843 C97.2807843,21.2580392 96.4588235,20.4368627 96.4588235,19.0211765 C96.4588235,16.9294118 98.2156863,16.107451 100.134902,16.107451 C102.236078,16.107451 103.491765,16.9686275 103.81098,18.5647059 L101.071373,18.9984314 C100.980392,18.4956863 100.661176,18.2219608 100.021176,18.2219608 C99.6101961,18.2219608 99.2901961,18.4509804 99.2901961,18.7701961 C99.2901961,19.1129412 99.6094118,19.2729412 100.021176,19.3639216 L101.185098,19.5466667 C103.08,19.8666667 103.924706,20.8941176 103.924706,22.3552941 C103.924706,24.387451 102.121569,25.1866667 100.020392,25.1866667 C98.0109804,25.1866667 96.7552941,24.4556863 96.2305882,22.9262745 L98.6501961,21.9662745 Z M89.905098,21.9662745 C90.1333333,22.6980392 90.6588235,23.0619608 91.2972549,23.0619608 C91.8,23.0619608 92.2337255,22.88 92.2337255,22.5145098 C92.2337255,22.1262745 91.9137255,21.9662745 91.2972549,21.8298039 L90.1333333,21.6007843 C88.5576471,21.2580392 87.6909804,20.4368627 87.6909804,19.0211765 C87.6909804,16.9294118 89.494902,16.107451 91.5035294,16.107451 C93.4901961,16.107451 94.7686275,16.9686275 95.0658824,18.5647059 L92.3482353,18.9984314 C92.2337255,18.4956863 91.9137255,18.2219608 91.3890196,18.2219608 C90.9545098,18.2219608 90.6580392,18.4509804 90.6580392,18.7701961 C90.6580392,19.1129412 90.8635294,19.2729412 91.2964706,19.3639216 L92.4384314,19.5466667 C94.4478431,19.8666667 95.1788235,20.8941176 95.1788235,22.3552941 C95.1788235,24.387451 93.3976471,25.1866667 91.2964706,25.1866667 C89.2870588,25.1866667 88.0321569,24.4556863 87.4839216,22.9262745 L89.905098,21.9662745 Z M83.9223529,21.8298039 L86.4345098,22.6054902 C85.9317647,24.454902 84.4486275,25.1858824 82.6439216,25.1858824 C80.1317647,25.1858824 78.2368627,23.5411765 78.2368627,20.7333333 C78.2368627,17.8337255 79.9262745,16.107451 82.6439216,16.107451 C85.1780392,16.107451 86.5490196,17.7419608 86.5490196,20.1403922 C86.5490196,20.4603922 86.5490196,20.8486275 86.4345098,21.2368627 L81.1827451,21.2368627 C81.2737255,22.3090196 81.8211765,22.8807843 82.6439216,22.8807843 C83.2839216,22.88 83.6941176,22.6054902 83.9223529,21.8298039 Z M83.6031373,19.7058824 C83.6031373,18.9521569 83.3976471,18.3129412 82.5294118,18.3129412 C81.8219608,18.3129412 81.3882353,18.9066667 81.2737255,19.7058824 L83.6031373,19.7058824 Z M71.7976471,17.9709804 C72.2321569,16.7011765 73.1678431,16.107451 74.56,16.107451 C75.8164706,16.107451 77.0713725,16.8909804 77.0713725,18.8847059 L77.0713725,24.9584314 L74.012549,24.9584314 L74.012549,20.0258824 C74.012549,19.1584314 73.8062745,18.6329412 72.9623529,18.6329412 C72.3458824,18.6329412 71.7976471,19.0211765 71.7976471,20.3223529 L71.7976471,24.9576471 L68.7607843,24.9576471 L68.7607843,16.3176471 L71.5011765,16.3176471 L71.7976471,17.9709804 Z M65.4956863,12.572549 C66.4313725,12.572549 67.185098,13.2054902 67.185098,14.16 C67.185098,15.1537255 66.4313725,15.7654902 65.4956863,15.7654902 C64.6509804,15.7654902 63.92,15.1537255 63.92,14.16 C63.92,13.2047059 64.6509804,12.572549 65.4956863,12.572549 Z M67.0713725,24.9576471 L64.0345098,24.9576471 L64.0345098,16.3176471 L67.0713725,16.3176471 L67.0713725,24.9576471 Z M57.5035294,21.9662745 C57.7082353,22.6980392 58.2345098,23.0619608 58.8729412,23.0619608 C59.3756863,23.0619608 59.8094118,22.88 59.8094118,22.5145098 C59.8094118,22.1262745 59.4894118,21.9662745 58.8729412,21.8298039 L57.7082353,21.6007843 C56.1105882,21.2580392 55.2658824,20.4368627 55.2658824,19.0211765 C55.2658824,16.9294118 57.0698039,16.107451 59.0784314,16.107451 C61.0658824,16.107451 62.3435294,16.9686275 62.6415686,18.5647059 L59.9239216,18.9984314 C59.8094118,18.4956863 59.4894118,18.2219608 58.9639216,18.2219608 C58.5545098,18.2219608 58.2337255,18.4509804 58.2337255,18.7701961 C58.2337255,19.1129412 58.44,19.2729412 58.8721569,19.3639216 L60.0141176,19.5466667 C61.9090196,19.8666667 62.7545098,20.8941176 62.7545098,22.3552941 C62.7545098,24.387451 60.9733333,25.1866667 58.8721569,25.1866667 C56.8627451,25.1866667 55.6078431,24.4556863 55.0596078,22.9262745 L57.5035294,21.9662745 Z M50.745098,23.3592157 C50.5396078,24.4784314 49.6031373,25.1858824 48.1419608,25.1858824 C46.5435294,25.1858824 45.4698039,24.2039216 45.4698039,22.1717647 L45.4698039,16.3168627 L48.5529412,16.3168627 L48.5529412,21.5317647 C48.5529412,22.3992157 48.7584314,22.9019608 49.4894118,22.9019608 C50.2423529,22.9019608 50.745098,22.1937255 50.745098,20.8007843 L50.745098,16.3160784 L53.7137255,16.3160784 L53.7137255,24.9568627 L51.065098,24.9568627 L50.745098,23.3592157 Z" id="Shape"></path>
                        <path d="M21.2203922,12.3623529 C21.4258824,12.6682353 21.5623529,13.0133333 21.6086275,13.3756863 C21.7913725,14.3694118 21.2886275,15.4188235 19.4619608,15.5160784 C19.4619608,17.025098 19.0509804,17.627451 17.1560784,17.6501961 C17.3160784,19.2486275 16.4941176,19.7741176 15.5968627,19.7741176 C14.6972549,19.7741176 13.8572549,19.2486275 14.0101961,17.6501961 C12.1192157,17.6501961 11.7356863,17.025098 11.7176471,15.5160784 C9.88470588,15.4015686 9.40705882,14.3694118 9.56,13.3756863 C9.56,13.012549 9.74980392,12.6682353 9.96,12.3623529 L0.177254902,12.3623529 L0.177254902,12.8603922 C0.177254902,31.214902 15.387451,39.1380392 15.4235294,39.1380392 L15.6337255,39.2752941 L15.8823529,39.1380392 C15.8823529,39.1380392 31.0854902,31.2141176 31.1082353,12.8603922 L31.1082353,12.3623529 L21.2203922,12.3623529 Z M8.54509804,29.2047059 C8.90823529,29.0219608 9.19607843,28.4517647 9.25254902,28.0627451 C9.36705882,27.5835294 9.44235294,27.3780392 9.71137255,27.3552941 C9.97803922,27.3552941 10.0745098,27.5835294 10.1686275,28.0627451 C10.2643137,28.4517647 10.5129412,29.0219608 10.8760784,29.2047059 C11.1043137,29.3192157 11.8305882,29.3411765 11.6776471,29.7984314 C11.5835294,29.9811765 11.4494118,30.3701961 11.2572549,30.1866667 C11.0470588,30.0266667 10.705098,29.547451 10.5701961,29.5247059 C10.4352941,29.5247059 10.4556863,29.6839216 10.5701961,29.774902 C10.6658824,29.8894118 10.8760784,30.1858824 11.0086275,30.3466667 C11.1819608,30.5286275 11.2211765,30.8713725 10.8941176,31.0305882 C10.6086275,31.1678431 10.3027451,31.0305882 10.3027451,30.8258824 C10.3027451,30.5976471 10.1882353,29.9121569 10.0541176,29.9121569 C9.95843137,29.9121569 9.95843137,30.0941176 9.95843137,30.2776471 C9.95843137,30.6878431 10.1686275,31.0086275 10.1505882,31.1913725 C10.1505882,31.3968627 10.0541176,31.6015686 9.73019608,31.6015686 C9.36705882,31.6015686 9.32784314,31.3960784 9.28941176,31.1913725 C9.28941176,31.0086275 9.53803922,30.6878431 9.49960784,30.2776471 C9.49960784,30.094902 9.49960784,29.9121569 9.38509804,29.9121569 C9.25254902,29.9121569 9.11843137,30.5976471 9.13882353,30.8258824 C9.13882353,30.9631373 8.83294118,31.1678431 8.54509804,31.0305882 C8.25960784,30.8713725 8.29647059,30.5286275 8.43058824,30.3466667 C8.56470588,30.1866667 8.79372549,29.8439216 8.88941176,29.774902 C8.88941176,29.6603922 8.98588235,29.5003922 8.77490196,29.5247059 C8.64,29.5247059 8.29568627,30.0266667 8.10588235,30.1866667 C7.89568627,30.3694118 7.76078431,29.9811765 7.65882353,29.7984314 C7.5027451,29.3411765 8.25882353,29.3192157 8.48784314,29.2047059 L8.54509804,29.2047059 Z M8.7372549,27.9490196 C8.9654902,27.9490196 8.85176471,28.1552941 8.83294118,28.3835294 C8.83294118,28.5898039 8.7372549,28.6117647 8.52705882,28.2690196 C8.29647059,27.9717647 8.52705882,27.9254902 8.75529412,27.9254902 L8.7372549,27.9490196 Z M10.5709804,27.9254902 C10.7992157,27.9254902 11.0094118,28.0172549 10.7811765,28.2690196 C10.5529412,28.5890196 10.4956863,28.5427451 10.4752941,28.3835294 C10.4752941,28.1552941 10.3223529,27.9262745 10.5709804,27.9490196 L10.5709804,27.9254902 Z M21.3568627,29.9129412 C21.2203922,29.9129412 21.1058824,30.574902 21.1058824,30.8031373 C21.1058824,30.9639216 20.8086275,31.1458824 20.5341176,31.0094118 C20.2376471,30.8501961 20.2831373,30.5066667 20.4196078,30.3239216 C20.5568627,30.1647059 20.785098,29.8219608 20.8768627,29.7537255 C20.9678431,29.6392157 20.9678431,29.4784314 20.7623529,29.5019608 C20.6258824,29.5019608 20.2831373,30.0054902 20.0768627,30.1647059 C19.8713725,30.347451 19.7341176,29.9364706 19.6431373,29.7545098 C19.5066667,29.32 20.2368627,29.32 20.465098,29.2062745 C20.8078431,29 21.1043137,28.4298039 21.172549,28.0415686 C21.2635294,27.5623529 21.3552941,27.3568627 21.6062745,27.3341176 C21.8572549,27.3341176 21.9945098,27.5623529 22.0627451,28.0415686 C22.1545098,28.4298039 22.4054902,29.0007843 22.7709804,29.2062745 C22.9992157,29.3207843 23.7301961,29.3207843 23.5701961,29.7545098 C23.4792157,29.9364706 23.3419608,30.3482353 23.1592157,30.1647059 C22.9537255,30.0054902 22.6109804,29.5262745 22.4745098,29.5019608 C22.3372549,29.5019608 22.36,29.6619608 22.4745098,29.7537255 C22.5654902,29.8447059 22.7709804,30.1639216 22.9082353,30.3239216 C23.0909804,30.5066667 23.1372549,30.8501961 22.8172549,31.0094118 C22.52,31.1458824 22.2007843,31.0094118 22.2235294,30.8031373 C22.2235294,30.574902 22.0862745,29.9129412 21.9490196,29.9129412 C21.8572549,29.9129412 21.8572549,30.0729412 21.8572549,30.2564706 C21.8572549,30.6666667 22.0862745,30.9639216 22.04,31.1921569 C22.04,31.3741176 21.9254902,31.5796078 21.6298039,31.5796078 C21.2870588,31.5796078 21.2188235,31.3741176 21.2188235,31.1921569 C21.2188235,30.9639216 21.4243137,30.6666667 21.4015686,30.2564706 C21.4015686,30.0737255 21.4015686,29.9129412 21.2870588,29.9129412 L21.3568627,29.9129412 Z M20.694902,27.9254902 C20.9458824,27.9254902 20.8094118,28.1545098 20.8094118,28.36 C20.8094118,28.5662745 20.694902,28.5890196 20.5129412,28.2690196 C20.2847059,27.9490196 20.5129412,27.9254902 20.7184314,27.8807843 L20.694902,27.9254902 Z M22.5215686,27.8807843 C22.7733333,27.8807843 22.9788235,27.9952941 22.7505882,28.2690196 C22.5215686,28.5662745 22.4541176,28.5192157 22.4305882,28.36 C22.4305882,28.1545098 22.2941176,27.9254902 22.545098,27.9254902 L22.5215686,27.8807843 Z M22.7498039,16.185098 C22.5207843,16.4909804 22.4760784,16.4705882 22.4533333,16.2996078 C22.4533333,16.0894118 22.2933333,15.8407843 22.545098,15.8611765 C22.8188235,15.8611765 22.9788235,15.974902 22.7505882,16.2235294 L22.7498039,16.185098 Z M20.7411765,15.84 C20.9921569,15.84 20.854902,16.0501961 20.8321569,16.2807843 C20.8321569,16.4909804 20.7411765,16.5098039 20.534902,16.1647059 C20.2839216,15.8792157 20.534902,15.84 20.7639216,15.8047059 L20.7411765,15.84 Z M20.5121569,17.0823529 C20.8776471,16.8721569 21.1286275,16.3176471 21.2203922,15.9364706 C21.3113725,15.4415686 21.4031373,15.2494118 21.6541176,15.2313725 C21.9278431,15.2313725 22.0423529,15.4415686 22.1113725,15.9364706 C22.2258824,16.3176471 22.4541176,16.8729412 22.8188235,17.0823529 C23.0470588,17.1968627 23.7780392,17.1968627 23.6407843,17.6282353 C23.5262745,17.8572549 23.3898039,18.2219608 23.2070588,18.0619608 C22.9780392,17.8564706 22.6352941,17.4070588 22.5215686,17.3882353 C22.385098,17.3882353 22.4078431,17.56 22.5215686,17.6282353 C22.6360784,17.7427451 22.8188235,18.0619608 22.9560784,18.1992157 C23.1152941,18.4047059 23.1843137,18.747451 22.8643137,18.8847059 C22.545098,19.0219608 22.2478431,18.8847059 22.2705882,18.6792157 C22.2705882,18.4509804 22.1333333,17.7654902 22.0196078,17.7654902 C21.9058824,17.7654902 21.905098,17.9709804 21.905098,18.1537255 C21.905098,18.5419608 22.1333333,18.8611765 22.0878431,19.0666667 C22.0878431,19.2721569 21.9968627,19.4776471 21.6768627,19.4776471 C21.3341176,19.4776471 21.2886275,19.2721569 21.2431373,19.0666667 C21.2431373,18.8611765 21.4713725,18.5419608 21.4486275,18.1537255 C21.4486275,17.9709804 21.4486275,17.7654902 21.334902,17.7654902 C21.2203922,17.7654902 21.0603922,18.4509804 21.0831373,18.6792157 C21.0831373,18.8392157 20.7866667,19.0219608 20.4894118,18.8847059 C20.1921569,18.747451 20.2611765,18.4054902 20.3984314,18.1992157 C20.534902,18.0619608 20.7639216,17.72 20.8321569,17.6282353 C20.9239216,17.5137255 20.9239216,17.3498039 20.7176471,17.3882353 C20.6031373,17.3882353 20.2611765,17.8564706 20.0556863,18.0619608 C19.8501961,18.2219608 19.7129412,17.8564706 19.6219608,17.6282353 C19.4847059,17.1968627 20.1929412,17.1968627 20.4211765,17.0823529 L20.5121569,17.0823529 Z M21.585098,21.8980392 C21.425098,20.2086275 22.4988235,19.7286275 23.7545098,19.8203922 C23.5717647,18.1309804 24.44,17.56 25.9701961,17.6282353 C25.7647059,15.6509804 27.0886275,15.4203922 28.1388235,15.4980392 C27.9788235,14.0070588 29.0298039,13.4156863 29.7372549,13.3380392 L29.9662745,13.3380392 C29.8745098,20.1176471 27.5913725,25.3694118 24.8737255,29.2972549 C23.7545098,28.9992157 23.5717647,28.0862745 23.6635294,27.2643137 C21.9968627,27.4462745 21.334902,26.2815686 21.5623529,25.1184314 C20.9239216,25.3458824 19.5529412,25.0266667 19.3701961,23.8172549 C19.2337255,22.6290196 20.1701961,21.8980392 21.585098,21.8980392 Z M16.4729412,21.8980392 C16.7215686,21.8980392 16.9137255,22.012549 16.6831373,22.2862745 C16.454902,22.5827451 16.4156863,22.5372549 16.3796078,22.3780392 C16.3796078,22.1717647 16.2447059,21.9435294 16.4941176,21.9435294 L16.4729412,21.8980392 Z M14.6776471,21.9443137 C14.9066667,21.9443137 14.7921569,22.172549 14.7921569,22.3788235 C14.7921569,22.5835294 14.6776471,22.6062745 14.4862745,22.2870588 C14.2580392,21.9670588 14.4862745,21.9443137 14.6964706,21.8988235 L14.6776471,21.9443137 Z M14.4501961,23.1764706 C14.8133333,22.9717647 15.0988235,22.4235294 15.1552941,22.0352941 C15.2509804,21.532549 15.347451,21.3505882 15.6141176,21.3278431 C15.8627451,21.3278431 15.9772549,21.5333333 16.052549,22.0352941 C16.1686275,22.4235294 16.3976471,22.9717647 16.7607843,23.1764706 C16.9890196,23.2909804 17.7262745,23.2909804 17.5898039,23.7247059 C17.4752941,23.9309804 17.3615686,24.3184314 17.1333333,24.1584314 C16.9529412,23.9537255 16.5898039,23.4964706 16.4737255,23.4737255 C16.3411765,23.4737255 16.3592157,23.6556863 16.3592157,23.7247059 C16.4737255,23.8164706 16.6839216,24.1584314 16.8,24.2964706 C16.9709804,24.5019608 17.0188235,24.8439216 16.7043137,24.9803922 C16.4164706,25.1184314 16.1105882,24.9803922 16.1105882,24.7756863 C16.1105882,24.5466667 15.9780392,23.8619608 15.8643137,23.8619608 C15.7505882,23.8619608 15.7498039,24.0447059 15.7498039,24.227451 C15.7498039,24.6384314 15.9780392,24.9584314 15.96,25.1631373 C15.96,25.3694118 15.8439216,25.5733333 15.5192157,25.5733333 C15.174902,25.5733333 15.1380392,25.3686275 15.0988235,25.1631373 C15.0988235,24.9576471 15.3270588,24.6384314 15.2901961,24.227451 C15.2901961,24.0454902 15.2901961,23.8619608 15.1945098,23.8619608 C15.0596078,23.8619608 14.9066667,24.5466667 14.9270588,24.7756863 C14.9270588,24.934902 14.6392157,25.1184314 14.3545098,24.9803922 C14.0486275,24.8439216 14.1058824,24.5019608 14.24,24.2964706 C14.3717647,24.1584314 14.6,23.8172549 14.6776471,23.7247059 C14.6776471,23.6101961 14.7921569,23.4509804 14.5819608,23.4737255 C14.4501961,23.4737255 14.105098,23.9537255 13.894902,24.1584314 C13.7027451,24.3184314 13.5701961,23.9309804 13.4745098,23.7247059 C13.3215686,23.2901961 14.0478431,23.2901961 14.2752941,23.1764706 L14.4501961,23.1764706 Z M13.7419608,29.547451 C13.5890196,28.2690196 14.3717647,27.4462745 15.4039216,27.4462745 C16.4360784,27.4462745 17.2015686,28.2690196 17.0870588,29.547451 C18.2062745,29.227451 19.7129412,29.7984314 19.347451,31.7396078 C20.6486275,31.3058824 21.6313725,31.9905882 21.6996078,33.0407843 C18.8454902,36.0313725 16.1301961,37.6988235 15.3466667,38.1552941 C14.5631373,37.6988235 11.907451,36.0784314 9.09960784,33.1545098 C9.09960784,32.0133333 10.1317647,31.2815686 11.467451,31.7388235 C11.1043137,29.7984314 12.6141176,29.227451 13.7419608,29.547451 Z M11.6023529,23.8619608 C11.4313725,25.0721569 10.0541176,25.3913725 9.42431373,25.1631373 C9.65254902,26.305098 9.00392157,27.5152941 7.31372549,27.332549 C7.41882353,28.1552941 7.20941176,29.1137255 5.97803922,29.3647059 C3.26352941,25.4596078 0.989019608,20.1858824 0.883921569,13.3764706 L1.18745098,13.3764706 C1.90431373,13.4909804 2.95686275,14.0454902 2.79764706,15.5341176 C3.82980392,15.4407843 5.16705882,15.6870588 4.96627451,17.6745098 C6.47058824,17.56 7.34823529,18.1764706 7.17882353,19.8666667 C8.44862745,19.7521569 9.51921569,20.254902 9.34823529,21.9443137 C10.7615686,21.9443137 11.7160784,22.6517647 11.5631373,23.8619608 L11.6023529,23.8619608 Z M8.29647059,16.2807843 C8.29647059,16.4909804 8.20235294,16.5098039 7.99294118,16.185098 C7.76235294,15.8792157 7.99294118,15.84 8.20313725,15.8219608 C8.43215686,15.8219608 8.31764706,16.0321569 8.31764706,16.2603922 L8.29647059,16.2807843 Z M10.0360784,15.84 C10.2847059,15.84 10.4745098,15.9545098 10.2462745,16.2031373 C10.0156863,16.5090196 9.95843137,16.4909804 9.94039216,16.3176471 C9.94039216,16.107451 9.78745098,15.8611765 10.054902,15.8792157 L10.0360784,15.84 Z M9.59529412,15.9929412 C9.71137255,16.3764706 9.93960784,16.9294118 10.3027451,17.1207843 C10.5309804,17.2352941 11.2776471,17.2533333 11.1247059,17.6737255 C11.0086275,17.9019608 10.8760784,18.2901961 10.6839216,18.107451 C10.494902,17.9254902 10.1498039,17.4682353 10.014902,17.4454902 C9.86196078,17.4454902 9.90039216,17.6282353 10.014902,17.6745098 C10.1105882,17.7890196 10.3027451,18.1082353 10.4556863,18.2682353 C10.6086275,18.4509804 10.6658824,18.7929412 10.3411765,18.9301961 C10.0533333,19.0666667 9.74745098,18.9301961 9.74745098,18.747451 C9.74745098,18.4964706 9.63294118,17.8345098 9.49882353,17.8345098 C9.38431373,17.8345098 9.38431373,18.0164706 9.38431373,18.1992157 C9.38431373,18.587451 9.61490196,18.907451 9.57647059,19.1129412 C9.57647059,19.3184314 9.46196078,19.5239216 9.15607843,19.5239216 C8.79294118,19.5239216 8.75372549,19.3184314 8.71529412,19.1129412 C8.71529412,18.907451 8.94588235,18.587451 8.90745098,18.1992157 C8.90745098,18.0164706 8.90745098,17.8345098 8.81176471,17.8345098 C8.67921569,17.8345098 8.52627451,18.4964706 8.54431373,18.747451 C8.54431373,18.907451 8.25882353,19.0666667 7.97098039,18.9301961 C7.65882353,18.7929412 7.6972549,18.4509804 7.85647059,18.2682353 C7.99137255,18.1082353 8.21960784,17.7654902 8.29490196,17.6745098 C8.41098039,17.5827451 8.41098039,17.4070588 8.29490196,17.4454902 C8.16235294,17.4454902 7.81803922,17.9254902 7.61882353,18.107451 C7.41803922,18.2901961 7.28313725,17.9019608 7.18745098,17.6737255 C7.02980392,17.2533333 7.77882353,17.2352941 7.99137255,17.1207843 C8.37254902,16.9286275 8.64,16.3764706 8.71529412,15.9929412 C8.81176471,15.4980392 8.90745098,15.2878431 9.15607843,15.2878431 C9.42352941,15.2878431 9.51921569,15.4980392 9.61490196,15.9929412 L9.59529412,15.9929412 Z M0.176470588,0.614117647 L0.176470588,11.3694118 L31.107451,11.3694118 L31.107451,0.614117647 L0.176470588,0.614117647 Z M26.8376471,3.51921569 L27.1341176,3.51921569 C27.2486275,3.51921569 27.2486275,3.51921569 27.2486275,3.61333333 L27.2486275,8.40784314 L26.8376471,8.06509804 L26.8376471,3.57647059 L26.8376471,3.46039216 L26.8376471,3.51921569 Z M27.1113725,8.44627451 L24.6682353,8.44627451 C24.6682353,8.31372549 24.5764706,8.19764706 24.4627451,8.12156863 L26.7466667,8.12156863 L27.1113725,8.44627451 Z M21.8368627,3.5372549 C21.8368627,3.5372549 22.0196078,3.4227451 22.0423529,3.4227451 L22.1568627,3.4227451 C22.6133333,3.4227451 23.1152941,3.4227451 23.5498039,3.61254902 C23.9380392,3.76470588 24.2117647,4.01411765 24.2117647,4.49098039 L24.3717647,4.49098039 C24.3717647,4.01411765 24.6454902,3.76470588 25.0564706,3.61254902 C25.4447059,3.45960784 25.9929412,3.4227451 26.4266667,3.4227451 L26.6556863,3.4227451 L26.6556863,7.79843137 C26.6556863,7.79843137 26.6556863,7.91294118 26.5647059,7.91294118 L21.9286275,7.91294118 C21.9286275,7.91294118 21.814902,7.91294118 21.814902,7.79843137 L21.8368627,3.5372549 Z M21.9505882,8.12156863 L24.0282353,8.12156863 C23.9137255,8.23607843 23.8227451,8.31372549 23.8,8.44627451 L21.4705882,8.44627451 L21.8588235,8.10431373 L21.9733333,8.10431373 L21.9505882,8.12156863 Z M21.4031373,3.5372549 C21.4031373,3.5372549 21.4031373,3.4227451 21.4941176,3.4227451 L21.7913725,3.4227451 L21.7913725,8.02588235 L21.4031373,8.35058824 L21.4031373,3.5372549 Z M18.6172549,3.4227451 C18.6172549,3.4227451 18.7317647,3.4227451 18.7317647,3.5372549 L18.7317647,8.29333333 L18.3207843,7.96862745 L18.3207843,3.45882353 L18.6172549,3.45882353 L18.6172549,3.4227451 Z M18.6172549,8.44627451 L16.1490196,8.44627451 C16.1490196,8.31372549 16.0345098,8.19764706 15.9388235,8.12156863 L18.2290196,8.12156863 L18.6172549,8.44627451 Z M15.8243137,4.35921569 C15.8243137,3.95764706 16.0345098,3.74745098 16.3584314,3.61333333 C16.6831373,3.48078431 17.0870588,3.44156863 17.452549,3.44156863 L18.2290196,3.44156863 L18.2290196,7.8345098 C18.2290196,7.8345098 18.2290196,7.95137255 18.1145098,7.95137255 L15.8243137,7.95137255 L15.8243137,4.35921569 Z M13.3215686,3.5372549 L14.105098,3.5372549 C14.4494118,3.5372549 14.8698039,3.5372549 15.1733333,3.69019608 C15.4996078,3.82196078 15.7098039,4.03294118 15.7098039,4.45568627 L15.7098039,8.06509804 L13.3968627,8.06509804 C13.3968627,8.06509804 13.3035294,8.06509804 13.3035294,7.95137255 L13.3215686,3.5372549 Z M13.4360784,8.12156863 L15.4792157,8.12156863 C15.385098,8.21803922 15.2894118,8.31372549 15.2894118,8.44627451 L12.9411765,8.44627451 L13.3615686,8.10431373 L13.454902,8.10431373 L13.4360784,8.12156863 Z M12.7490196,3.61254902 C12.7490196,3.61254902 12.7490196,3.49803922 12.8635294,3.49803922 L13.1513725,3.49803922 L13.1513725,8.00784314 L12.7678431,8.33254902 L12.7490196,3.61254902 Z M9.67294118,3.49803922 L9.95843137,3.49803922 C10.0745098,3.49803922 10.0745098,3.49803922 10.0745098,3.61254902 L10.0745098,8.38901961 L9.67294118,8.06431373 L9.67294118,3.5545098 L9.67294118,3.49803922 Z M9.97882353,8.52392157 L7.50352941,8.52392157 C7.50352941,8.38901961 7.39843137,8.27529412 7.30588235,8.19686275 L9.59607843,8.19686275 L9.97882353,8.52392157 Z M7.18901961,4.45568627 C7.18901961,4.03294118 7.39921569,3.8227451 7.72313725,3.69019608 C8.05019608,3.55529412 8.46980392,3.5372549 8.81254902,3.5372549 L9.49960784,3.5372549 L9.49960784,7.91215686 C9.49960784,7.91215686 9.49960784,8.02588235 9.38509804,8.02588235 L7.08313725,8.02588235 L7.18901961,4.45568627 Z M4.68392157,3.61254902 L5.46196078,3.61254902 C5.80862745,3.61254902 6.21960784,3.61254902 6.53568627,3.76470588 C6.85254902,3.91764706 7.0627451,4.12784314 7.0627451,4.53019608 L7.0627451,8.14039216 L4.74745098,8.14039216 C4.74745098,8.14039216 4.64156863,8.14039216 4.64156863,8.04705882 L4.68392157,3.61254902 Z M4.78901961,8.19764706 L6.84156863,8.19764706 C6.72705882,8.31372549 6.65176471,8.38980392 6.64078431,8.52470588 L4.29333333,8.52470588 L4.70431373,8.18039216 L4.82039216,8.18039216 L4.78901961,8.19764706 Z M4.23215686,3.61254902 C4.23215686,3.61254902 4.23215686,3.51843137 4.3372549,3.51843137 L4.6227451,3.51843137 L4.6227451,8.00705882 L4.23215686,8.33176471 L4.23215686,3.61254902 Z M3.71607843,8.86666667 C3.61098039,8.86666667 3.57882353,8.75215686 3.57882353,8.71372549 L3.57882353,8.00784314 C3.37803922,8.00784314 3.22039216,7.85568627 3.22039216,7.70196078 C3.22039216,7.56705882 3.3772549,7.43529412 3.57882353,7.39607843 L3.57882353,5.06431373 C3.37803922,5.06431373 3.22039216,4.91137255 3.22039216,4.77882353 C3.22039216,4.6054902 3.3772549,4.49098039 3.57882353,4.47294118 L3.57882353,3.55529412 C3.57882353,3.44078431 3.68392157,3.4227451 3.71607843,3.4227451 L4.12705882,3.51921569 L4.12705882,8.42823529 C4.12705882,8.58117647 4.24156863,8.67686275 4.36705882,8.67686275 L6.71686275,8.67686275 C6.71686275,8.77098039 6.71686275,8.80941176 6.82196078,8.86666667 L3.71607843,8.86666667 Z M7.26431373,8.86666667 L6.98745098,8.86666667 C6.88235294,8.75215686 6.80941176,8.69568627 6.80941176,8.58117647 C6.80941176,8.40784314 6.94588235,8.25647059 7.12392157,8.25647059 C7.29254902,8.25647059 7.44156863,8.40705882 7.44156863,8.58117647 C7.44235294,8.69490196 7.3372549,8.80941176 7.26431373,8.86666667 Z M10.9905882,7.70196078 C10.9905882,7.85490196 10.8376471,7.96862745 10.6486275,8.00784314 L10.6486275,8.71372549 C10.6486275,8.82980392 10.5317647,8.86666667 10.4956863,8.86666667 L7.48392157,8.86666667 C7.48392157,8.75215686 7.58196078,8.73411765 7.58196078,8.65647059 L10.054902,8.65647059 C10.1898039,8.65647059 10.3035294,8.56 10.3035294,8.42745098 L10.3035294,3.61254902 L10.3035294,3.48 L10.5709804,3.48 C10.6666667,3.48 10.7058824,3.57568627 10.7058824,3.61254902 L10.7058824,4.54823529 C10.894902,4.54823529 11.0690196,4.68313725 11.0690196,4.83607843 C11.0690196,4.98901961 10.894902,5.1027451 10.7058824,5.12156863 L10.7058824,7.45333333 C10.894902,7.45333333 11.0690196,7.60627451 11.0690196,7.75921569 L10.9905882,7.70196078 Z M12.3678431,8.90509804 C12.2517647,8.90509804 12.2329412,8.80862745 12.2329412,8.77019608 L12.2329412,8.06431373 C12.0227451,8.06431373 11.8886275,7.91215686 11.8886275,7.75843137 C11.8886275,7.6054902 12.0227451,7.47294118 12.2329412,7.45254902 L12.2329412,5.06431373 C12.0227451,5.06431373 11.8886275,4.91137255 11.8886275,4.77882353 C11.8886275,4.6054902 12.0227451,4.49098039 12.2329412,4.47294118 L12.2329412,3.55529412 C12.2329412,3.44078431 12.2329412,3.4227451 12.3678431,3.4227451 L12.7670588,3.51921569 L12.7670588,8.42823529 C12.7670588,8.58117647 12.8815686,8.67686275 13.0156863,8.67686275 L15.347451,8.67686275 C15.347451,8.77098039 15.347451,8.80941176 15.4619608,8.86666667 L12.3678431,8.90509804 Z M15.92,8.90509804 L15.6321569,8.90509804 C15.5364706,8.80862745 15.4611765,8.75215686 15.4611765,8.61960784 C15.4611765,8.46666667 15.5960784,8.31372549 15.7670588,8.31372549 C15.9592157,8.31372549 16.0917647,8.46666667 16.0917647,8.61960784 C16.0917647,8.75215686 15.9772549,8.86666667 15.92,8.90509804 Z M19.6447059,7.75921569 C19.6447059,7.91215686 19.4847059,8.02588235 19.2792157,8.06509804 L19.2792157,8.77098039 C19.2792157,8.88705882 19.1647059,8.90588235 19.1427451,8.90588235 L16.1490196,8.90588235 C16.1490196,8.80941176 16.2447059,8.79137255 16.2447059,8.71372549 L18.7082353,8.71372549 C18.8454902,8.71372549 18.96,8.59921569 18.96,8.4854902 L18.96,3.66980392 L18.96,3.5372549 L19.2109804,3.5372549 C19.3254902,3.5372549 19.347451,3.63294118 19.347451,3.66901961 L19.347451,4.58666667 C19.5529412,4.58666667 19.7129412,4.73960784 19.7129412,4.89254902 C19.7129412,5.02666667 19.5529412,5.15921569 19.347451,5.17803922 L19.347451,7.50980392 C19.5529412,7.50980392 19.7129412,7.6627451 19.7129412,7.81568627 L19.6447059,7.75921569 Z M21.0141176,8.96235294 C20.8996078,8.96235294 20.8776471,8.86588235 20.8776471,8.82980392 L20.8776471,8.10431373 C20.6721569,8.10431373 20.534902,7.96941176 20.534902,7.81568627 C20.534902,7.66352941 20.6721569,7.53098039 20.8776471,7.50980392 L20.8776471,5.06431373 C20.6721569,5.06431373 20.534902,4.91137255 20.534902,4.77882353 C20.534902,4.6054902 20.6721569,4.49098039 20.8776471,4.47294118 L20.8776471,3.55529412 C20.8776471,3.44078431 20.9921569,3.4227451 21.0141176,3.4227451 L21.425098,3.51921569 L21.425098,8.42823529 C21.425098,8.56078431 21.5396078,8.6572549 21.6533333,8.6572549 L24.0054902,8.6572549 C24.0054902,8.77176471 24.0054902,8.81019608 24.0972549,8.86745098 L21.0141176,8.96235294 Z M24.5545098,8.96235294 L24.28,8.96235294 C24.1654902,8.86588235 24.0972549,8.80941176 24.0972549,8.67686275 C24.0972549,8.50352941 24.2572549,8.37098039 24.4164706,8.37098039 C24.5992157,8.37098039 24.7364706,8.50352941 24.7364706,8.67686275 C24.7364706,8.80941176 24.6227451,8.90509804 24.5545098,8.96235294 Z M28.2760784,7.81568627 C28.2760784,7.96862745 28.1388235,8.08313725 27.9105882,8.10431373 L27.9105882,8.82980392 C27.9105882,8.92392157 27.9105882,8.96235294 27.7960784,8.96235294 L24.7819608,8.96235294 C24.7819608,8.86588235 24.8956863,8.82980392 24.8956863,8.75215686 L27.3623529,8.75215686 C27.4996078,8.75215686 27.6133333,8.63764706 27.6133333,8.52392157 L27.6133333,3.72862745 L27.6133333,3.57647059 L27.8643137,3.57647059 C27.9788235,3.57647059 28.0015686,3.69098039 28.0015686,3.72941176 L28.0015686,4.64470588 C28.2070588,4.64470588 28.3443137,4.77882353 28.3443137,4.95058824 C28.3443137,5.0854902 28.2070588,5.2172549 28.0015686,5.23843137 L28.0015686,7.56705882 C28.2070588,7.56705882 28.3443137,7.72 28.3443137,7.87294118 L28.2760784,7.81568627 Z M8.65960784,7.03294118 C8.50666667,7.03294118 8.46980392,7.03294118 8.46980392,6.86196078 L8.46980392,6.09647059 C8.69803922,6.09647059 8.81254902,6.19294118 8.83294118,6.57411765 L8.94745098,6.57411765 L8.94745098,5.50588235 L8.83294118,5.50588235 C8.83294118,5.90509804 8.69803922,5.9827451 8.46980392,5.9827451 L8.46980392,5.06509804 C8.46980392,4.95058824 8.46980392,4.91215686 8.64078431,4.91215686 C8.94666667,4.91215686 9.11843137,5.02823529 9.15686275,5.46745098 L9.15686275,4.81647059 L7.83921569,4.81647059 L7.83921569,4.91215686 C7.95372549,4.91215686 8.02901961,4.91215686 8.02901961,5.1427451 L8.02901961,6.68862745 C8.02901961,6.88078431 7.93333333,6.88078431 7.83921569,6.91921569 L7.83921569,7.01490196 L9.19529412,7.01490196 L9.28941176,6.34588235 L9.19529412,6.34588235 C9.04235294,6.84156863 8.81176471,6.91921569 8.58352941,6.91921569 L8.65960784,7.03294118 Z M25.6047059,6.8227451 C25.6964706,6.8227451 25.787451,6.91921569 25.9929412,6.91921569 C26.4266667,6.91921569 26.5639216,6.53803922 26.5639216,6.25019608 C26.5639216,5.90509804 26.3811765,5.71529412 26.3121569,5.67686275 L25.9701961,5.42823529 C25.787451,5.31372549 25.7411765,5.23843137 25.7411765,5.06509804 C25.7411765,4.85490196 25.8784314,4.75921569 25.9921569,4.75921569 C26.2666667,4.75921569 26.3803922,5.12235294 26.4494118,5.35294118 L26.5403922,5.35294118 L26.5403922,4.6454902 L26.4494118,4.6454902 C26.4494118,4.76 26.4494118,4.76 26.334902,4.76 C26.2431373,4.76 26.1521569,4.6454902 25.9694118,4.6454902 C25.534902,4.6454902 25.4439216,5.08627451 25.4439216,5.27607843 C25.4439216,5.41019608 25.4439216,5.69647059 25.854902,5.94509804 L26.014902,6.05960784 C26.1521569,6.15529412 26.2666667,6.23294118 26.2666667,6.44313725 C26.2666667,6.44313725 26.2666667,6.80627451 25.9921569,6.80627451 C25.6956863,6.80627451 25.5584314,6.44313725 25.5129412,6.11686275 L25.4211765,6.11686275 L25.4211765,6.90039216 L25.5129412,6.90039216 C25.5129412,6.90039216 25.5129412,6.80705882 25.627451,6.80705882 L25.6047059,6.8227451 Z M5.17960784,5.06509804 L5.76784314,6.97647059 L5.87294118,6.97647059 L6.4,5.10352941 C6.50509804,4.95058824 6.50509804,4.87529412 6.61019608,4.85490196 L6.61019608,4.75921569 L6.1145098,4.75921569 L6.1145098,4.85490196 C6.24,4.85490196 6.31529412,4.85490196 6.31529412,4.98980392 L6.31529412,5.21803922 L6.00941176,6.26901961 L5.71529412,5.2572549 C5.71529412,5.16078431 5.61019608,5.04705882 5.61019608,4.98980392 C5.61019608,4.87529412 5.71529412,4.87529412 5.80862745,4.85490196 L5.80862745,4.75921569 L5.03058824,4.75921569 L5.03058824,4.85490196 C5.13568627,4.85490196 5.16705882,4.85490196 5.22901961,5.06509804 L5.17960784,5.06509804 Z M14.4682353,6.8227451 C14.3152941,6.8227451 14.2760784,6.8227451 14.2760784,6.5372549 L14.2760784,5.90431373 L14.3717647,5.90431373 L14.8494118,6.91843137 L15.3262745,6.91843137 L15.3262745,6.80392157 C15.3262745,6.80392157 15.2117647,6.80392157 15.2117647,6.70745098 L14.7529412,5.78980392 C14.8878431,5.78980392 15.1160784,5.63686275 15.1160784,5.25568627 C15.1160784,4.70039216 14.6203922,4.68235294 14.4682353,4.68235294 L13.7239216,4.68235294 L13.7239216,4.79686275 C13.8564706,4.79686275 13.9137255,4.79686275 13.9137255,5.08470588 L13.9137255,6.49803922 C13.9137255,6.74666667 13.9137255,6.74666667 13.7239216,6.78352941 L13.7239216,6.88 L14.507451,6.88 L14.4682353,6.8227451 Z M14.2760784,4.98901961 C14.2760784,4.89333333 14.2760784,4.85411765 14.4109804,4.85411765 C14.6,4.85411765 14.6956863,5.00705882 14.6956863,5.31294118 C14.6956863,5.73333333 14.5811765,5.81098039 14.2752941,5.81098039 L14.2752941,4.98901961 L14.2760784,4.98901961 Z M22.5670588,4.85411765 L22.5670588,6.5372549 C22.5670588,6.80470588 22.5670588,6.80470588 22.3380392,6.8227451 L22.3380392,6.9372549 L23.1835294,6.9372549 L23.1835294,6.8227451 C23.0007843,6.8227451 22.9552941,6.8227451 22.9552941,6.5372549 L22.9552941,4.85411765 C23.1145098,4.85411765 23.3435294,4.85411765 23.3890196,5.38901961 L23.5035294,5.38901961 L23.5035294,4.75843137 L22.0188235,4.75843137 L22.0188235,5.38901961 L22.1333333,5.38901961 C22.1333333,4.89333333 22.4078431,4.87529412 22.5670588,4.85411765 Z M23.96,6.8227451 C23.8690196,6.8227451 23.7780392,6.8227451 23.7780392,6.68862745 C23.7780392,6.68862745 23.7780392,6.49882353 23.892549,6.26823529 L24.3945098,6.26823529 C24.3945098,6.36392157 24.5090196,6.61254902 24.5090196,6.70901961 C24.5090196,6.8054902 24.5090196,6.8054902 24.3262745,6.82352941 L24.3262745,6.93803922 L25.08,6.93803922 L25.08,6.82352941 C24.9654902,6.82352941 24.92,6.72784314 24.8290196,6.38509804 L24.3043137,4.70196078 L24.1898039,4.70196078 L23.6870588,6.44235294 C23.572549,6.68862745 23.572549,6.8054902 23.4588235,6.82352941 L23.4588235,6.93803922 L23.9160784,6.93803922 L23.96,6.8227451 Z M24.1435294,5.37098039 L24.3717647,6.1545098 L23.9145098,6.1545098 L24.1435294,5.37098039 Z M16.5505882,4.83686275 C16.665098,4.83686275 16.7607843,4.83686275 16.7607843,5.06509804 L16.7607843,6.59529412 C16.7607843,6.8054902 16.6643137,6.8054902 16.5505882,6.82352941 L16.5505882,6.93803922 L17.3615686,6.93803922 L17.3615686,6.82352941 C17.2470588,6.82352941 17.1333333,6.82352941 17.1333333,6.59529412 L17.1333333,5.06509804 C17.1333333,4.85490196 17.2478431,4.85490196 17.3615686,4.83686275 L17.3615686,4.74039216 L16.5505882,4.74039216 L16.5505882,4.83686275 Z" id="Shape"></path>
                    </g>
                </g>
            </g>
        </g>
    </g>
</svg>