<?xml version="1.0" encoding="UTF-8"?>
<svg width="124px" height="23px" viewBox="0 0 124 23" version="1.1" xmlns="http://www.w3.org/2000/svg" xmlns:xlink="http://www.w3.org/1999/xlink">
    <!-- Generator: Sketch 52.5 (67469) - http://www.bohemiancoding.com/sketch -->
    <title>haymarket_grey copy</title>
    <desc>Created with Sketch.</desc>
    <g id="Page-1" stroke="none" stroke-width="1" fill="none" fill-rule="evenodd">
        <g id="HomePage-Final" transform="translate(-380.000000, -2503.000000)" fill="#201F1F" fill-rule="nonzero">
            <g id="Client-Logos" transform="translate(320.000000, 1962.000000)">
                <g id="Logos" transform="translate(45.000000, 140.000000)">
                    <g id="haymarket_grey-copy" transform="translate(0.000000, 395.000000)">
                        <g id="Group" transform="translate(15.134857, 6.800000)">
                            <g id="Shape">
                                <path d="M3.62925714,17.0330286 L0.296285714,17.0330286 L0.296285714,0.132114286 L3.62925714,0.132114286 L3.62925714,5.43708571 C3.98188571,5.19714286 4.38794286,5.02034286 4.84742857,4.90862857 C5.32828571,4.77942857 5.84702857,4.71531429 6.40365714,4.71531429 C6.99622857,4.71531429 7.55091429,4.77165714 8.06674286,4.88531429 C8.58257143,4.98148571 9.03622857,5.17382857 9.42674286,5.46234286 C9.81531429,5.75182857 10.1203429,6.14428571 10.3428,6.64068571 C10.5827429,7.13902857 10.7032,7.78114286 10.7032,8.56605714 L10.7032,16.9825143 L7.37022857,16.9825143 L7.37022857,8.56605714 C7.37022857,8.14834286 7.30611429,7.80251429 7.17594286,7.52954286 C7.04674286,7.24005714 6.87965714,7.01565714 6.67662857,6.85537143 C6.4736,6.67857143 6.23268571,6.55811429 5.95582857,6.494 C5.69645714,6.43085714 5.42737143,6.39782857 5.1476,6.39782857 C4.79594286,6.39782857 4.49091429,6.4464 4.23251429,6.54257143 C3.97314286,6.63874286 3.77011429,6.75142857 3.62148571,6.88062857 L3.62925714,17.0330286 Z"></path>
                                <path d="M20.5301714,11.2433143 L19.0021143,11.2433143 C18.7612,11.2433143 18.5125143,11.2753714 18.2541143,11.3394857 C18.0132,11.4026286 17.7917143,11.5230857 17.5867429,11.7008571 C17.4021714,11.8621143 17.2448,12.0855429 17.1146286,12.3740571 C16.9844571,12.6470286 16.9203429,12.9918857 16.9203429,13.4105714 C16.9203429,13.8302286 16.9844571,14.1828571 17.1146286,14.4742857 C17.2448,14.7472571 17.4012,14.9726286 17.5867429,15.1484571 C17.7907429,15.3087429 18.0122286,15.4214286 18.2541143,15.4855429 C18.5134857,15.5496571 18.7621714,15.5817143 19.0021143,15.5817143 C19.3537714,15.5817143 19.6588,15.5331429 19.9172,15.4369714 C20.1765714,15.3398286 20.3796,15.2281143 20.5282286,15.0998857 L20.5301714,11.2433143 Z M17.8917714,17.2700571 C17.2992,17.2700571 16.7445143,17.2127429 16.2286857,17.1000571 C15.7128571,17.0038857 15.2592,16.8115429 14.8686857,16.5220571 C14.4791429,16.2335429 14.1653714,15.8391429 13.9254286,15.3437143 C13.7029714,14.8453714 13.5922286,14.2032571 13.5922286,13.4183429 C13.5922286,12.6324571 13.7029714,11.9903429 13.9254286,11.492 C14.1663429,10.9946286 14.4898286,10.6012 14.8949143,10.3146286 C15.3019429,10.0251429 15.7828,9.83182857 16.3355429,9.73565714 C16.8921714,9.62297143 17.5032,9.56565714 18.1676571,9.56565714 C18.5941143,9.56565714 18.9992,9.59091429 19.3868,9.63948571 C19.7938286,9.68611429 20.1736571,9.74342857 20.5243429,9.80851429 L20.5243429,8.84485714 C20.5243429,7.87925714 20.2659429,7.23714286 19.7501143,6.91851429 C19.2333143,6.59697143 18.5193143,6.43571429 17.6081143,6.43571429 L14.8337143,6.43571429 L14.8337143,5.23114286 C15.2601714,5.10291429 15.7789143,4.9912 16.3899429,4.89502857 C17.0174857,4.79885714 17.6110286,4.74931429 18.1676571,4.74931429 C19.1109143,4.74931429 19.9337143,4.80662857 20.6389714,4.91834286 C21.3442286,5.032 21.9358286,5.24085714 22.4166857,5.54588571 C22.8975429,5.83342857 23.2589143,6.25308571 23.5008,6.79902857 C23.7417143,7.32748571 23.8621714,8.01137143 23.8621714,8.84582857 L23.8621714,17.0602286 L21.4977143,17.0602286 L21.08,16.3394286 L20.9410857,16.3394286 C20.6448,16.5803429 20.2562286,16.8047429 19.7763429,17.0136 C19.2954857,17.2059429 18.6669714,17.3021143 17.8908,17.3021143 L17.8908,17.2700571 L17.8917714,17.2700571 Z"></path>
                                <path d="M34.5362286,16.5618857 C33.8309714,17.0427429 32.9061714,17.2836571 31.7618286,17.2836571 C31.1692571,17.2836571 30.6145714,17.2263429 30.0987429,17.1136571 C29.5829143,17.0174857 29.1292571,16.8251429 28.7387429,16.5356571 C28.3501714,16.2471429 28.0354286,15.8537143 27.7964571,15.3573143 C27.574,14.8589714 27.4622857,14.2178286 27.4622857,13.4319429 L27.4622857,5.01451429 L30.7952571,5.01451429 L30.7952571,13.4319429 C30.7952571,13.8496571 30.8603429,14.2042286 30.9905143,14.4956571 C31.1206857,14.7686286 31.2868,14.994 31.4898286,15.1698286 C31.6938286,15.3301143 31.9250286,15.4418286 32.1834286,15.5059429 C32.4612571,15.5690857 32.7390857,15.6021143 33.0178857,15.6021143 C33.3695429,15.6021143 33.6755429,15.5545143 33.9329714,15.4573714 C34.1923429,15.3602286 34.3963429,15.2485143 34.544,15.1193143 L34.544,5.02034286 L37.8769714,5.02034286 L37.8769714,16.1305714 C37.8769714,18.2978286 37.3854286,19.8404571 36.4023429,20.7555429 C35.4192571,21.6900571 33.9203429,22.1563429 31.9046286,22.1563429 C31.1993714,22.1563429 30.5242286,22.1077714 29.8782286,22.0116 C29.2497143,21.9154286 28.7222286,21.8037143 28.2957714,21.6745143 L28.2957714,20.4699429 L31.3528571,20.4699429 C32.3893714,20.4699429 33.1772,20.1882286 33.7163429,19.6277143 C34.2729714,19.0652571 34.5508,18.0608 34.5508,16.6114286 L34.5362286,16.5618857 Z"></path>
                                <path d="M51.8412571,17.0330286 L48.5082857,17.0330286 L48.5082857,8.61657143 C48.5082857,8.19885714 48.4441714,7.85302857 48.3130286,7.57811429 C48.2022857,7.2896 48.0458857,7.0652 47.8418857,6.90588571 C47.6573143,6.72811429 47.4436,6.60862857 47.2026857,6.54451429 C46.9802286,6.47942857 46.7674857,6.44834286 46.5625143,6.44834286 C46.2108571,6.44834286 45.9058286,6.49594286 45.6474286,6.59211429 C45.3880571,6.68925714 45.1850286,6.80097143 45.0364,6.93017143 L45.0364,17.0291429 L41.7034286,17.0291429 L41.7034286,4.97662857 L44.0669143,4.97662857 L44.4836571,5.69742857 L44.6225714,5.69742857 C44.9178857,5.45554286 45.3161714,5.23891429 45.8145143,5.04657143 C46.3128571,4.83771429 46.9792571,4.7328 47.8137143,4.7328 C48.5189714,4.7328 49.1115429,4.82217143 49.5924,4.99897143 C50.0907429,5.15925714 50.5172,5.39337143 50.8708,5.69937143 C51.2962857,5.39434286 51.7985143,5.1612 52.3726286,4.99897143 C52.9467429,4.82217143 53.6490857,4.7328 54.4796571,4.7328 C55.0362857,4.7328 55.5637714,4.79011429 56.0621143,4.9028 C56.5604571,4.99897143 57.0053714,5.19228571 57.3958857,5.4808 C57.7844571,5.76931429 58.0894857,6.16371429 58.3119429,6.65914286 C58.5344,7.15845714 58.6451429,7.7996 58.6451429,8.58451429 L58.6451429,17.0019429 L55.3131429,17.0019429 L55.3131429,8.58451429 C55.3131429,8.16777143 55.2480571,7.82194286 55.1188571,7.548 C54.9896571,7.25948571 54.8225714,7.03508571 54.6185714,6.8748 C54.434,6.69702857 54.2115429,6.57754286 53.9521714,6.51245714 C53.7112571,6.44931429 53.4713143,6.41628571 53.2323429,6.41628571 C52.8806857,6.41628571 52.5649714,6.45708571 52.2890857,6.53674286 C52.0112571,6.60085714 51.7703429,6.68148571 51.5682857,6.77862857 C51.6421143,6.95542857 51.7072,7.21285714 51.7625714,7.55382857 C51.8179429,7.8744 51.8461143,8.22022857 51.8461143,8.58937143 L51.8412571,17.0330286 Z"></path>
                                <path d="M68.0029143,11.2433143 L66.4738857,11.2433143 C66.232,11.2433143 65.9833143,11.2753714 65.7258857,11.3394857 C65.4849714,11.4026286 65.2625143,11.5230857 65.0585143,11.7008571 C64.8749143,11.8621143 64.7156,12.0855429 64.5864,12.3740571 C64.4562286,12.6470286 64.3911429,12.9918857 64.3911429,13.4105714 C64.3911429,13.8302286 64.4562286,14.1828571 64.5864,14.4742857 C64.7156,14.7472571 64.8739429,14.9726286 65.0585143,15.1484571 C65.2625143,15.3087429 65.484,15.4214286 65.7258857,15.4855429 C65.9852571,15.5496571 66.2339429,15.5817143 66.4738857,15.5817143 C66.8255429,15.5817143 67.1315429,15.5331429 67.3899429,15.4369714 C67.6483429,15.3398286 67.8523429,15.2281143 68,15.0998857 L68.0029143,11.2433143 Z M65.3625714,17.2700571 C64.7690286,17.2700571 64.2143429,17.2127429 63.6985143,17.1000571 C63.1826857,17.0038857 62.7290286,16.8115429 62.3394857,16.5220571 C61.9499429,16.2335429 61.6361714,15.8391429 61.3962286,15.3437143 C61.1737714,14.8453714 61.0620571,14.2032571 61.0620571,13.4183429 C61.0620571,12.6324571 61.1737714,11.9903429 61.3962286,11.492 C61.6371429,10.9946286 61.9606286,10.6012 62.3657143,10.3146286 C62.7727429,10.0251429 63.2536,9.83182857 63.8073143,9.73565714 C64.3639429,9.62297143 64.974,9.56565714 65.6384571,9.56565714 C66.0639429,9.56565714 66.47,9.59091429 66.8566286,9.63948571 C67.2636571,9.68611429 67.6434857,9.74342857 67.9941714,9.80851429 L67.9941714,8.84485714 C67.9941714,7.87925714 67.7357714,7.23714286 67.2199429,6.91851429 C66.7041143,6.59988571 65.9901143,6.43862857 65.0789143,6.43571429 L62.3045143,6.43571429 L62.3045143,5.23114286 C62.7309714,5.10291429 63.2497143,4.9912 63.8607429,4.89502857 C64.4882857,4.79885714 65.0818286,4.74931429 65.6384571,4.74931429 C66.5807429,4.74931429 67.4045143,4.80662857 68.1097714,4.91834286 C68.8140571,5.032 69.4066286,5.24085714 69.8865143,5.54588571 C70.3673714,5.83342857 70.7287429,6.25308571 70.9706286,6.79902857 C71.2115429,7.32748571 71.332,8.01137143 71.332,8.84582857 L71.332,17.0602286 L68.9685143,17.0602286 L68.5508,16.3394286 L68.4118857,16.3394286 C68.1156,16.5803429 67.7270286,16.8047429 67.2471429,17.0136 C66.7662857,17.2059429 66.1377714,17.3021143 65.3625714,17.3021143 L65.3625714,17.2700571 Z"></path>
                                <path d="M83.4894286,4.98148571 L83.4894286,7.02634286 L80.4333143,7.02634286 C80.0816571,7.02634286 79.7756571,7.07491429 79.5162857,7.17205714 C79.2578857,7.2692 79.0548571,7.37994286 78.9062286,7.50914286 L78.9062286,17.0029143 L75.5732571,17.0029143 L75.5732571,4.9504 L77.9367429,4.9504 L78.3534857,5.91308571 L78.4914286,5.91308571 C78.7877143,5.67217143 79.1850286,5.45457143 79.6843429,5.26222857 C80.1826857,5.05337143 80.8490857,4.94845714 81.6835429,4.94845714 L83.4894286,4.98148571 Z"></path>
                                <polygon points="88.8750286 17.0330286 85.5420571 17.0330286 85.5420571 0.132114286 88.8750286 0.132114286 88.8750286 10.1640571 92.2089714 4.98148571 95.8188 4.98148571 92.0681143 10.6429714 96.0946857 17.0330286 92.4868 17.0330286 88.876 11.1277143 88.876 17.0330286"></polygon>
                                <path d="M107.730457,11.8485143 L100.525371,11.8485143 C100.525371,13.2308571 100.804171,14.2032571 101.3608,14.7637714 C101.934914,15.3106857 102.815029,15.5856 104.000171,15.5856 L107.057257,15.5856 L107.057257,16.7911429 C106.631771,16.9193714 106.094571,17.0310857 105.4476,17.1272571 C104.819086,17.2253714 104.152686,17.2729714 103.447429,17.2729714 C102.374971,17.2729714 101.438514,17.1602857 100.64,16.9349143 C99.8638286,16.7105143 99.2149143,16.3501143 98.6942286,15.8517714 C98.1958857,15.3524571 97.8160571,14.7103429 97.5566857,13.9254286 C97.3157714,13.1220571 97.1953143,12.1496571 97.1953143,11.0092 C97.1953143,9.86874286 97.3167429,8.90411429 97.5566857,8.11531429 C97.7976,7.31097143 98.1405143,6.65914286 98.5873714,6.16274286 C99.0322857,5.6644 99.5792,5.30302857 100.223257,5.07862857 C100.886743,4.85325714 101.636686,4.74057143 102.471143,4.74057143 C103.306571,4.74057143 104.047771,4.85325714 104.693771,5.07862857 C105.3592,5.304 105.912914,5.66537143 106.356857,6.16274286 C106.801771,6.66011429 107.144686,7.31 107.387543,8.11531429 C107.627486,8.90022857 107.747943,9.86582857 107.747943,11.0092 L107.730457,11.8485143 Z M104.396514,10.1582286 C104.396514,9.37234286 104.341143,8.73022857 104.229429,8.23285714 C104.137143,7.73451429 104.007943,7.34205714 103.841829,7.05451429 C103.674743,6.76502857 103.471714,6.57268571 103.231771,6.47651429 C102.990857,6.36382857 102.732457,6.30845714 102.457543,6.30845714 C102.179714,6.30845714 101.921314,6.3648 101.683314,6.47651429 C101.443371,6.57365714 101.2384,6.76502857 101.073257,7.05451429 C100.907143,7.344 100.767257,7.73645714 100.656514,8.23285714 C100.563257,8.7312 100.516629,9.37234286 100.516629,10.1582286 L104.396514,10.1582286 Z"></path>
                                <path d="M114.463429,7.00011429 L114.463429,13.1482857 C114.463429,13.6291429 114.519771,14.0293714 114.630514,14.3528571 C114.741257,14.6578857 114.880171,14.8988 115.047257,15.0736571 C115.231829,15.2504571 115.427086,15.3796571 115.631086,15.4593143 C115.852571,15.5244 116.066286,15.5554857 116.270286,15.5554857 L118.7688,15.5554857 L118.7688,16.7610286 C118.601714,16.8251429 118.379257,16.8902286 118.101429,16.9543429 C117.842057,17.0019429 117.555486,17.0505143 117.239771,17.0990857 C116.943486,17.1466857 116.637486,17.1787429 116.324686,17.1952571 C116.009943,17.2263429 115.713657,17.2428571 115.435829,17.2428571 C114.843257,17.2428571 114.2876,17.1865143 113.771771,17.0738286 C113.255943,16.9621143 112.802286,16.7610286 112.411771,16.4715429 C112.0232,16.1665143 111.708457,15.7488 111.469486,15.2193714 C111.247029,14.6899429 111.136286,13.9982857 111.136286,13.1453714 L111.136286,6.9972 L109.608229,6.9972 L109.608229,5.18645714 L111.136286,5.18645714 L111.136286,2.2916 L114.469257,2.2916 L114.469257,5.18645714 L118.219943,5.18645714 L118.219943,6.51342857 C117.794457,6.64165714 117.258229,6.75434286 116.611257,6.85051429 C115.981771,6.94668571 115.316343,6.99525714 114.610114,6.99525714 L114.463429,7.00011429 Z"></path>
                                <path d="M121.1964,6.93308571 L120.53,6.93308571 L120.53,4.77748571 C120.634914,4.74931429 120.7544,4.726 120.887486,4.70462857 C121.020571,4.68422857 121.194457,4.67354286 121.408171,4.67257143 C121.775371,4.67257143 122.048343,4.73085714 122.2232,4.84645714 C122.404857,4.95914286 122.496171,5.14662857 122.496171,5.40988571 C122.496171,5.5216 122.479657,5.61582857 122.446629,5.69354286 C122.419429,5.76834286 122.382514,5.82857143 122.337829,5.87714286 C122.294114,5.92571429 122.245543,5.96554286 122.193086,5.99274286 C122.140629,6.01994286 122.091086,6.04617143 122.041543,6.06657143 L122.5564,6.93502857 L121.8628,6.93502857 L121.438286,6.1744 L121.195429,6.1744 L121.195429,6.93308571 L121.1964,6.93308571 Z M121.409143,5.80137143 C121.530571,5.80137143 121.6316,5.77417143 121.712229,5.71782857 C121.792857,5.6576 121.833657,5.55462857 121.833657,5.40794286 C121.833657,5.27388571 121.792857,5.18062857 121.712229,5.12331429 C121.6316,5.06697143 121.530571,5.03977143 121.409143,5.03977143 L121.197371,5.03977143 L121.197371,5.8004 L121.409143,5.80137143 Z M123.132457,5.82857143 C123.132457,5.57988571 123.091657,5.35742857 123.011029,5.16022857 C122.9304,4.96302857 122.816743,4.79885714 122.671029,4.66674286 C122.525314,4.5288 122.349486,4.42582857 122.143543,4.35588571 C121.941486,4.28497143 121.715143,4.25097143 121.463543,4.25097143 C121.212914,4.25097143 120.983657,4.28497143 120.775771,4.35588571 C120.573714,4.42582857 120.399829,4.5288 120.254114,4.66674286 C120.109371,4.79885714 119.995714,4.964 119.915086,5.16022857 C119.834457,5.35645714 119.793657,5.57794286 119.793657,5.82857143 C119.793657,6.07725714 119.834457,6.29971429 119.915086,6.49594286 C119.995714,6.69314286 120.109371,6.85925714 120.254114,6.99525714 C120.399829,7.12931429 120.573714,7.23131429 120.775771,7.30125714 C120.981714,7.37022857 121.210971,7.40617143 121.463543,7.40617143 C121.714171,7.40617143 121.940514,7.37022857 122.143543,7.30125714 C122.349486,7.23131429 122.525314,7.12931429 122.671029,6.99525714 C122.815771,6.85925714 122.929429,6.69217143 123.011029,6.49594286 C123.091657,6.29971429 123.132457,6.07725714 123.132457,5.82857143 Z M123.738629,5.82857143 C123.738629,6.12 123.684229,6.38325714 123.575429,6.6232 C123.466629,6.86217143 123.313143,7.06714286 123.115943,7.23811429 C122.9168,7.40714286 122.676857,7.53828571 122.394171,7.63348571 C122.116343,7.72868571 121.807429,7.77531429 121.465486,7.77531429 C121.125486,7.77531429 120.813657,7.72771429 120.53,7.63348571 C120.2512,7.53828571 120.0132,7.40811429 119.816,7.23811429 C119.616857,7.06617143 119.464343,6.8612 119.354571,6.6232 C119.2448,6.3852 119.191371,6.12 119.191371,5.82857143 C119.191371,5.542 119.245771,5.27874286 119.354571,5.03977143 C119.463371,4.79788571 119.616857,4.59291429 119.816,4.42582857 C120.014171,4.25291429 120.252171,4.1208 120.53,4.02462857 C120.812686,3.93137143 121.124514,3.8828 121.465486,3.8828 C121.804514,3.8828 122.1144,3.9304 122.394171,4.02462857 C122.677829,4.1208 122.918743,4.25291429 123.115943,4.42582857 C123.313143,4.59291429 123.466629,4.79788571 123.575429,5.03977143 C123.684229,5.27874286 123.738629,5.54102857 123.738629,5.82857143 Z"></path>
                            </g>
                        </g>
                    </g>
                </g>
            </g>
        </g>
    </g>
</svg>