<?xml version="1.0" encoding="UTF-8"?>
<svg width="79px" height="26px" viewBox="0 0 79 26" version="1.1" xmlns="http://www.w3.org/2000/svg" xmlns:xlink="http://www.w3.org/1999/xlink">
    <!-- Generator: Sketch 52.5 (67469) - http://www.bohemiancoding.com/sketch -->
    <title>IMG_grey</title>
    <desc>Created with Sketch.</desc>
    <g id="Page-1" stroke="none" stroke-width="1" fill="none" fill-rule="evenodd">
        <g id="HomePage-Final" transform="translate(-914.000000, -2173.000000)" fill="#201F1F">
            <g id="Client-Logos" transform="translate(320.000000, 1962.000000)">
                <g id="Logos" transform="translate(45.000000, 140.000000)">
                    <g id="IMG_grey" transform="translate(549.000000, 71.000000)">
                        <g id="Group">
                            <path d="M18.67645,0.247 C19.1178,-0.559590909 19.91795,0.996272727 20.05965,1.20545455 C24.32755,7.47322727 28.5519,13.7569545 32.77495,20.0111364 C33.1123,20.5104545 33.6089,21.0375455 33.631,21.3885455 C33.67585,22.0917273 32.86855,23.1004091 32.5767,23.6647273 C32.25235,24.2910909 31.65955,25.7004091 31.25915,25.7004091 C30.88345,25.7004091 30.4616,24.6545 30.2705,24.2627273 C26.8294,17.2049091 23.465,10.4638182 20.05965,3.48104545 C19.54225,2.41918182 18.941,1.38154545 18.67645,0.247 Z" id="Shape"></path>
                            <path d="M25.66005,0.00709090909 C28.3972,3.44677273 31.3365,7.53940909 34.1588,11.3862273 C34.5826,11.9641364 35.02915,12.5692273 35.542,13.3031364 C35.867,13.7675909 36.83615,14.8111364 36.85955,15.2797273 C36.8914,15.9202727 36.0451,16.9425455 35.7396,17.4956364 C35.31125,18.2709091 35.11105,19.0237273 34.554,19.5915909 C33.98655,18.8884091 33.6167,18.0581818 33.23645,17.2557273 C30.9374,12.4061364 28.5155,7.53113636 26.1872,2.64254545 C25.80695,1.84422727 25.28955,1.0205 25.26485,0.127045455 C25.40265,0.0927727273 25.4527,-0.0212727273 25.66005,0.00709090909 Z" id="Shape"></path>
                            <path d="M37.7156,13.4827727 C36.98435,12.5036364 36.6496,11.3312727 36.13415,10.1884545 C34.9154,7.48563636 33.65635,4.84959091 32.3791,1.924 C32.1074,1.3 31.64135,0.525909091 31.8526,0.127045455 C31.8851,0.0845 31.99625,-0.0295454545 32.11585,0.00709090909 C32.747,0.2015 33.6089,1.46190909 34.2238,2.16331818 C35.5264,3.64945455 36.8654,5.22777273 38.1771,6.71509091 C38.72765,7.33968182 39.9633,8.46181818 40.0218,9.05095455 C40.0894,9.73227273 39.30615,10.7368182 38.9675,11.3868182 C38.5515,12.1845455 38.22715,12.8942273 37.7156,13.4827727 Z" id="Shape"></path>
                            <path d="M42.52495,0.606272727 C43.4707,0.4225 43.3953,2.07645455 43.51295,3.0615 C44.12265,8.16222727 44.694,12.6738182 45.292,17.7349545 C45.53185,19.7682727 45.47595,23.4017727 47.0704,24.2030455 C47.2758,24.3064545 47.87185,24.4264091 48.65185,24.5026364 C49.1868,24.5546364 50.0864,24.5889091 50.167,24.8613182 C50.46665,25.8735455 46.42235,25.4977273 45.4896,25.4605 C44.7642,25.4315455 43.91855,25.4262273 42.92015,25.4605 C42.18045,25.4859091 40.7524,25.6129545 40.8122,24.9215909 C40.87005,24.2538636 41.912,24.7567273 42.32735,24.2627273 C42.56655,23.9790909 42.35205,22.6483636 42.26105,21.7472273 C41.72545,16.4036364 41.2334,11.8589545 40.68025,6.59513636 C40.5847,5.68395455 40.3741,4.68531818 40.482,4.01995455 C40.56,3.54368182 41.95685,0.716181818 42.52495,0.606272727 Z" id="Shape"></path>
                            <path d="M76.3867,1.68409091 C76.5063,2.51845455 76.2684,3.5555 76.2554,4.7385 C76.24565,5.53977273 76.4205,7.42181818 75.6626,7.43363636 C74.90275,7.44604545 75.09255,6.27427273 74.87155,5.63668182 C73.87055,2.743 68.50805,1.88913636 64.39745,2.34295455 C58.6742,2.97463636 54.96595,7.27054545 55.8987,13.8420455 C56.60265,18.798 60.0912,22.5615 64.9246,23.7238182 C65.9113,23.9613636 68.0485,24.1415909 69.2068,24.0830909 C70.3703,24.024 72.3151,23.868 72.69795,23.0649545 C73.086,22.2518636 72.76425,19.7316364 72.76425,18.6928182 C72.76425,17.4637273 72.9703,15.2667273 72.4347,14.6202727 C72.2332,14.3768182 71.63325,14.2137273 71.0515,14.1410455 C70.5367,14.0766364 69.7216,14.1286364 69.73395,13.6021364 C69.75475,12.7004091 73.4643,13.2351818 74.2794,13.2428636 C75.04835,13.2499545 78.73905,12.7080909 78.75985,13.6021364 C78.7761,14.3283636 77.25705,14.0683636 76.8495,14.3206818 C75.9161,14.8974091 76.2567,17.6569545 76.2567,19.0520909 C76.2567,20.2794091 76.6285,23.2351364 76.0591,24.1427727 C75.58525,24.8967727 73.6957,25.3009545 72.63295,25.5201818 C71.1893,25.8174091 69.66895,25.9929091 68.2188,25.9994091 C59.04665,26.0384091 52.9828,21.9865455 52.27625,14.3809545 C51.89145,10.2410455 53.42545,6.92190909 55.7024,4.55886364 C57.9384,2.23718182 61.34505,0.802454545 65.9139,0.606272727 C69.0768,0.470363636 71.3492,0.914136364 73.9505,1.26513636 C74.70645,1.36736364 75.5547,1.32954545 76.3867,1.68409091 Z" id="Shape"></path>
                            <path d="M0.55965,1.74436364 C0.46605,1.24504545 0.7306,1.07131818 1.15245,1.02522727 C2.29775,0.899954545 3.34685,1.14104545 4.84185,1.14518182 C6.2543,1.14872727 9.3171,0.6175 9.12405,1.62440909 C9.0168,2.18222727 7.5244,1.989 7.1474,2.28327273 C6.37845,2.88422727 6.62025,6.30263636 6.62025,7.61386364 C6.62025,11.6450455 6.5039,15.2478182 6.6859,19.1732273 C6.7561,20.6877273 6.4051,23.7563182 7.41065,24.3235909 C7.8975,24.5983636 9.98595,24.3206364 10.04575,24.9824545 C10.1283,25.9019091 6.22765,25.4616818 5.30205,25.4616818 C4.48175,25.4616818 3.5815,25.4959545 2.66695,25.5219545 C1.95,25.5420455 0.46735,25.6702727 0.62465,24.9227727 C0.7267,24.4370455 1.8967,24.6875909 2.40305,24.3838636 C3.30785,23.8414091 3.1278,20.6404545 3.1278,19.2329091 C3.1278,15.3648182 3.1278,11.5948182 3.1278,7.67413636 C3.1278,6.25004545 3.4905,3.07095455 2.66695,2.34413636 C2.1008,1.84245455 1.17845,2.23718182 0.55965,1.74436364 Z" id="Shape"></path>
                            <path d="M19.2036,8.69109091 C19.54875,8.90854545 19.929,9.47995455 20.32355,10.0685 C20.6557,10.5642727 21.1198,11.1368636 21.1796,11.4459091 C21.32715,12.2040455 20.93195,13.7888636 20.85005,14.6202727 C20.6206,16.9567273 20.4763,18.6278182 20.25725,21.0286818 C20.1812,21.8636364 19.8991,23.6422727 20.32355,24.1433636 C20.66285,24.5445909 22.5732,24.3968636 22.6291,24.9818636 C22.7149,25.8824091 19.60205,25.4610909 18.6758,25.4610909 C17.7372,25.4610909 14.67245,25.8581818 14.6575,25.0421364 C14.6445,24.3448636 15.76445,24.7336818 16.5022,24.4429545 C17.4434,24.0724545 17.4694,22.2589545 17.62215,20.969 C18.11615,16.7871364 18.6056,12.8150455 19.07165,8.87131818 C19.09505,8.79213636 19.188,8.77677273 19.2036,8.69109091 Z" id="Shape"></path>
                        </g>
                    </g>
                </g>
            </g>
        </g>
    </g>
</svg>