<?xml version="1.0" encoding="UTF-8"?>
<svg width="97px" height="32px" viewBox="0 0 97 32" version="1.1" xmlns="http://www.w3.org/2000/svg" xmlns:xlink="http://www.w3.org/1999/xlink">
    <!-- Generator: Sketch 52.5 (67469) - http://www.bohemiancoding.com/sketch -->
    <title>Lafarge_grey</title>
    <desc>Created with Sketch.</desc>
    <g id="Page-1" stroke="none" stroke-width="1" fill="none" fill-rule="evenodd">
        <g id="HomePage-Final" transform="translate(-649.000000, -2339.000000)" fill="#201F1F">
            <g id="Client-Logos" transform="translate(320.000000, 1962.000000)">
                <g id="Logos" transform="translate(45.000000, 140.000000)">
                    <g id="Lafarge_grey" transform="translate(284.000000, 237.000000)">
                        <g id="Group">
                            <path d="M30.4033333,12.0606667 L26.9786667,20.2146667 L26.9786667,17.92 L22.2773333,17.92 L22.2773333,12.0606667 L18.4593333,12.0606667 L18.4593333,20.3713333 L26.9133333,20.3713333 L26.9793333,20.3713333 L30.7313333,20.3713333 L31.4006667,18.5906667 L34.3926667,18.5906667 L35.0766667,20.3713333 L39.094,20.3713333 L35.5466667,12.0606667 L30.4033333,12.0606667 Z M31.8386667,16.6426667 L32.8606667,14.0453333 L32.9166667,14.0453333 L33.9533333,16.6426667 L31.8386667,16.6426667 Z" id="Shape"></path>
                            <polygon id="Shape" points="44.5813333 14.0646667 49.2966667 14.0646667 49.2966667 12.0606667 40.7633333 12.0606667 40.7633333 20.3713333 44.5813333 20.3713333 44.5813333 17.4033333 49.154 17.4033333 49.154 15.4 44.5813333 15.4"></polygon>
                            <path d="M52.6833333,12.0606667 L49.1933333,20.3713333 L53.0113333,20.3713333 L53.6806667,18.5906667 L56.6726667,18.5906667 L57.3566667,20.3713333 L61.374,20.3713333 L57.8266667,12.0606667 L52.6833333,12.0606667 Z M54.118,16.6426667 L55.14,14.0453333 L55.1966667,14.0453333 L56.2326667,16.6426667 L54.118,16.6426667 Z" id="Shape"></path>
                            <path d="M71.7093333,16.822 C71.4046667,16.632 71.0346667,16.4986667 70.598,16.422 C71.2813333,16.3273333 71.8326667,16.104 72.2506667,15.752 C72.7066667,15.3633333 72.934,14.874 72.934,14.284 C72.934,13.3626667 72.44,12.73 71.452,12.3873333 C70.844,12.1693333 69.9986667,12.06 68.9166667,12.06 L62.9473333,12.06 L62.9473333,20.3706667 L66.7653333,20.3706667 L66.7653333,17.4766667 L67.6193333,17.4766667 C67.9046667,17.4766667 68.1473333,17.5246667 68.3466667,17.6193333 C68.6313333,17.752 68.802,17.98 68.8586667,18.3033333 L69.2293333,20.3706667 L73.2186667,20.3706667 L72.5633333,17.962 C72.4306667,17.4773333 72.146,17.0973333 71.7093333,16.822 Z M68.1713333,15.668 C68.0386667,15.6866667 67.8253333,15.696 67.532,15.696 L66.5946667,15.696 L66.5946667,13.916 L67.5886667,13.916 C68.1,13.916 68.476,13.9893333 68.7173333,14.136 C68.9586667,14.284 69.0793333,14.5 69.0793333,14.7853333 C69.08,15.26 68.7773333,15.554 68.1713333,15.668 Z" id="Shape"></path>
                            <path d="M80.892,17.2513333 L81.612,17.2513333 L81.612,18.3886667 C81.4886667,18.408 81.3813333,18.4246667 81.2913333,18.4386667 C81.2013333,18.4533333 81.0806667,18.4606667 80.928,18.4606667 C80.3106667,18.4606667 79.8026667,18.3086667 79.4033333,18.0053333 C78.9386667,17.6446667 78.706,17.1273333 78.706,16.4533333 C78.706,15.664 78.9906667,15.0573333 79.5606667,14.63 C80.13,14.2026667 80.9,13.99 81.8686667,13.99 C82.438,13.99 82.9986667,14.056 83.5493333,14.188 C83.9106667,14.2733333 84.2293333,14.368 84.5046667,14.472 L84.5046667,12.2433333 C83.84,12.1193333 83.2393333,12.0373333 82.7026667,11.994 C82.1653333,11.9526667 81.6266667,11.9306667 81.0853333,11.9306667 C79.252,11.9306667 77.794,12.2486667 76.7106667,12.884 C75.9133333,13.3493333 75.3533333,13.976 75.03,14.7633333 C74.84,15.2186667 74.7453333,15.6893333 74.7453333,16.1726667 C74.7453333,17.3106667 75.1246667,18.256 75.8846667,19.0053333 C76.91,20.002 78.5386667,20.5 80.7713333,20.5 C81.5973333,20.5 82.3546667,20.462 83.0426667,20.3853333 C83.7313333,20.3106667 84.3513333,20.2053333 84.9026667,20.0733333 L84.9026667,15.7 L80.8913333,15.7 L80.8913333,17.2513333 L80.892,17.2513333 Z" id="Shape"></path>
                            <polygon id="Shape" points="91.2373333 18.424 91.2373333 17.1253333 95.9106667 17.1253333 95.9106667 15.2333333 91.2373333 15.2333333 91.2373333 14.0266667 96.1246667 14.0266667 96.1246667 12.0606667 87.42 12.0606667 87.42 20.3713333 96.224 20.3713333 96.224 18.424"></polygon>
                            <polygon id="Shape" points="17.592 22.128 17.592 11.1146667 22.44 11.1146667 27.332 0 14.0846667 0 0 32 20.986 32 23.214 26.94 15.4746667 26.94"></polygon>
                        </g>
                    </g>
                </g>
            </g>
        </g>
    </g>
</svg>