<?xml version="1.0" encoding="UTF-8"?>
<svg width="129px" height="28px" viewBox="0 0 129 28" version="1.1" xmlns="http://www.w3.org/2000/svg" xmlns:xlink="http://www.w3.org/1999/xlink">
    <!-- Generator: Sketch 52.5 (67469) - http://www.bohemiancoding.com/sketch -->
    <title>microsoft_grey</title>
    <desc>Created with Sketch.</desc>
    <g id="Page-1" stroke="none" stroke-width="1" fill="none" fill-rule="evenodd">
        <g id="HomePage-Final" transform="translate(-1401.000000, -2341.000000)" fill="#201F1F" fill-rule="nonzero">
            <g id="Client-Logos" transform="translate(320.000000, 1962.000000)">
                <g id="Logos" transform="translate(45.000000, 140.000000)">
                    <g id="microsoft_grey" transform="translate(1036.000000, 239.000000)">
                        <g id="Group">
                            <g transform="translate(35.512195, 4.780488)" id="Shape">
                                <path d="M10.1435122,11.5523902 L9.38136585,13.7118049 L9.31785366,13.7118049 C9.19082927,13.224878 8.95795122,12.4839024 8.57687805,11.5940488 L4.4902439,1.3235122 L0.487609756,1.3235122 L0.487609756,17.6925854 L3.13463415,17.6925854 L3.13463415,7.59209756 C3.13463415,6.95697561 3.13463415,6.23717073 3.11346341,5.34731707 C3.09229268,4.90273171 3.04995122,4.564 3.02809756,4.30995122 L3.09229268,4.30995122 C3.21931707,4.94507317 3.36682927,5.41082927 3.47336585,5.70721951 L8.38565854,17.6509268 L10.2493659,17.6509268 L15.12,5.60136585 C15.2258537,5.32614634 15.3323902,4.77502439 15.437561,4.30926829 L15.5010732,4.30926829 C15.437561,5.51668293 15.3952195,6.59639024 15.3740488,7.25268293 L15.3740488,17.6283902 L18.190439,17.6283902 L18.190439,1.28117073 L14.336,1.28117073 L10.1435122,11.5523902 Z M20.8579512,5.89843902 L23.6108293,5.89843902 L23.6108293,17.6297561 L20.8579512,17.6297561 L20.8579512,5.89843902 Z M22.2559024,0.943121951 C21.7901463,0.943121951 21.4090732,1.1124878 21.0908293,1.40887805 C20.7732683,1.70526829 20.6039024,2.08634146 20.6039024,2.55209756 C20.6039024,2.99668293 20.7732683,3.3777561 21.0908293,3.67414634 C21.4083902,3.97053659 21.7894634,4.11941463 22.2559024,4.11941463 C22.7223415,4.11941463 23.1239024,3.94936585 23.4209756,3.67414634 C23.7385366,3.3777561 23.9079024,2.99668293 23.9079024,2.55209756 C23.9079024,2.1075122 23.7385366,1.72643902 23.4209756,1.40887805 C23.1450732,1.1124878 22.7428293,0.943121951 22.2559024,0.943121951 Z M33.3732683,5.79258537 C32.8651707,5.68604878 32.3352195,5.62253659 31.827122,5.62253659 C30.5780488,5.62253659 29.4341463,5.8977561 28.4814634,6.44819512 C27.5280976,6.99931707 26.7659512,7.76146341 26.2790244,8.71414634 C25.7702439,9.688 25.516878,10.8100488 25.516878,12.1028293 C25.516878,13.224878 25.7709268,14.2205854 26.2578537,15.1309268 C26.7447805,16.0207805 27.4222439,16.7399024 28.3332683,17.2268293 C29.2012683,17.7137561 30.2181463,17.9684878 31.3606829,17.9684878 C32.6739512,17.9684878 33.7966829,17.6932683 34.6858537,17.1844878 L34.7077073,17.1646829 L34.7077073,14.6228293 L34.6018537,14.7075122 C34.1989268,15.0039024 33.7338537,15.2586341 33.2667317,15.4054634 C32.7798049,15.5755122 32.3359024,15.6595122 31.9548293,15.6595122 C30.8539512,15.6595122 29.9852683,15.3419512 29.3713171,14.6433171 C28.7355122,13.9658537 28.4179512,13.0343415 28.4179512,11.8692683 C28.4179512,10.6618537 28.7355122,9.70917073 29.3918049,9.01053659 C30.0480976,8.31190244 30.9167805,7.952 31.9753171,7.952 C32.8651707,7.952 33.7755122,8.24839024 34.6018537,8.84117073 L34.7077073,8.92585366 L34.7077073,6.2364878 L34.6858537,6.21531707 C34.3266341,6.06712195 33.9237073,5.89843902 33.3732683,5.79258537 Z M42.4582439,5.70721951 C41.7807805,5.70721951 41.1449756,5.91892683 40.5945366,6.3635122 C40.1274146,6.74458537 39.8105366,7.29502439 39.5346341,7.952 L39.5141463,7.952 L39.5141463,5.8977561 L36.7612683,5.8977561 L36.7612683,17.6290732 L39.5141463,17.6290732 L39.5141463,11.6363902 C39.5141463,10.620878 39.7265366,9.77336585 40.1916098,9.15941463 C40.6573659,8.52429268 41.2501463,8.20604878 41.9699512,8.20604878 C42.2246829,8.20604878 42.4780488,8.26956098 42.7956098,8.31190244 C43.0933659,8.39658537 43.3043902,8.48126829 43.4519024,8.58712195 L43.5577561,8.6724878 L43.5577561,5.91960976 L43.4949268,5.89843902 C43.3050732,5.77073171 42.924,5.70721951 42.4582439,5.70721951 Z M49.9540488,5.64439024 C48.0268293,5.64439024 46.4806829,6.216 45.4002927,7.33804878 C44.3000976,8.46009756 43.7694634,10.0062439 43.7694634,11.9546341 C43.7694634,13.776 44.3205854,15.2586341 45.3798049,16.3383415 C46.4376585,17.396878 47.8779512,17.9466341 49.6781463,17.9466341 C51.5623415,17.9466341 53.0661463,17.3757073 54.1458537,16.2318049 C55.2474146,15.0885854 55.7773659,13.5636098 55.7773659,11.6787317 C55.7773659,9.81502439 55.2685854,8.33307317 54.2305366,7.25336585 C53.2355122,6.17365854 51.7747317,5.64439024 49.9540488,5.64439024 Z M52.1558049,14.6651707 C51.6483902,15.3214634 50.8425366,15.6397073 49.8475122,15.6397073 C48.8531707,15.6397073 48.0486829,15.3214634 47.4757073,14.6235122 C46.9047805,13.9665366 46.629561,13.0145366 46.629561,11.806439 C46.629561,10.5573659 46.9252683,9.604 47.4757073,8.92653659 C48.0486829,8.24907317 48.8306341,7.91034146 49.8263415,7.91034146 C50.8001951,7.91034146 51.5623415,8.22790244 52.1134634,8.88419512 C52.6645854,9.5404878 52.9609756,10.4931707 52.9609756,11.7429268 C52.9179512,13.0138537 52.6857561,14.009561 52.1558049,14.6651707 Z M61.9189268,10.7683902 C61.0509268,10.4091707 60.4998049,10.1332683 60.2457561,9.90039024 C60.0340488,9.688 59.9281951,9.39229268 59.9281951,9.01121951 C59.9281951,8.69365854 60.0552195,8.37609756 60.3720976,8.16370732 C60.6903415,7.952 61.0502439,7.84614634 61.5795122,7.84614634 C62.0459512,7.84614634 62.532878,7.93082927 62.9986341,8.05785366 C63.4650732,8.18487805 63.8878049,8.37541463 64.2272195,8.62946341 L64.3323902,8.71414634 L64.3323902,6.13063415 L64.268878,6.10946341 C63.9513171,5.98243902 63.5272195,5.85541463 63.019122,5.74956098 C62.5117073,5.66487805 62.0452683,5.62253659 61.6641951,5.62253659 C60.3509268,5.62253659 59.2719024,5.94009756 58.4243902,6.63873171 C57.577561,7.29502439 57.1753171,8.18487805 57.1753171,9.2222439 C57.1753171,9.77336585 57.26,10.2602927 57.4505366,10.6625366 C57.6410732,11.0654634 57.9156098,11.4458537 58.2966829,11.7634146 C58.6777561,12.0604878 59.2281951,12.3985366 59.9903415,12.7167805 C60.6261463,12.9913171 61.1137561,13.2037073 61.4094634,13.3723902 C61.7072195,13.542439 61.8963902,13.7336585 62.0452683,13.8811707 C62.151122,14.0512195 62.2139512,14.2629268 62.2139512,14.5381463 C62.2139512,15.3207805 61.6211707,15.7025366 60.414439,15.7025366 C59.948,15.7025366 59.4610732,15.6178537 58.8901463,15.4273171 C58.3192195,15.2367805 57.7899512,14.960878 57.344,14.644 L57.2388293,14.5593171 L57.2388293,17.2486829 L57.3023415,17.2705366 C57.7039024,17.4603902 58.1908293,17.5880976 58.7842927,17.7362927 C59.3770732,17.8414634 59.9077073,17.9275122 60.3720976,17.9275122 C61.7912195,17.9275122 62.9562927,17.6092683 63.7812683,16.9099512 C64.6287805,16.2331707 65.0740488,15.3651707 65.0740488,14.242439 C65.0740488,13.4598049 64.8623415,12.7598049 64.3959024,12.2305366 C63.7819512,11.7217561 63.019122,11.1924878 61.9189268,10.7683902 Z M72.3362927,5.64439024 C70.411122,5.64439024 68.8642927,6.216 67.7845854,7.33804878 C66.704878,8.46009756 66.1537561,10.0062439 66.1537561,11.9546341 C66.1537561,13.776 66.704878,15.2586341 67.7627317,16.3383415 C68.8219512,17.396878 70.261561,17.9466341 72.0617561,17.9466341 C73.9466341,17.9466341 75.4497561,17.3757073 76.5287805,16.2318049 C77.6303415,15.0885854 78.1596098,13.5636098 78.1596098,11.6787317 C78.1596098,9.81502439 77.652878,8.33307317 76.6148293,7.25336585 C75.6198049,6.17365854 74.1583415,5.64439024 72.3362927,5.64439024 Z M74.517561,14.6651707 C74.0094634,15.3214634 73.2049756,15.6397073 72.2106341,15.6397073 C71.1930732,15.6397073 70.410439,15.3214634 69.8374634,14.6235122 C69.2665366,13.9665366 68.9913171,13.0145366 68.9913171,11.806439 C68.9913171,10.5573659 69.2870244,9.604 69.8374634,8.92653659 C70.410439,8.24907317 71.1923902,7.91034146 72.1880976,7.91034146 C73.1414634,7.91034146 73.9240976,8.22790244 74.4752195,8.88419512 C75.0263415,9.5404878 75.3220488,10.4931707 75.3220488,11.7429268 C75.3227317,13.0138537 75.0481951,14.009561 74.517561,14.6651707 Z"></path>
                                <path d="M92.8780488,8.16370732 L92.8780488,5.89843902 L90.104,5.89843902 L90.104,2.4257561 L90.0186341,2.44692683 L87.3934634,3.2302439 L87.3292683,3.25141463 L87.3292683,5.89843902 L83.178439,5.89843902 L83.178439,4.4164878 C83.178439,3.73902439 83.3478049,3.20907317 83.644878,2.87034146 C83.9412683,2.53160976 84.3858537,2.3622439 84.9369756,2.3622439 C85.3187317,2.3622439 85.7202927,2.44692683 86.164878,2.63746341 L86.2700488,2.70097561 L86.2700488,0.308 L86.2072195,0.286829268 C85.8254634,0.159804878 85.3180488,0.0751219512 84.6610732,0.0751219512 C83.8354146,0.0751219512 83.1142439,0.265658537 82.4579512,0.583902439 C81.8023415,0.943804878 81.3140488,1.43073171 80.9548293,2.08702439 C80.5949268,2.72214634 80.4043902,3.44195122 80.4043902,4.26829268 L80.4043902,5.89912195 L78.4771707,5.89912195 L78.4771707,8.14390244 L80.4043902,8.14390244 L80.4043902,17.630439 L83.178439,17.630439 L83.178439,8.16507317 L87.3292683,8.16507317 L87.3292683,14.2000976 C87.3292683,16.6777561 88.4936585,17.9281951 90.822439,17.9281951 C91.2041951,17.9281951 91.6057561,17.864 91.9875122,17.7998049 C92.390439,17.715122 92.6854634,17.6099512 92.8555122,17.5245854 L92.8773659,17.5040976 L92.8773659,15.2381463 L92.7715122,15.3228293 C92.6021463,15.4286829 92.4532683,15.5133659 92.1992195,15.577561 C91.9875122,15.6410732 91.7976585,15.661561 91.6487805,15.661561 C91.0976585,15.661561 90.7172683,15.5352195 90.4413659,15.2176585 C90.1866341,14.9205854 90.0596098,14.4343415 90.0596098,13.7138537 L90.0596098,8.1657561 L92.8780488,8.1657561 L92.8780488,8.16370732 Z"></path>
                            </g>
                            <polygon id="Shape" points="0.508097561 0.598926829 13.4891707 0.598926829 13.4891707 13.58 0.508097561 13.58"></polygon>
                            <polygon id="Shape" points="14.8440976 0.598926829 27.8251707 0.598926829 27.8251707 13.58 14.8440976 13.58"></polygon>
                            <polygon id="Shape" points="0.508097561 14.9349268 13.4891707 14.9349268 13.4891707 27.916 0.508097561 27.916"></polygon>
                            <polygon id="Shape" points="14.8440976 14.9349268 27.8251707 14.9349268 27.8251707 27.916 14.8440976 27.916"></polygon>
                        </g>
                    </g>
                </g>
            </g>
        </g>
    </g>
</svg>