<?xml version="1.0" encoding="UTF-8"?>
<svg width="160px" height="20px" viewBox="0 0 160 20" version="1.1" xmlns="http://www.w3.org/2000/svg" xmlns:xlink="http://www.w3.org/1999/xlink">
    <!-- Generator: Sketch 52.5 (67469) - http://www.bohemiancoding.com/sketch -->
    <title>mothercare_grey</title>
    <desc>Created with Sketch.</desc>
    <g id="Page-1" stroke="none" stroke-width="1" fill="none" fill-rule="evenodd">
        <g id="HomePage-Final" transform="translate(-1132.000000, -2344.000000)" fill="#201F1F" fill-rule="nonzero">
            <g id="Client-Logos" transform="translate(320.000000, 1962.000000)">
                <g id="Logos" transform="translate(45.000000, 140.000000)">
                    <g id="mothercare_grey" transform="translate(767.000000, 242.000000)">
                        <g id="Group">
                            <g id="Shape">
                                <path d="M16.6033333,3.215 C15.2291667,1.6275 13.5383333,0 9.89333333,0 C8.19916667,0 6.0775,0.893333333 5.23666667,1.97 L5.23666667,0.561666667 L0.518333333,0.561666667 L0.518333333,20 L4.86416667,20 L4.86416667,8.94666667 C4.86416667,6.26416667 7.04,4.17166667 9.7125,4.17166667 C12.3858333,4.17166667 14.4125,6.265 14.4125,8.94666667 L14.4158333,20 L18.8008333,20 L18.8025,8.9325 C18.8025,6.29416667 20.9416667,4.15416667 23.5816667,4.15416667 C26.2208333,4.15416667 28.3616667,6.29416667 28.3616667,8.9325 L28.365,20 L32.6825,20 L32.69,8.68666667 C32.6908333,3.29666667 28.6758333,0 23.5816667,0 C20.3708333,0 17.9733333,1.54 16.6033333,3.215"></path>
                                <path d="M26.44,19.9983333 C26.8441667,19.9983333 27.06,19.85 26.8691667,19.3508333 L26.2708333,17.5225 C26.2708333,17.5225 27.03,17.3208333 27.47,16.9525 C26.825,13.8233333 25.1333333,12.8766667 23.5791667,12.8766667 C22.0233333,12.8766667 20.3591667,13.7958333 19.6875,16.9525 C20.1291667,17.32 20.8875,17.5225 20.8875,17.5225 L20.2891667,19.3508333 C20.0983333,19.8508333 20.3141667,19.9983333 20.7183333,19.9983333 L26.44,19.9983333"></path>
                                <path d="M27.1508333,8.9375 C27.1508333,6.96833333 25.5516667,5.37 23.5816667,5.37 C21.6091667,5.37 20.0116667,6.96833333 20.0116667,8.9375 C20.0116667,10.91 21.6091667,12.5075 23.5816667,12.5075 C25.5516667,12.5075 27.1508333,10.91 27.1508333,8.9375"></path>
                            </g>
                            <path d="M54.44,12.8291667 C54.44,10.5316667 53.6825,9.635 52.2808333,9.635 C50.535,9.635 49.6841667,10.6008333 49.6841667,12.9216667 L49.6841667,19.7008333 L47.0183333,19.7008333 L47.0183333,12.8291667 C47.0183333,10.555 46.2375,9.635 44.8358333,9.635 C43.09,9.635 42.2383333,10.6008333 42.2383333,12.9216667 L42.2383333,19.7008333 L39.4816667,19.7008333 L39.4816667,7.40583333 L42.215,7.40583333 L42.215,8.28 C43.0891667,7.54416667 44.0533333,7.17666667 45.2033333,7.17666667 C46.605,7.17666667 47.7075,7.7275 48.6033333,8.8775 C49.6833333,7.75083333 50.9708333,7.17666667 52.5333333,7.17666667 C55.3375,7.17666667 57.175,9.2225 57.175,12.6233333 L57.175,19.7008333 L54.44,19.7008333 L54.44,12.8291667 Z M149.5075,12.2541667 L156.4475,12.2541667 C156.079167,10.6458333 154.7475,9.58916667 153.023333,9.58916667 C151.276667,9.58916667 149.850833,10.6916667 149.5075,12.2541667 Z M153.2775,17.4933333 C154.654167,17.4933333 155.896667,16.9191667 157.136667,15.4716667 L159.136667,17.1025 C157.3675,19.1708333 155.526667,19.9983333 153.230833,19.9983333 C149.530833,19.9983333 146.7275,17.355 146.7275,13.6325 C146.7275,9.7275 149.321667,7.1075 153.045833,7.1075 C156.8375,7.1075 159.481667,9.8875 159.481667,14.07 L159.481667,14.5741667 L149.485,14.5741667 C149.760833,16.3216667 151.231667,17.4933333 153.2775,17.4933333 Z M143.1175,12.8525 L143.1175,19.7008333 L140.541667,19.7008333 L140.541667,7.40583333 L143.023333,7.40583333 L143.023333,8.3025 C143.6925,7.56666667 144.54,7.19916667 145.574167,7.19916667 C145.803333,7.19916667 146.056667,7.19916667 146.560833,7.31583333 L146.560833,10.0725 C145.828333,9.91166667 145.529167,9.86583333 145.299167,9.86583333 C143.8725,9.865 143.1175,10.7608333 143.1175,12.8525 Z M128.233333,13.5416667 C128.233333,15.8616667 129.794167,17.425 131.958333,17.425 C134.094167,17.425 135.655833,15.84 135.655833,13.5416667 C135.655833,11.2441667 134.095,9.65833333 131.958333,9.65833333 C129.794167,9.65833333 128.233333,11.2441667 128.233333,13.5416667 Z M135.540833,18.3666667 C134.551667,19.3783333 133.244167,19.86 131.659167,19.86 C128.094167,19.86 125.43,17.0575 125.43,13.5183333 C125.43,9.75083333 127.9125,7.17666667 131.659167,7.17666667 C133.265833,7.17666667 134.645833,7.7275 135.7025,8.76166667 L135.7025,7.40583333 L138.2775,7.40583333 L138.2775,19.7008333 L135.541667,19.7008333 L135.541667,18.3666667 L135.540833,18.3666667 Z M114.2425,13.5641667 C114.2425,9.865 116.815833,7.1075 120.515833,7.1075 C122.2175,7.1075 123.618333,7.6125 124.995,8.89916667 L123.249167,10.945 C122.3525,9.93333333 121.573333,9.58833333 120.515833,9.58833333 C118.516667,9.58833333 117.045,11.1975 117.045,13.5641667 C117.045,15.9541667 118.516667,17.4933333 120.515833,17.4933333 C121.643333,17.4933333 122.490833,17.1025 123.318333,16.0225 L125.109167,18.09 C123.5925,19.4925 122.240833,19.9975 120.515,19.9975 C116.84,19.9983333 114.2425,17.2641667 114.2425,13.5641667 Z M110.256667,12.8525 L110.256667,19.7008333 L107.683333,19.7008333 L107.683333,7.40583333 L110.1625,7.40583333 L110.1625,8.3025 C110.831667,7.56666667 111.679167,7.19916667 112.715833,7.19916667 C112.945,7.19916667 113.195833,7.19916667 113.704167,7.31583333 L113.704167,10.0725 C112.966667,9.91166667 112.6675,9.86583333 112.4375,9.86583333 C111.015,9.865 110.256667,10.7608333 110.256667,12.8525 Z M95.8891667,12.2541667 L102.8275,12.2541667 C102.459167,10.6458333 101.1275,9.58916667 99.4058333,9.58916667 C97.66,9.58916667 96.2341667,10.6916667 95.8891667,12.2541667 Z M99.6566667,17.4933333 C101.0375,17.4933333 102.275,16.9191667 103.5175,15.4716667 L105.516667,17.1025 C103.7475,19.1708333 101.91,19.9983333 99.6108333,19.9983333 C95.9133333,19.9983333 93.1108333,17.355 93.1108333,13.6325 C93.1108333,9.7275 95.705,7.1075 99.4275,7.1075 C103.2175,7.1075 105.860833,9.8875 105.860833,14.07 L105.860833,14.5741667 L95.865,14.5741667 C96.1433333,16.3216667 97.615,17.4933333 99.6566667,17.4933333 Z M88.3216667,12.7141667 C88.3216667,10.3708333 87.6575,9.47416667 86.1166667,9.47416667 C84.3466667,9.47416667 83.4741667,10.485 83.4741667,12.8058333 L83.4741667,19.7 L80.7158333,19.7 L80.7158333,1.9375 L83.4741667,1.9375 L83.4741667,8.095 C84.3216667,7.36083333 85.3133333,6.99416667 86.4616667,6.99416667 C89.2891667,6.99416667 91.0791667,9.06083333 91.0791667,12.5316667 L91.0791667,19.7016667 L88.3208333,19.7016667 L88.3208333,12.7141667 L88.3216667,12.7141667 Z M73.935,16.6433333 L73.935,9.6125 L72.4883333,9.6125 L72.4883333,7.19916667 L73.935,7.19916667 L73.935,4.41916667 L76.5091667,4.41916667 L76.5091667,7.19916667 L78.3691667,7.19916667 L78.3691667,9.6125 L76.5091667,9.6125 L76.5091667,16.3908333 C76.5091667,16.9416667 76.6475,17.0575 77.0375,17.0575 L79.2216667,17.0575 L79.2216667,19.7008333 L76.9666667,19.7008333 C74.8525,19.7008333 73.935,18.8033333 73.935,16.6433333 Z M61.9983333,13.5641667 C61.9983333,15.9308333 63.5158333,17.5166667 65.4941667,17.5166667 C67.4691667,17.5166667 68.9608333,15.9766667 68.9608333,13.5641667 C68.9608333,11.1741667 67.4683333,9.58833333 65.4941667,9.58833333 C63.5158333,9.58916667 61.9983333,11.1983333 61.9983333,13.5641667 Z M65.4941667,19.9983333 C61.8383333,19.9983333 59.1716667,17.195 59.1716667,13.5641667 C59.1716667,9.93333333 61.815,7.1075 65.4941667,7.1075 C69.19,7.1075 71.8133333,9.91 71.8133333,13.5641667 C71.8133333,15.4016667 71.1691667,16.965 69.9975,18.16 C68.8016667,19.3558333 67.24,19.9983333 65.4941667,19.9983333 Z" id="Shape"></path>
                        </g>
                    </g>
                </g>
            </g>
        </g>
    </g>
</svg>