<?xml version="1.0" encoding="UTF-8"?>
<svg width="102px" height="26px" viewBox="0 0 102 26" version="1.1" xmlns="http://www.w3.org/2000/svg" xmlns:xlink="http://www.w3.org/1999/xlink">
    <!-- Generator: Sketch 52.5 (67469) - http://www.bohemiancoding.com/sketch -->
    <title>Paypal_grey</title>
    <desc>Created with Sketch.</desc>
    <g id="Page-1" stroke="none" stroke-width="1" fill="none" fill-rule="evenodd">
        <g id="HomePage-Final" transform="translate(-903.000000, -2344.000000)" fill="#201F1F" fill-rule="nonzero">
            <g id="Client-Logos" transform="translate(320.000000, 1962.000000)">
                <g id="Logos" transform="translate(45.000000, 140.000000)">
                    <g id="Paypal_grey" transform="translate(538.000000, 242.000000)">
                        <g id="Group">
                            <path d="M83.1137895,5.24721053 C82.0546316,4.65673684 80.3974737,4.35773684 78.1313684,4.35773684 C77.0099474,4.35773684 75.8837368,4.44736842 74.7527368,4.62252632 C73.9227895,4.75047368 73.8379474,4.771 73.3227368,4.88321053 C72.2615263,5.11447368 72.098,6.17636842 72.098,6.17636842 L71.7579474,7.57763158 C71.565,8.47326316 72.0754211,8.43563158 72.3018947,8.36584211 C72.7657895,8.22626316 73.0162105,8.08805263 73.9611053,7.87321053 C74.8635789,7.66863158 75.8180526,7.51536842 76.5788947,7.52084211 C77.6955263,7.52084211 78.5439474,7.644 79.1084211,7.87868421 C79.6728947,8.12431579 79.9520526,8.54442105 79.9520526,9.14447368 C79.9541053,9.28678947 79.9575263,9.42157895 79.9068947,9.53857895 C79.8603684,9.64873684 79.7707368,9.75478947 79.5045789,9.79105263 C77.9103684,9.88547368 76.7670526,10.0312105 75.3897368,10.2316842 C74.0315789,10.4232632 72.8424211,10.7516842 71.8482632,11.2053158 C70.7884211,11.6760526 69.9961053,12.3034737 69.4494211,13.1012632 C68.9177895,13.9024737 68.6509474,14.8713158 68.6482105,16.0139474 C68.6482105,17.0929474 69.0361579,17.9728421 69.7874211,18.6563684 C70.5468947,19.331 71.5342105,19.6655789 72.7295263,19.6655789 C73.476,19.6601053 74.0603158,19.6060526 74.4797368,19.5013684 C74.8936842,19.3973684 75.3466316,19.2482105 75.8242105,19.0415789 C76.1806842,18.8917368 76.5665789,18.6768947 76.973,18.4052632 C77.3794211,18.1336316 77.662,17.9406842 78.0232632,17.7046316 L78.0369474,17.7272105 L77.935,18.1760526 C77.935,18.1801579 77.9281579,18.1822105 77.9281579,18.187 L77.9315789,18.1952105 C77.8152632,18.7364211 78.1409474,19.1859474 78.6766842,19.2386316 L78.6828421,19.2482105 L78.7300526,19.2482105 L78.7321053,19.2516316 C79.0878947,19.2516316 80.3078421,19.2502632 80.8784737,19.2482105 L81.2773684,19.2482105 C81.3026842,19.2482105 81.3054211,19.24 81.3163684,19.2345263 C81.8630526,19.1667895 82.3871579,18.7213684 82.511,18.187 L84.5478947,9.39489474 C84.5951053,9.18757895 84.6320526,8.94947368 84.6539474,8.67442105 C84.6792632,8.39594737 84.7093684,8.16810526 84.7004737,8.00321053 C84.7038947,6.75863158 84.1702105,5.83836842 83.1137895,5.24721053 Z M78.1785789,15.7231579 C77.8316842,15.9414211 77.4663158,16.1282105 77.0831579,16.2869474 C76.5679474,16.4942632 76.0801053,16.6037368 75.6285263,16.6037368 C74.9340526,16.6037368 74.4017368,16.5045263 74.0418421,16.2958421 C73.6812632,16.0967368 73.4917368,15.7512105 73.4985789,15.2565263 C73.4985789,14.6852105 73.6299474,14.2418421 73.9029474,13.8935789 C74.178,13.5596842 74.5864737,13.2901053 75.0927895,13.0896316 C75.5963684,12.9185789 76.2169474,12.7776316 76.9319474,12.6770526 C77.5682632,12.597 78.8258421,12.4526316 78.9859474,12.4512632 C79.1474211,12.4492105 79.2541579,12.3609474 79.1823158,12.7899474 C79.1501579,12.9753684 78.7868421,14.4662632 78.6212632,15.1436316 C78.572,15.3482105 78.3017368,15.6444737 78.1785789,15.7231579 Z" id="Shape"></path>
                            <path d="M48.0705789,4.55205263 C47.4725789,4.55205263 46.6884737,5.03578947 46.3176316,5.62010526 C46.3176316,5.62010526 42.3211579,12.4724737 41.9291053,13.1580526 C41.7156316,13.5261579 41.4987368,13.2921579 41.4617895,13.1553158 C41.4337368,12.9883684 40.2233684,5.66526316 40.2233684,5.66526316 C40.0878947,5.07615789 39.4714211,4.56984211 38.7016842,4.57189474 L36.2091053,4.576 C35.6076842,4.576 35.2327368,5.057 35.3668421,5.63926316 C35.3668421,5.63926316 37.2723684,16.4374737 37.6438947,18.9779474 C37.8293158,20.3819474 37.6247368,20.631 37.6247368,20.631 L35.1547368,24.9381053 C34.7948421,25.5217368 34.9918947,26 35.5898947,26 L38.4786316,25.9972632 C39.0766316,25.9972632 39.8689474,25.5217368 40.2247368,24.9360526 L51.3356316,6.14421053 C51.3356316,6.14421053 52.3982105,4.53768421 51.4184211,4.55205263 C50.7499474,4.56231579 48.0705789,4.55205263 48.0705789,4.55205263" id="Shape"></path>
                            <path d="M12.9945263,8.372 C12.1536316,8.98573684 10.9877368,9.29568421 9.47426316,9.29568421 L8.79073684,9.29568421 C8.18794737,9.29568421 7.80752632,8.81742105 7.94026316,8.23036842 L8.78047368,4.61157895 C8.90842105,4.02863158 9.50984211,3.54489474 10.1119474,3.55036842 L11.0246842,3.54489474 C12.0913684,3.54489474 12.9014737,3.72826316 13.4481579,4.09089474 C13.9873158,4.44394737 14.261,5.00157895 14.2521053,5.75147368 C14.2678421,6.88178947 13.8402105,7.75552632 12.9945263,8.372 M19.0176316,2.79568421 C18.6700526,2.119 18.1507368,1.57026316 17.4884211,1.15563158 C16.8001053,0.731421053 15.9995789,0.438578947 15.0663158,0.262052632 C14.1282632,0.0937368421 13.0321579,0.0109473684 11.7745789,0 L5.95126316,0.00410526316 C5.34642105,0.0109473684 4.75457895,0.485789474 4.61431579,1.06805263 L0.689,18.1356842 C0.553526316,18.72 0.931210526,19.2023684 1.53331579,19.2023684 L4.32284211,19.2023684 C4.92563158,19.2023684 5.52363158,18.7316316 5.65910526,18.1356842 L6.61973684,13.9927895 C6.74836842,13.4132632 7.34431579,12.935 7.94847368,12.935 L8.74557895,12.935 C12.1570526,12.9315789 14.8035789,12.2336842 16.7043158,10.8372105 C18.603,9.44278947 19.5526842,7.59542105 19.5478947,5.31015789 C19.5533684,4.30573684 19.3802632,3.46621053 19.0176316,2.79568421" id="Shape"></path>
                            <path d="M63.6377368,8.44178947 C62.8016316,9.04936842 61.6282105,9.35521053 60.1188421,9.35521053 L59.4243684,9.35521053 C58.8243158,9.36136842 58.4370526,8.87626316 58.5793684,8.294 L59.4161579,4.67042105 C59.5413684,4.09705263 60.1503158,3.60921053 60.7421579,3.614 L61.659,3.60921053 C62.7291053,3.614 63.5296316,3.79326316 64.0831579,4.14973684 C64.6271053,4.50894737 64.8905263,5.06726316 64.8946316,5.81236842 C64.8966842,6.94747368 64.4772632,7.81984211 63.6377368,8.44178947 M69.6581053,2.85794737 C69.3105263,2.18194737 68.7857368,1.638 68.1220526,1.21378947 C67.4419474,0.790263158 66.6325263,0.494684211 65.6965263,0.322947368 C64.7707895,0.160105263 63.6698947,0.0670526316 62.4164211,0.0643157895 L56.5807895,0.0670526316 C55.9800526,0.078 55.3902632,0.550105263 55.2520526,1.131 L51.3287895,18.2041053 C51.1857895,18.7843158 51.5751053,19.2680526 52.1662632,19.2646316 L54.9660526,19.2598421 C55.5599474,19.2646316 56.1654737,18.7843158 56.3057368,18.2041053 L57.252,14.0612105 C57.3847368,13.4796316 57.9882105,12.9931579 58.5923684,13.0020526 L59.3874211,13.0020526 C62.803,13.0020526 65.4515789,12.3007368 67.3482105,10.9042632 C69.2393684,9.50026316 70.1911053,7.65905263 70.1911053,5.36831579 C70.1835789,4.368 70.0132105,3.52573684 69.6581053,2.85794737" id="Shape"></path>
                            <path d="M32.461,5.23421053 C31.4018421,4.64305263 29.7460526,4.34473684 27.4792632,4.34473684 C26.3578421,4.34473684 25.2316316,4.43368421 24.1006316,4.60952632 C23.2693158,4.73610526 23.1858421,4.75731579 22.6706316,4.86952632 C21.6094211,5.10078947 21.4465789,6.16268421 21.4465789,6.16268421 L21.1058421,7.56394737 C20.9128947,8.45957895 21.4233158,8.42263158 21.6497895,8.35215789 C22.1123158,8.21257895 22.3647895,8.07436842 23.3096842,7.85952632 C24.2107895,7.65563158 25.1659474,7.50236842 25.9261053,7.50784211 C27.0434211,7.50784211 27.8918421,7.62963158 28.4556316,7.86431579 C29.0201053,8.11131579 29.2978947,8.53073684 29.2978947,9.13078947 C29.302,9.27378947 29.3047368,9.40857895 29.2547895,9.52489474 C29.2082632,9.63573684 29.1179474,9.74110526 28.8504211,9.77668421 C27.2596316,9.87315789 26.1156316,10.0175263 24.7369474,10.2186842 C23.3781053,10.4095789 22.1896316,10.738 21.1954737,11.1916316 C20.1363158,11.6623684 19.344,12.2911579 18.798,13.0875789 C18.2643158,13.8881053 17.9981579,14.8569474 17.9967895,16.0002632 C17.9967895,17.0785789 18.3847368,17.9591579 19.1346316,18.6426842 C19.8941053,19.3166316 20.8814211,19.6512105 22.0760526,19.6512105 C22.8238947,19.6457368 23.4068421,19.591 23.8276316,19.4876842 C24.2415789,19.3823158 24.6945263,19.2345263 25.1707368,19.0272105 C25.5278947,18.8780526 25.9124211,18.6618421 26.3202105,18.3915789 C26.7266316,18.1206316 27.0092105,17.927 27.3718421,17.6909474 L27.3841579,17.7128421 L27.2822105,18.161 C27.2815263,18.1657895 27.2753684,18.1685263 27.2753684,18.1733158 L27.2801579,18.1815263 C27.1638421,18.7227368 27.4881579,19.1722632 28.0238947,19.2242632 L28.0307368,19.2345263 L28.0772632,19.2345263 L28.0786316,19.2379474 C28.4351053,19.2379474 29.6564211,19.2365789 30.225,19.2345263 L30.6238947,19.2345263 C30.6505789,19.2345263 30.6546842,19.2256316 30.6628947,19.2201579 C31.2116316,19.1510526 31.7336842,18.7063158 31.8582105,18.174 L33.8957895,9.38121053 C33.9416316,9.17526316 33.9792632,8.93647368 33.9997895,8.66142105 C34.0264737,8.38294737 34.0565789,8.15510526 34.0476842,7.99021053 C34.0531579,6.74494737 33.5174211,5.82605263 32.461,5.23421053 Z M27.5257895,15.7108421 C27.1795789,15.9284211 26.8142105,16.1152105 26.4310526,16.2739474 C25.9158421,16.4812632 25.4252632,16.5900526 24.9757368,16.5900526 C24.284,16.5900526 23.7496316,16.4915263 23.3897368,16.2828421 C23.0298421,16.0844211 22.8389474,15.7382105 22.8451053,15.2428421 C22.8451053,14.6728947 22.9778421,14.2281579 23.2508421,13.8812632 C23.5258947,13.5466842 23.933,13.2771053 24.44,13.0759474 C24.9449474,12.9048947 25.5662105,12.766 26.2791579,12.6647368 C26.9154737,12.5846842 28.1744211,12.4403158 28.3345263,12.4375789 C28.4932632,12.4368947 28.6013684,12.3479474 28.5295263,12.7762632 C28.4987368,12.9616842 28.1354211,14.4539474 27.9691579,15.1306316 C27.9192105,15.3358947 27.6482632,15.6321579 27.5257895,15.7108421 Z" id="Shape"></path>
                            <path d="M92.7303684,0.205263158 L90.2343684,0.205263158 C90.233,0.205263158 90.2323158,0.205263158 90.2309474,0.205263158 L90.2302632,0.205263158 C89.6582632,0.205263158 89.0766842,0.644526316 88.9165789,1.20284211 C88.9097368,1.22473684 88.8994737,1.24526316 88.894,1.26715789 C88.894,1.26715789 88.8399474,1.51415789 88.7455263,1.94384211 L85.3018947,17.5541053 C85.2232105,17.901 85.1712105,18.1274737 85.1547895,18.1863158 L85.1609474,18.1952105 C85.0432632,18.7377895 85.3689474,19.1873158 85.9053684,19.2372632 L85.9122105,19.2475263 L88.5019474,19.2475263 C89.0664211,19.2475263 89.6397895,18.8192105 89.8101579,18.2732105 C89.8197368,18.2444737 89.8327368,18.2164211 89.8402632,18.1863158 L93.5794737,1.26578947 L93.574,1.26442105 C93.6998947,0.684894737 93.3276842,0.205263158 92.7303684,0.205263158 Z" id="Shape"></path>
                            <g transform="translate(95.105263, 0.000000)" id="Shape">
                                <path d="M2.35026316,3.64957895 C2.26542105,3.67284211 2.17236842,3.69131579 2.07110526,3.70568421 C1.96984211,3.72005263 1.87884211,3.72757895 1.80015789,3.72757895 C1.52168421,3.72757895 1.31094737,3.653 1.16726316,3.50384211 C1.02289474,3.35468421 0.951052632,3.11589474 0.951052632,2.78678947 L0.951052632,1.34378947 L0.642473684,1.34378947 L0.642473684,0.958578947 L0.951052632,0.958578947 L0.951052632,0.178578947 L1.40742105,0.178578947 L1.40742105,0.959263158 L2.35026316,0.959263158 L2.35026316,1.34378947 L1.40742105,1.34378947 L1.40742105,2.58084211 C1.40742105,2.72315789 1.41152632,2.83468421 1.41836842,2.91473684 C1.42452632,2.99478947 1.44710526,3.07005263 1.48678947,3.13984211 C1.52168421,3.20484211 1.57026316,3.25136842 1.63321053,3.28147368 C1.69684211,3.31157895 1.79126316,3.32594737 1.91921053,3.32594737 C1.99310526,3.32594737 2.07178947,3.315 2.15252632,3.29310526 C2.23326316,3.27189474 2.29210526,3.25342105 2.32768421,3.23905263 L2.35094737,3.23905263 L2.35094737,3.64957895 L2.35026316,3.64957895 Z"></path>
                                <path d="M6.86468421,3.67352632 L6.40831579,3.67352632 L6.40831579,2.12789474 C6.40831579,2.01157895 6.40215789,1.89868421 6.39189474,1.78989474 C6.38094737,1.68178947 6.35836842,1.59557895 6.32484211,1.52989474 C6.28721053,1.46010526 6.23384211,1.40810526 6.16405263,1.37252632 C6.09426316,1.33694737 5.99436842,1.31915789 5.86368421,1.31915789 C5.73505263,1.31915789 5.60778947,1.35131579 5.47915789,1.41563158 C5.35052632,1.47926316 5.22394737,1.56068421 5.09531579,1.65921053 C5.10010526,1.69684211 5.10352632,1.73994737 5.10763158,1.78921053 C5.11105263,1.83847368 5.11242105,1.88842105 5.11242105,1.93631579 L5.11242105,3.67352632 L4.65536842,3.67352632 L4.65536842,2.12789474 C4.65536842,2.00815789 4.64989474,1.89457895 4.64031579,1.78578947 C4.62936842,1.67905263 4.60610526,1.59352632 4.57326316,1.52784211 C4.53426316,1.45805263 4.48226316,1.40605263 4.41178947,1.37115789 C4.34268421,1.33694737 4.24210526,1.31915789 4.11142105,1.31915789 C3.98621053,1.31915789 3.86236842,1.34994737 3.73578947,1.41152632 C3.60989474,1.47378947 3.48536842,1.55110526 3.36015789,1.64757895 L3.36015789,3.67421053 L2.90242105,3.67421053 L2.90242105,0.958578947 L3.36015789,0.958578947 L3.36015789,1.26031579 C3.50315789,1.14126316 3.64547368,1.04889474 3.78710526,0.983210526 C3.92942105,0.916842105 4.07926316,0.883315789 4.24005263,0.883315789 C4.42478947,0.883315789 4.58147368,0.922315789 4.71078947,0.999631579 C4.83942105,1.07763158 4.93521053,1.18505263 4.99884211,1.32394737 C5.18357895,1.16726316 5.35189474,1.05436842 5.50447368,0.986631579 C5.65705263,0.917526316 5.81852632,0.884 5.99231579,0.884 C6.29131579,0.884 6.51094737,0.974315789 6.65257895,1.15494737 C6.79421053,1.33626316 6.86605263,1.58805263 6.86605263,1.91236842 L6.86605263,3.67352632 L6.86468421,3.67352632 Z"></path>
                            </g>
                        </g>
                    </g>
                </g>
            </g>
        </g>
    </g>
</svg>