<?xml version="1.0" encoding="UTF-8"?>
<svg width="79px" height="36px" viewBox="0 0 79 36" version="1.1" xmlns="http://www.w3.org/2000/svg" xmlns:xlink="http://www.w3.org/1999/xlink">
    <!-- Generator: Sketch 52.5 (67469) - http://www.bohemiancoding.com/sketch -->
    <title>soaq_grey copy</title>
    <desc>Created with Sketch.</desc>
    <defs>
        <path d="M13.26,20.7176471 C13.5748235,20.8941176 14.0018824,21.0811765 14.3802353,21.2463529 C15.2209412,21.6134118 16.0708235,21.9712941 16.9150588,22.3298824 L16.9828235,22.3461176 C17.7705882,22.68 18.6204706,23.0251765 19.4089412,23.3738824 L19.4089412,0.448235294 L13.2607059,0.448235294 L13.2607059,2.12470588 C11.9992941,0.732 10.2105882,0 8.26164706,0 C3.41576471,0 0.288705882,3.72 0.288705882,9.47647059 C0.288705882,15.2562353 3.41364706,18.9903529 8.25952941,18.9903529 C10.2127059,18.9903529 11.8411765,18.264 13.26,16.8289412 L13.26,20.7176471 Z M10.1632941,13.5698824 C7.956,13.5698824 6.47647059,11.9251765 6.47647059,9.47647059 C6.47647059,7.05035294 7.95388235,5.42047059 10.1611765,5.42047059 C11.2785882,5.42047059 12.6289412,6.05717647 13.26,6.88164706 L13.26,12.1094118 C12.6296471,12.9197647 11.2715294,13.5698824 10.1632941,13.5698824 Z" id="path-1"></path>
        <rect id="path-3" x="0.374823529" y="0.409411765" width="129.223059" height="75.1108235"></rect>
        <path d="M10.8684706,6.96211765 C10.8162353,6.816 10.7604706,6.67058824 10.7054118,6.52517647 L10.6616471,6.41011765 L10.1004706,5.54258824 L10.0157647,5.46141176 C9.90423529,5.352 9.79341176,5.244 9.68047059,5.13811765 C8.96117647,4.45835294 8.04494118,3.88517647 6.79411765,3.33458824 C5.82988235,2.90823529 4.83952941,2.48964706 3.88305882,2.08376471 L3.84352941,2.06752941 C2.99647059,1.70823529 2.14870588,1.34823529 1.30447059,0.980470588 C1.06517647,0.876705882 0.827294118,0.764470588 0.597176471,0.652941176 C0.608470588,0.905647059 0.612,1.15976471 0.602823529,1.41529412 C0.559764706,2.64705882 0.484941176,3.89294118 0.411529412,5.09788235 L0.408705882,5.13529412 C0.384,5.54752941 0.358588235,5.95976471 0.335294118,6.372 C0.312,6.77929412 0.295764706,7.19576471 0.297176471,7.61435294 C0.297882353,7.66658824 0.296470588,7.71882353 0.297176471,7.77247059 C0.309176471,8.55388235 0.391764706,9.34235294 0.625411765,10.0962353 C0.714352941,10.3828235 0.830823529,10.6708235 0.954352941,10.9757647 L0.969176471,11.0110588 C1.01364706,11.1218824 1.05811765,11.232 1.10188235,11.3428235 L1.70117647,12.2703529 C1.74917647,12.3190588 1.79717647,12.3684706 1.84447059,12.4178824 L1.86,12.4341176 C1.99623529,12.576 2.12470588,12.7108235 2.25105882,12.8131765 C4.02635294,14.268 6.00705882,14.508 8.14023529,13.5282353 C10.5903529,12.4009412 11.7889412,9.51741176 10.8684706,6.96211765" id="path-5"></path>
        <rect id="path-7" x="0.374823529" y="0.409411765" width="129.223059" height="75.1108235"></rect>
        <path d="M9.58235294,0 C6.47929412,0 3.49623529,1.01929412 1.41741176,2.79670588 L1.27270588,2.916 L3.50541176,6.85835294 L3.70941176,6.68470588 C5.07105882,5.53270588 6.82941176,4.872 8.56023529,4.872 C10.6341176,4.872 11.9061176,5.76776471 11.9061176,7.20988235 L11.9061176,8.76564706 C10.8035294,7.68917647 8.85247059,7.06023529 6.65788235,7.06023529 C3.75388235,7.06023529 0.370588235,8.60329412 0.370588235,12.9522353 C0.370588235,16.8741176 3.60211765,18.9910588 6.65364706,18.9910588 C8.70070588,18.9910588 10.6447059,18.2745882 11.9054118,17.1324706 L11.9054118,18.5795294 L18.0543529,18.5795294 L18.0543529,7.28188235 C18.0550588,1.26352941 13.4378824,0 9.58235294,0 Z M11.9061176,13.7202353 C11.4331765,14.3985882 10.2444706,14.8503529 8.99858824,14.8503529 C7.80282353,14.8503529 6.41294118,14.3717647 6.41294118,13.0249412 C6.41294118,11.6781176 7.79929412,11.2002353 8.99505882,11.2002353 C10.2331765,11.2002353 11.4331765,11.6378824 11.9061176,12.2957647 L11.9061176,13.7202353 Z" id="path-9"></path>
        <rect id="path-11" x="0.374823529" y="0.409411765" width="129.223059" height="75.1108235"></rect>
        <path d="M9.44682353,6.65223529 L9.14258824,6.59717647 C7.37717647,6.28658824 6.66070588,6.13835294 6.66070588,5.59976471 C6.66070588,5.02729412 7.54305882,4.57976471 8.66894118,4.57976471 C10.8070588,4.57976471 12.7404706,5.52211765 13.7075294,6.45529412 L13.9129412,6.65364706 L16.3136471,2.50235294 L16.152,2.38376471 C14.664,1.29670588 12.1510588,0 8.63223529,0 C3.27741176,0 0.837882353,3.13058824 0.837882353,6.03882353 C0.837882353,10.8232941 5.30894118,11.532 8.26447059,12.0007059 C9.66564706,12.2449412 11.1155294,12.4962353 11.1155294,13.1703529 C11.1155294,14.1049412 9.94376471,14.3011765 8.96117647,14.3011765 C6.86752941,14.3011765 4.13223529,13.1202353 2.89129412,12.0169412 L2.69082353,11.8383529 L0.115764706,16.1047059 L0.255529412,16.2282353 C2.15717647,17.9061176 5.46,18.9903529 8.66894118,18.9903529 C13.6150588,18.9903529 16.9383529,16.5487059 16.9383529,12.9155294 C16.9383529,8.01811765 12.4298824,7.19576471 9.44682353,6.65223529" id="path-13"></path>
        <rect id="path-15" x="0.374823529" y="0.409411765" width="129.223059" height="75.1108235"></rect>
        <path d="M10.0510588,0 C3.58941176,0 0.208941176,4.76752941 0.208941176,9.47647059 C0.208941176,14.2037647 3.59011765,18.9903529 10.0510588,18.9903529 C16.5367059,18.9903529 19.9298824,14.2044706 19.9298824,9.47647059 C19.9298824,4.76752941 16.5367059,0 10.0510588,0 Z M13.3517647,10.956 C13.3334118,11.0428235 13.3150588,11.1303529 13.2945882,11.2171765 C12.9430588,12.7362353 11.4670588,13.7555294 9.93388235,13.536 C8.59905882,13.3447059 7.71811765,12.612 7.31435294,11.3576471 C7.28541176,11.2687059 7.26494118,11.1642353 7.24376471,11.0527059 L7.24164706,11.0392941 C7.23388235,11.0004706 7.22682353,10.9623529 7.21835294,10.9235294 L7.21835294,10.2896471 C7.23176471,10.2225882 7.24447059,10.1562353 7.25717647,10.0884706 L7.26141176,10.0672941 C7.29670588,9.88164706 7.33058824,9.70658824 7.37647059,9.54070588 C7.49858824,9.10447059 7.704,8.69858824 7.94188235,8.31670588 C7.95741176,8.29129412 7.97435294,8.26658824 7.99058824,8.24117647 C8.12047059,8.03929412 8.25741176,7.84305882 8.39576471,7.65388235 C8.53552941,7.46258824 8.676,7.27058824 8.81647059,7.08 L8.82917647,7.06305882 C9.24,6.50470588 9.66423529,5.92658824 10.068,5.34494118 C10.152,5.22423529 10.2289412,5.10070588 10.3030588,4.97576471 C10.3792941,5.10211765 10.4597647,5.22917647 10.5423529,5.35411765 C10.8352941,5.79458824 11.1317647,6.23152941 11.4289412,6.66847059 L11.4423529,6.68894118 C11.7783529,7.18235294 12.1249412,7.69270588 12.4581176,8.19882353 C12.8901176,8.85388235 13.1541176,9.41576471 13.2896471,9.96776471 C13.3108235,10.0538824 13.3312941,10.1407059 13.3510588,10.2275294 L13.3665882,10.2938824 L13.3665882,10.8875294 L13.3517647,10.956 Z" id="path-17"></path>
        <rect id="path-19" x="0.374823529" y="0.409411765" width="129.223059" height="75.1108235"></rect>
        <polyline id="path-21" points="0.799058824 2.21364706 0.799058824 0.792 0.287294118 0.792 0.287294118 0.464470588 1.68282353 0.464470588 1.68282353 0.792 1.17388235 0.792 1.17388235 2.21364706 0.799058824 2.21364706"></polyline>
        <rect id="path-23" x="0.374823529" y="0.409411765" width="129.223059" height="75.1108235"></rect>
        <polyline id="path-25" points="2.03082353 2.21364706 2.03082353 0.988941176 1.53811765 2.21364706 1.37505882 2.21364706 0.882352941 0.988941176 0.882352941 2.21364706 0.510352941 2.21364706 0.510352941 0.464470588 1.032 0.464470588 1.45623529 1.52117647 1.88117647 0.464470588 2.40564706 0.464470588 2.40564706 2.21364706 2.03082353 2.21364706"></polyline>
        <rect id="path-27" x="0.374823529" y="0.409411765" width="129.223059" height="75.1108235"></rect>
    </defs>
    <g id="Page-1" stroke="none" stroke-width="1" fill="none" fill-rule="evenodd">
        <g id="HomePage-Final" transform="translate(-657.000000, -2122.000000)">
            <g id="Client-Logos" transform="translate(320.000000, 1962.000000)">
                <g id="Logos" transform="translate(45.000000, 140.000000)">
                    <g id="soaq_grey-copy" transform="translate(292.000000, 20.000000)">
                        <g id="Group">
                            <g transform="translate(55.058824, 0.000000)">
                                <g id="SVGID_29_-link" fill="#3A71B7">
                                    <path d="M13.26,20.7176471 C13.5748235,20.8941176 14.0018824,21.0811765 14.3802353,21.2463529 C15.2209412,21.6134118 16.0708235,21.9712941 16.9150588,22.3298824 L16.9828235,22.3461176 C17.7705882,22.68 18.6204706,23.0251765 19.4089412,23.3738824 L19.4089412,0.448235294 L13.2607059,0.448235294 L13.2607059,2.12470588 C11.9992941,0.732 10.2105882,0 8.26164706,0 C3.41576471,0 0.288705882,3.72 0.288705882,9.47647059 C0.288705882,15.2562353 3.41364706,18.9903529 8.25952941,18.9903529 C10.2127059,18.9903529 11.8411765,18.264 13.26,16.8289412 L13.26,20.7176471 Z M10.1632941,13.5698824 C7.956,13.5698824 6.47647059,11.9251765 6.47647059,9.47647059 C6.47647059,7.05035294 7.95388235,5.42047059 10.1611765,5.42047059 C11.2785882,5.42047059 12.6289412,6.05717647 13.26,6.88164706 L13.26,12.1094118 C12.6296471,12.9197647 11.2715294,13.5698824 10.1632941,13.5698824 Z" id="SVGID_29_"></path>
                                </g>
                                <g id="Clipped">
                                    <mask id="mask-2" fill="white">
                                        <use xlink:href="#path-1"></use>
                                    </mask>
                                    <g id="SVGID_29_"></g>
                                    <g id="Group" mask="url(#mask-2)">
                                        <g transform="translate(-82.588235, -28.941176)">
                                            <g id="SVGID_31_-link">
                                                <rect id="SVGID_31_" fill="#3A71B7" fill-rule="nonzero" x="0.374823529" y="0.409411765" width="129.223059" height="75.1108235"></rect>
                                            </g>
                                            <g id="Clipped">
                                                <mask id="mask-4" fill="white">
                                                    <use xlink:href="#path-3"></use>
                                                </mask>
                                                <g id="SVGID_31_"></g>
                                                <rect id="Rectangle-path" fill="#201F1F" fill-rule="nonzero" mask="url(#mask-4)" x="82.0694118" y="28.1329412" width="20.7352941" height="24.9896471"></rect>
                                            </g>
                                        </g>
                                    </g>
                                </g>
                            </g>
                            <g transform="translate(67.764706, 21.176471)">
                                <g id="SVGID_33_-link" fill="#3A71B7">
                                    <path d="M10.8684706,6.96211765 C10.8162353,6.816 10.7604706,6.67058824 10.7054118,6.52517647 L10.6616471,6.41011765 L10.1004706,5.54258824 L10.0157647,5.46141176 C9.90423529,5.352 9.79341176,5.244 9.68047059,5.13811765 C8.96117647,4.45835294 8.04494118,3.88517647 6.79411765,3.33458824 C5.82988235,2.90823529 4.83952941,2.48964706 3.88305882,2.08376471 L3.84352941,2.06752941 C2.99647059,1.70823529 2.14870588,1.34823529 1.30447059,0.980470588 C1.06517647,0.876705882 0.827294118,0.764470588 0.597176471,0.652941176 C0.608470588,0.905647059 0.612,1.15976471 0.602823529,1.41529412 C0.559764706,2.64705882 0.484941176,3.89294118 0.411529412,5.09788235 L0.408705882,5.13529412 C0.384,5.54752941 0.358588235,5.95976471 0.335294118,6.372 C0.312,6.77929412 0.295764706,7.19576471 0.297176471,7.61435294 C0.297882353,7.66658824 0.296470588,7.71882353 0.297176471,7.77247059 C0.309176471,8.55388235 0.391764706,9.34235294 0.625411765,10.0962353 C0.714352941,10.3828235 0.830823529,10.6708235 0.954352941,10.9757647 L0.969176471,11.0110588 C1.01364706,11.1218824 1.05811765,11.232 1.10188235,11.3428235 L1.70117647,12.2703529 C1.74917647,12.3190588 1.79717647,12.3684706 1.84447059,12.4178824 L1.86,12.4341176 C1.99623529,12.576 2.12470588,12.7108235 2.25105882,12.8131765 C4.02635294,14.268 6.00705882,14.508 8.14023529,13.5282353 C10.5903529,12.4009412 11.7889412,9.51741176 10.8684706,6.96211765" id="SVGID_33_"></path>
                                </g>
                                <g id="Clipped">
                                    <mask id="mask-6" fill="white">
                                        <use xlink:href="#path-5"></use>
                                    </mask>
                                    <g id="SVGID_33_"></g>
                                    <g id="Group" mask="url(#mask-6)">
                                        <g transform="translate(-95.294118, -50.117647)">
                                            <g id="SVGID_35_-link">
                                                <rect id="SVGID_35_" fill="#3A71B7" fill-rule="nonzero" x="0.374823529" y="0.409411765" width="129.223059" height="75.1108235"></rect>
                                            </g>
                                            <g id="Clipped">
                                                <mask id="mask-8" fill="white">
                                                    <use xlink:href="#path-7"></use>
                                                </mask>
                                                <g id="SVGID_35_"></g>
                                                <polygon id="Rectangle-path" fill="#201F1F" fill-rule="nonzero" mask="url(#mask-8)" points="94.7844706 49.9616471 107.279294 49.9616471 107.279294 65.0428235 94.7844706 65.0428235"></polygon>
                                            </g>
                                        </g>
                                    </g>
                                </g>
                            </g>
                            <g transform="translate(36.705882, 0.000000)">
                                <g id="SVGID_37_-link" fill="#3A71B7">
                                    <path d="M9.58235294,0 C6.47929412,0 3.49623529,1.01929412 1.41741176,2.79670588 L1.27270588,2.916 L3.50541176,6.85835294 L3.70941176,6.68470588 C5.07105882,5.53270588 6.82941176,4.872 8.56023529,4.872 C10.6341176,4.872 11.9061176,5.76776471 11.9061176,7.20988235 L11.9061176,8.76564706 C10.8035294,7.68917647 8.85247059,7.06023529 6.65788235,7.06023529 C3.75388235,7.06023529 0.370588235,8.60329412 0.370588235,12.9522353 C0.370588235,16.8741176 3.60211765,18.9910588 6.65364706,18.9910588 C8.70070588,18.9910588 10.6447059,18.2745882 11.9054118,17.1324706 L11.9054118,18.5795294 L18.0543529,18.5795294 L18.0543529,7.28188235 C18.0550588,1.26352941 13.4378824,0 9.58235294,0 Z M11.9061176,13.7202353 C11.4331765,14.3985882 10.2444706,14.8503529 8.99858824,14.8503529 C7.80282353,14.8503529 6.41294118,14.3717647 6.41294118,13.0249412 C6.41294118,11.6781176 7.79929412,11.2002353 8.99505882,11.2002353 C10.2331765,11.2002353 11.4331765,11.6378824 11.9061176,12.2957647 L11.9061176,13.7202353 Z" id="SVGID_37_"></path>
                                </g>
                                <g id="Clipped">
                                    <mask id="mask-10" fill="white">
                                        <use xlink:href="#path-9"></use>
                                    </mask>
                                    <g id="SVGID_37_"></g>
                                    <g id="Group" mask="url(#mask-10)">
                                        <g transform="translate(-64.235294, -28.941176)">
                                            <g id="SVGID_39_-link">
                                                <rect id="SVGID_39_" fill="#3A71B7" fill-rule="nonzero" x="0.374823529" y="0.409411765" width="129.223059" height="75.1108235"></rect>
                                            </g>
                                            <g id="Clipped">
                                                <mask id="mask-12" fill="white">
                                                    <use xlink:href="#path-11"></use>
                                                </mask>
                                                <g id="SVGID_39_"></g>
                                                <polygon id="Rectangle-path" fill="#201F1F" fill-rule="nonzero" mask="url(#mask-12)" points="63.7983529 28.1329412 83.0978824 28.1329412 83.0978824 48.7383529 63.7983529 48.7383529"></polygon>
                                            </g>
                                        </g>
                                    </g>
                                </g>
                            </g>
                            <g>
                                <g id="SVGID_41_-link" fill="#3A71B7">
                                    <path d="M9.44682353,6.65223529 L9.14258824,6.59717647 C7.37717647,6.28658824 6.66070588,6.13835294 6.66070588,5.59976471 C6.66070588,5.02729412 7.54305882,4.57976471 8.66894118,4.57976471 C10.8070588,4.57976471 12.7404706,5.52211765 13.7075294,6.45529412 L13.9129412,6.65364706 L16.3136471,2.50235294 L16.152,2.38376471 C14.664,1.29670588 12.1510588,0 8.63223529,0 C3.27741176,0 0.837882353,3.13058824 0.837882353,6.03882353 C0.837882353,10.8232941 5.30894118,11.532 8.26447059,12.0007059 C9.66564706,12.2449412 11.1155294,12.4962353 11.1155294,13.1703529 C11.1155294,14.1049412 9.94376471,14.3011765 8.96117647,14.3011765 C6.86752941,14.3011765 4.13223529,13.1202353 2.89129412,12.0169412 L2.69082353,11.8383529 L0.115764706,16.1047059 L0.255529412,16.2282353 C2.15717647,17.9061176 5.46,18.9903529 8.66894118,18.9903529 C13.6150588,18.9903529 16.9383529,16.5487059 16.9383529,12.9155294 C16.9383529,8.01811765 12.4298824,7.19576471 9.44682353,6.65223529" id="SVGID_41_"></path>
                                </g>
                                <g id="Clipped">
                                    <mask id="mask-14" fill="white">
                                        <use xlink:href="#path-13"></use>
                                    </mask>
                                    <g id="SVGID_41_"></g>
                                    <g id="Group" mask="url(#mask-14)">
                                        <g transform="translate(-27.529412, -28.941176)">
                                            <g id="SVGID_43_-link">
                                                <rect id="SVGID_43_" fill="#3A71B7" fill-rule="nonzero" x="0.374823529" y="0.409411765" width="129.223059" height="75.1108235"></rect>
                                            </g>
                                            <g id="Clipped">
                                                <mask id="mask-16" fill="white">
                                                    <use xlink:href="#path-15"></use>
                                                </mask>
                                                <g id="SVGID_43_"></g>
                                                <rect id="Rectangle-path" fill="#201F1F" fill-rule="nonzero" mask="url(#mask-16)" x="26.8376471" y="28.1329412" width="18.4376471" height="20.6054118"></rect>
                                            </g>
                                        </g>
                                    </g>
                                </g>
                            </g>
                            <g transform="translate(16.941176, 0.000000)">
                                <g id="SVGID_45_-link" fill="#3A71B7">
                                    <path d="M10.0510588,0 C3.58941176,0 0.208941176,4.76752941 0.208941176,9.47647059 C0.208941176,14.2037647 3.59011765,18.9903529 10.0510588,18.9903529 C16.5367059,18.9903529 19.9298824,14.2044706 19.9298824,9.47647059 C19.9298824,4.76752941 16.5367059,0 10.0510588,0 Z M13.3517647,10.956 C13.3334118,11.0428235 13.3150588,11.1303529 13.2945882,11.2171765 C12.9430588,12.7362353 11.4670588,13.7555294 9.93388235,13.536 C8.59905882,13.3447059 7.71811765,12.612 7.31435294,11.3576471 C7.28541176,11.2687059 7.26494118,11.1642353 7.24376471,11.0527059 L7.24164706,11.0392941 C7.23388235,11.0004706 7.22682353,10.9623529 7.21835294,10.9235294 L7.21835294,10.2896471 C7.23176471,10.2225882 7.24447059,10.1562353 7.25717647,10.0884706 L7.26141176,10.0672941 C7.29670588,9.88164706 7.33058824,9.70658824 7.37647059,9.54070588 C7.49858824,9.10447059 7.704,8.69858824 7.94188235,8.31670588 C7.95741176,8.29129412 7.97435294,8.26658824 7.99058824,8.24117647 C8.12047059,8.03929412 8.25741176,7.84305882 8.39576471,7.65388235 C8.53552941,7.46258824 8.676,7.27058824 8.81647059,7.08 L8.82917647,7.06305882 C9.24,6.50470588 9.66423529,5.92658824 10.068,5.34494118 C10.152,5.22423529 10.2289412,5.10070588 10.3030588,4.97576471 C10.3792941,5.10211765 10.4597647,5.22917647 10.5423529,5.35411765 C10.8352941,5.79458824 11.1317647,6.23152941 11.4289412,6.66847059 L11.4423529,6.68894118 C11.7783529,7.18235294 12.1249412,7.69270588 12.4581176,8.19882353 C12.8901176,8.85388235 13.1541176,9.41576471 13.2896471,9.96776471 C13.3108235,10.0538824 13.3312941,10.1407059 13.3510588,10.2275294 L13.3665882,10.2938824 L13.3665882,10.8875294 L13.3517647,10.956 Z" id="SVGID_45_"></path>
                                </g>
                                <g id="Clipped">
                                    <mask id="mask-18" fill="white">
                                        <use xlink:href="#path-17"></use>
                                    </mask>
                                    <g id="SVGID_45_"></g>
                                    <g id="Group" mask="url(#mask-18)">
                                        <g transform="translate(-44.470588, -28.941176)">
                                            <g id="SVGID_47_-link">
                                                <rect id="SVGID_47_" fill="#3A71B7" fill-rule="nonzero" x="0.374823529" y="0.409411765" width="129.223059" height="75.1108235"></rect>
                                            </g>
                                            <g id="Clipped">
                                                <mask id="mask-20" fill="white">
                                                    <use xlink:href="#path-19"></use>
                                                </mask>
                                                <g id="SVGID_47_"></g>
                                                <rect id="Rectangle-path" fill="#201F1F" fill-rule="nonzero" mask="url(#mask-20)" x="43.872" y="28.1329412" width="21.3367059" height="20.6054118"></rect>
                                            </g>
                                        </g>
                                    </g>
                                </g>
                            </g>
                            <g transform="translate(74.823529, 0.000000)">
                                <g id="SVGID_49_-link" fill="#3A71B7">
                                    <polyline id="SVGID_49_" points="0.799058824 2.21364706 0.799058824 0.792 0.287294118 0.792 0.287294118 0.464470588 1.68282353 0.464470588 1.68282353 0.792 1.17388235 0.792 1.17388235 2.21364706 0.799058824 2.21364706"></polyline>
                                </g>
                                <g id="Clipped">
                                    <mask id="mask-22" fill="white">
                                        <use xlink:href="#path-21"></use>
                                    </mask>
                                    <g id="SVGID_49_"></g>
                                    <g id="Group" mask="url(#mask-22)">
                                        <g transform="translate(-102.352941, -28.941176)">
                                            <g id="SVGID_51_-link">
                                                <rect id="SVGID_51_" fill="#3A71B7" fill-rule="nonzero" x="0.374823529" y="0.409411765" width="129.223059" height="75.1108235"></rect>
                                            </g>
                                            <g id="Clipped">
                                                <mask id="mask-24" fill="white">
                                                    <use xlink:href="#path-23"></use>
                                                </mask>
                                                <g id="SVGID_51_"></g>
                                                <polygon id="Rectangle-path" fill="#3A71B7" fill-rule="nonzero" mask="url(#mask-24)" points="101.833412 28.5981176 104.844 28.5981176 104.844 31.9630588 101.833412 31.9630588"></polygon>
                                            </g>
                                        </g>
                                    </g>
                                </g>
                            </g>
                            <g transform="translate(76.235294, 0.000000)">
                                <g id="SVGID_53_-link" fill="#3A71B7">
                                    <polyline id="SVGID_53_" points="2.03082353 2.21364706 2.03082353 0.988941176 1.53811765 2.21364706 1.37505882 2.21364706 0.882352941 0.988941176 0.882352941 2.21364706 0.510352941 2.21364706 0.510352941 0.464470588 1.032 0.464470588 1.45623529 1.52117647 1.88117647 0.464470588 2.40564706 0.464470588 2.40564706 2.21364706 2.03082353 2.21364706"></polyline>
                                </g>
                                <g id="Clipped">
                                    <mask id="mask-26" fill="white">
                                        <use xlink:href="#path-25"></use>
                                    </mask>
                                    <g id="SVGID_53_"></g>
                                    <g id="Group" mask="url(#mask-26)">
                                        <g transform="translate(-103.764706, -28.941176)">
                                            <g id="SVGID_55_-link">
                                                <rect id="SVGID_55_" fill="#3A71B7" fill-rule="nonzero" x="0.374823529" y="0.409411765" width="129.223059" height="75.1108235"></rect>
                                            </g>
                                            <g id="Clipped">
                                                <mask id="mask-28" fill="white">
                                                    <use xlink:href="#path-27"></use>
                                                </mask>
                                                <g id="SVGID_55_"></g>
                                                <polygon id="Rectangle-path" fill="#3A71B7" fill-rule="nonzero" mask="url(#mask-28)" points="103.466824 28.5981176 106.978588 28.5981176 106.978588 31.9630588 103.466824 31.9630588"></polygon>
                                            </g>
                                        </g>
                                    </g>
                                </g>
                            </g>
                        </g>
                    </g>
                </g>
            </g>
        </g>
    </g>
</svg>