<?xml version="1.0" encoding="UTF-8"?>
<svg width="143px" height="32px" viewBox="0 0 143 32" version="1.1" xmlns="http://www.w3.org/2000/svg" xmlns:xlink="http://www.w3.org/1999/xlink">
    <!-- Generator: Sketch 52.5 (67469) - http://www.bohemiancoding.com/sketch -->
    <title>wheels_grey</title>
    <desc>Created with Sketch.</desc>
    <g id="Page-1" stroke="none" stroke-width="1" fill="none" fill-rule="evenodd">
        <g id="HomePage-Final" transform="translate(-636.000000, -2496.000000)">
            <g id="Client-Logos" transform="translate(320.000000, 1962.000000)">
                <g id="Logos" transform="translate(45.000000, 140.000000)">
                    <g id="wheels_grey" transform="translate(271.000000, 394.000000)">
                        <g id="Group">
                            <rect id="Rectangle" fill="#222222" x="87.4096842" y="0" width="4.37978947" height="26.9473684"></rect>
                            <path d="M41.1781053,0.0842105263 C37.9890526,9.02147368 34.6349474,17.7945263 31.5781053,26.8631579 C29.7532632,26.8631579 27.9292632,26.8631579 26.1044211,26.8631579 C29.2934737,17.8981053 32.5313684,8.98105263 35.7886316,0.0842105263 C37.5856842,0.0842105263 39.3818947,0.0842105263 41.1781053,0.0842105263 Z" id="Path" fill="#D94F40"></path>
                            <path d="M110.4,13.8947368 C108.883368,13.8947368 107.368421,13.8947368 105.852632,13.8947368 C106.166737,10.8673684 98.624,10.7486316 98.7789474,13.6421053 C98.8842105,15.5797895 102.418526,15.5183158 104.252632,15.8315789 C107.640421,16.4109474 110.382316,17.5444211 110.484211,21.0526316 C110.737684,29.6656842 94.4673684,29.2109474 93.8955789,21.8105263 C95.2850526,22.016 96.8496842,21.5275789 98.0218947,21.8105263 C98.576,21.9435789 99.3330526,22.9162105 99.9578947,23.1578947 C101.800421,23.8686316 106.760421,23.9545263 105.685053,20.8842105 C105.186526,19.4627368 102.359579,19.5284211 100.463158,19.2 C97.488,18.6863158 94.32,17.4981053 94.1473684,14.0631579 C94.0614737,12.3503158 94.8463158,10.7966316 95.5797895,10.0210526 C96.7545263,8.77810526 98.7705263,7.76336842 101.895579,7.74736842 C106.773053,7.72210526 109.763368,9.50821053 110.4,13.8947368 Z" id="Path" fill="#222222"></path>
                            <path d="M65.5435789,19.3684211 C60.8,19.3684211 56.0564211,19.3684211 51.3128421,19.3684211 C51.1882105,23.2682105 58.3545263,25.0745263 60.576,21.8105263 C62.1473684,21.8105263 63.7195789,21.8105263 65.2917895,21.8105263 C63.8029474,27.5772632 54.6433684,28.9844211 50.0496842,25.2631579 C47.7271579,23.3827368 46.3469474,20.3107368 46.6812632,16.4210526 C47.1065263,11.4736842 51.1890526,7.36252632 57.376,7.83157895 C63.0366316,8.26105263 66.2972632,13.0029474 65.5435789,19.3684211 Z M55.3549474,11.7052632 C53.0955789,11.9966316 51.5907368,13.8046316 51.2286316,16 C58.0867368,15.9663158 57.9393684,16.0117895 61.0812632,15.9157895 C60.6610526,13.0787368 58.6736842,11.2774737 55.3549474,11.7052632 Z" id="Shape" fill="#222222"></path>
                            <path d="M85.8105263,19.3684211 C81.0652632,19.3684211 76.3216842,19.3684211 71.5789474,19.3684211 C71.4543158,23.2682105 78.6197895,25.0745263 80.8421053,21.8105263 C82.4143158,21.8105263 83.9848421,21.8105263 85.5578947,21.8105263 C84.0690526,27.5772632 74.9094737,28.9844211 70.3157895,25.2631579 C67.9932632,23.3827368 66.6122105,20.3107368 66.9473684,16.4210526 C67.3734737,11.4736842 71.4543158,7.36252632 77.6421053,7.83157895 C83.3027368,8.26105263 86.5625263,13.0029474 85.8105263,19.3684211 Z M75.6202105,11.7052632 C73.3616842,11.9966316 71.8568421,13.8046316 71.4955789,16 C78.3528421,15.9663158 78.2063158,16.0117895 81.3473684,15.9157895 C80.9263158,13.0787368 78.9389474,11.2774737 75.6202105,11.7052632 Z" id="Shape" fill="#222222"></path>
                            <path d="M0.0842105263,8.25263158 C1.51578947,8.05642105 3.312,8.224 4.88421053,8.16842105 C6.14989474,11.9275789 7.57557895,15.5258947 8.84210526,19.2842105 C10.4336842,15.7936842 11.6244211,11.9048421 12.9684211,8.16842105 C14.2315789,8.16842105 15.4947368,8.16842105 16.7578947,8.16842105 C18.1170526,11.8618947 19.4467368,15.5848421 20.8,19.2842105 C22.3343158,15.7372632 23.5351579,11.8576842 24.9263158,8.16842105 C26.4985263,8.16842105 28.0698947,8.16842105 29.6421053,8.16842105 C27.4054737,14.4656842 25.1983158,20.7915789 22.8210526,26.9473684 C21.5014737,26.9473684 20.1827368,26.9473684 18.8631579,26.9473684 C17.4416842,23.5410526 16.2635789,19.8913684 14.9894737,16.3368421 C14.4008421,17.0745263 14.224,18.0437895 13.8947368,18.9473684 C12.9785263,21.4618947 11.9671579,24.2905263 10.9473684,26.8631579 C9.82147368,27.0004211 8.11452632,27.0054737 6.98947368,26.8631579 C4.47747368,20.8690526 2.47157895,14.3705263 0.0842105263,8.25263158 Z" id="Path" fill="#222222"></path>
                            <path d="M46.8210526,8.16842105 C44.1768421,16.2467368 41.1393684,23.9334737 38.4,31.9157895 C36.7764211,32.0808421 34.4058947,31.8661053 33.0105263,32 C35.6631579,24.2138947 38.6694737,16.1246316 41.6,8.16842105 C43.3397895,8.16842105 45.0804211,8.16842105 46.8210526,8.16842105 Z" id="Path" fill="#D94F40"></path>
                            <path d="M128.588632,15.5789474 C128.533053,16.0555789 128.182737,16.2383158 128.083368,16.6736842 C126.908632,15.7473684 125.784421,14.9347368 123.872842,14.9052632 C119.981474,14.8471579 117.881263,18.1381053 118.231579,21.3894737 C118.704842,25.7987368 125.039158,27.6926316 128.083368,24.3368421 C128.147368,24.7772632 128.459789,24.9709474 128.588632,25.3465263 C127.658947,26.3983158 126.522947,27.0248421 125.136,27.2842105 C120.642526,28.1212632 116.938947,24.8606316 116.799158,20.8 C116.593684,14.8008421 124.138105,11.3061053 128.588632,15.5789474 Z" id="Path" fill="#222222"></path>
                            <path d="M140.799158,15.2421053 C141.018105,14.9557895 140.747789,14.1810526 140.968421,13.8947368 C141.377684,13.9334737 141.953684,13.8071579 142.231579,13.9789474 C142.231579,18.3865263 142.231579,22.7932632 142.231579,27.2 C141.929263,27.3751579 141.320421,27.2437895 140.882526,27.2850526 C140.882526,26.8362105 140.882526,26.3865263 140.882526,25.9368421 C139.193263,26.8656842 137.312,27.5014737 135.324632,27.3684211 C131.762526,27.1301053 128.549895,24.2273684 128.924632,19.8736842 C129.396211,14.4084211 136.085895,11.7423158 140.799158,15.2421053 Z M140.883368,16.8421053 C139.742316,15.6395789 138.058947,14.8303158 135.830737,14.9052632 C132.455579,15.0189474 130.298105,17.4871579 130.272842,20.4631579 C130.228211,25.9688421 137.289263,27.8307368 140.883368,24.3376842 C140.883368,21.8391579 140.883368,19.3406316 140.883368,16.8421053 Z" id="Shape" fill="#222222"></path>
                            <path d="M112.926316,22.9894737 C114.645053,22.5667368 115.840842,23.6724211 115.873684,25.0105263 C115.951158,28.0875789 111.365053,27.7650526 111.326316,25.0947368 C111.311158,24.0842105 111.944421,23.3583158 112.926316,22.9894737 Z" id="Path" fill="#D94F40"></path>
                        </g>
                        <g id="Group" fill="#201F1F">
                            <rect id="Rectangle" x="87.4096842" y="0" width="4.37978947" height="26.9473684"></rect>
                            <path d="M41.1781053,0.0842105263 C37.9890526,9.02147368 34.6349474,17.7945263 31.5781053,26.8631579 C29.7532632,26.8631579 27.9292632,26.8631579 26.1044211,26.8631579 C29.2934737,17.8981053 32.5313684,8.98105263 35.7886316,0.0842105263 C37.5856842,0.0842105263 39.3818947,0.0842105263 41.1781053,0.0842105263 Z" id="Path"></path>
                            <path d="M110.4,13.8947368 C108.883368,13.8947368 107.368421,13.8947368 105.852632,13.8947368 C106.166737,10.8673684 98.624,10.7486316 98.7789474,13.6421053 C98.8842105,15.5797895 102.418526,15.5183158 104.252632,15.8315789 C107.640421,16.4109474 110.382316,17.5444211 110.484211,21.0526316 C110.737684,29.6656842 94.4673684,29.2109474 93.8955789,21.8105263 C95.2850526,22.016 96.8496842,21.5275789 98.0218947,21.8105263 C98.576,21.9435789 99.3330526,22.9162105 99.9578947,23.1578947 C101.800421,23.8686316 106.760421,23.9545263 105.685053,20.8842105 C105.186526,19.4627368 102.359579,19.5284211 100.463158,19.2 C97.488,18.6863158 94.32,17.4981053 94.1473684,14.0631579 C94.0614737,12.3503158 94.8463158,10.7966316 95.5797895,10.0210526 C96.7545263,8.77810526 98.7705263,7.76336842 101.895579,7.74736842 C106.773053,7.72210526 109.763368,9.50821053 110.4,13.8947368 Z" id="Path"></path>
                            <path d="M65.5435789,19.3684211 C60.8,19.3684211 56.0564211,19.3684211 51.3128421,19.3684211 C51.1882105,23.2682105 58.3545263,25.0745263 60.576,21.8105263 C62.1473684,21.8105263 63.7195789,21.8105263 65.2917895,21.8105263 C63.8029474,27.5772632 54.6433684,28.9844211 50.0496842,25.2631579 C47.7271579,23.3827368 46.3469474,20.3107368 46.6812632,16.4210526 C47.1065263,11.4736842 51.1890526,7.36252632 57.376,7.83157895 C63.0366316,8.26105263 66.2972632,13.0029474 65.5435789,19.3684211 Z M55.3549474,11.7052632 C53.0955789,11.9966316 51.5907368,13.8046316 51.2286316,16 C58.0867368,15.9663158 57.9393684,16.0117895 61.0812632,15.9157895 C60.6610526,13.0787368 58.6736842,11.2774737 55.3549474,11.7052632 Z" id="Shape"></path>
                            <path d="M85.8105263,19.3684211 C81.0652632,19.3684211 76.3216842,19.3684211 71.5789474,19.3684211 C71.4543158,23.2682105 78.6197895,25.0745263 80.8421053,21.8105263 C82.4143158,21.8105263 83.9848421,21.8105263 85.5578947,21.8105263 C84.0690526,27.5772632 74.9094737,28.9844211 70.3157895,25.2631579 C67.9932632,23.3827368 66.6122105,20.3107368 66.9473684,16.4210526 C67.3734737,11.4736842 71.4543158,7.36252632 77.6421053,7.83157895 C83.3027368,8.26105263 86.5625263,13.0029474 85.8105263,19.3684211 Z M75.6202105,11.7052632 C73.3616842,11.9966316 71.8568421,13.8046316 71.4955789,16 C78.3528421,15.9663158 78.2063158,16.0117895 81.3473684,15.9157895 C80.9263158,13.0787368 78.9389474,11.2774737 75.6202105,11.7052632 Z" id="Shape"></path>
                            <path d="M0.0842105263,8.25263158 C1.51578947,8.05642105 3.312,8.224 4.88421053,8.16842105 C6.14989474,11.9275789 7.57557895,15.5258947 8.84210526,19.2842105 C10.4336842,15.7936842 11.6244211,11.9048421 12.9684211,8.16842105 C14.2315789,8.16842105 15.4947368,8.16842105 16.7578947,8.16842105 C18.1170526,11.8618947 19.4467368,15.5848421 20.8,19.2842105 C22.3343158,15.7372632 23.5351579,11.8576842 24.9263158,8.16842105 C26.4985263,8.16842105 28.0698947,8.16842105 29.6421053,8.16842105 C27.4054737,14.4656842 25.1983158,20.7915789 22.8210526,26.9473684 C21.5014737,26.9473684 20.1827368,26.9473684 18.8631579,26.9473684 C17.4416842,23.5410526 16.2635789,19.8913684 14.9894737,16.3368421 C14.4008421,17.0745263 14.224,18.0437895 13.8947368,18.9473684 C12.9785263,21.4618947 11.9671579,24.2905263 10.9473684,26.8631579 C9.82147368,27.0004211 8.11452632,27.0054737 6.98947368,26.8631579 C4.47747368,20.8690526 2.47157895,14.3705263 0.0842105263,8.25263158 Z" id="Path"></path>
                            <path d="M46.8210526,8.16842105 C44.1768421,16.2467368 41.1393684,23.9334737 38.4,31.9157895 C36.7764211,32.0808421 34.4058947,31.8661053 33.0105263,32 C35.6631579,24.2138947 38.6694737,16.1246316 41.6,8.16842105 C43.3397895,8.16842105 45.0804211,8.16842105 46.8210526,8.16842105 Z" id="Path"></path>
                            <path d="M128.588632,15.5789474 C128.533053,16.0555789 128.182737,16.2383158 128.083368,16.6736842 C126.908632,15.7473684 125.784421,14.9347368 123.872842,14.9052632 C119.981474,14.8471579 117.881263,18.1381053 118.231579,21.3894737 C118.704842,25.7987368 125.039158,27.6926316 128.083368,24.3368421 C128.147368,24.7772632 128.459789,24.9709474 128.588632,25.3465263 C127.658947,26.3983158 126.522947,27.0248421 125.136,27.2842105 C120.642526,28.1212632 116.938947,24.8606316 116.799158,20.8 C116.593684,14.8008421 124.138105,11.3061053 128.588632,15.5789474 Z" id="Path"></path>
                            <path d="M140.799158,15.2421053 C141.018105,14.9557895 140.747789,14.1810526 140.968421,13.8947368 C141.377684,13.9334737 141.953684,13.8071579 142.231579,13.9789474 C142.231579,18.3865263 142.231579,22.7932632 142.231579,27.2 C141.929263,27.3751579 141.320421,27.2437895 140.882526,27.2850526 C140.882526,26.8362105 140.882526,26.3865263 140.882526,25.9368421 C139.193263,26.8656842 137.312,27.5014737 135.324632,27.3684211 C131.762526,27.1301053 128.549895,24.2273684 128.924632,19.8736842 C129.396211,14.4084211 136.085895,11.7423158 140.799158,15.2421053 Z M140.883368,16.8421053 C139.742316,15.6395789 138.058947,14.8303158 135.830737,14.9052632 C132.455579,15.0189474 130.298105,17.4871579 130.272842,20.4631579 C130.228211,25.9688421 137.289263,27.8307368 140.883368,24.3376842 C140.883368,21.8391579 140.883368,19.3406316 140.883368,16.8421053 Z" id="Shape"></path>
                            <path d="M112.926316,22.9894737 C114.645053,22.5667368 115.840842,23.6724211 115.873684,25.0105263 C115.951158,28.0875789 111.365053,27.7650526 111.326316,25.0947368 C111.311158,24.0842105 111.944421,23.3583158 112.926316,22.9894737 Z" id="Path"></path>
                        </g>
                    </g>
                </g>
            </g>
        </g>
    </g>
</svg>