<?xml version="1.0" encoding="UTF-8"?>
<svg width="133px" height="36px" viewBox="0 0 133 36" version="1.1" xmlns="http://www.w3.org/2000/svg" xmlns:xlink="http://www.w3.org/1999/xlink">
    <!-- Generator: Sketch 52.5 (67469) - http://www.bohemiancoding.com/sketch -->
    <title>wooclub</title>
    <desc>Created with Sketch.</desc>
    <g id="Page-1" stroke="none" stroke-width="1" fill="none" fill-rule="evenodd">
        <g id="HomePage-Final" transform="translate(-1398.000000, -2496.000000)">
            <g id="Client-Logos" transform="translate(320.000000, 1962.000000)">
                <g id="Logos" transform="translate(45.000000, 140.000000)">
                    <g id="wooclub" transform="translate(1033.000000, 394.000000)">
                        <circle id="Oval" fill="#9B9B9B" cx="17.7145981" cy="18.2842209" r="17.7145981"></circle>
                        <path d="M25.3141607,24.450082 L24.994117,24.5776271 C24.7779989,24.5776271 24.6150246,24.5209404 24.507556,24.405205 C24.4000875,24.2859267 24.3008857,24.0391033 24.1957791,23.657649 L21.1228868,11.8975178 L15.1176381,11.8975178 L12.3021979,23.657649 C12.2053581,24.0721706 12.0943466,24.3449754 11.9656206,24.4677966 L11.5144888,24.6579333 C11.1271296,24.6579333 10.8354292,24.3260798 10.6511974,23.657649 L6.75398578,11.8975178 L1.25065063,11.8975178 L6.41150355,27.2419027 C6.72564243,28.152433 7.06576271,28.8787315 7.42714051,29.4184363 C7.79088026,29.9569601 8.28688901,30.3691197 8.91516676,30.664363 C9.54934937,30.9513395 10.3453253,31.0965992 11.3184472,31.0965992 C13.8504538,31.0965992 15.4648442,29.7786331 16.1545325,27.1356151 L18.2389502,19.1557791 L20.4237507,27.006889 C20.6634882,27.8288464 20.9917988,28.5468781 21.4027775,29.1503554 C21.8137562,29.7538327 22.3298414,30.2333078 22.9474904,30.579333 C23.5722253,30.9229962 24.3032477,31.0965992 25.1381957,31.0965992 C25.7086058,31.0965992 26.3073592,30.9336249 26.9379989,30.6088573 C27.5662767,30.2864516 28.1520394,29.8069765 28.6929251,29.169251 C29.2326299,28.5327064 29.6483324,27.7945981 29.9364899,26.9525642 L37.0967305,6.05406233 L31.7162165,6.05406233 L25.6176709,23.8395189 C25.5066594,24.1666484 25.390924,24.363871 25.3141607,24.450082" id="path85491_1_" fill="#201F1F"></path>
                        <path d="M37.2136468,22.2144997 C37.2136468,19.5183379 37.9919081,17.3217277 39.5496118,15.6270312 C41.1061345,13.9323346 43.1622089,13.0855768 45.7154729,13.0855768 C48.401006,13.0855768 50.4866047,13.8992674 51.972269,15.5290104 C53.4579333,17.1575724 54.2007654,19.3872499 54.2007654,22.2144997 C54.2007654,25.0323018 53.4437616,27.272608 51.9309349,28.9330563 C50.4181083,30.5958666 48.3455003,31.4260908 45.7154729,31.4260908 C43.0299399,31.4260908 40.9419792,30.5864188 39.4504101,28.9082559 C37.9588409,27.2300929 37.2136468,24.9992346 37.2136468,22.2144997 Z M41.5064844,22.2144997 C41.5064844,26.1105303 42.9094806,28.0591361 45.7154729,28.0591361 C47.0039147,28.0591361 48.0242756,27.5513177 48.7777365,26.5404046 C49.5311974,25.5283106 49.9091088,24.0851613 49.9091088,22.2144997 C49.9091088,18.3739748 48.5108365,16.4525314 45.7154729,16.4525314 C44.4282121,16.4525314 43.4043084,16.9591689 42.6449426,17.971263 C41.8855768,18.983357 41.5064844,20.3981629 41.5064844,22.2144997 Z" id="Shape" fill="#201F1F" fill-rule="nonzero"></path>
                        <path d="M55.7702788,22.2144997 C55.7702788,19.5183379 56.5485402,17.3217277 58.1074248,15.6270312 C59.6639475,13.9323346 61.7200219,13.0855768 64.2732859,13.0855768 C66.958819,13.0855768 69.0444177,13.8992674 70.530082,15.5290104 C72.0157463,17.1575724 72.7585785,19.3872499 72.7585785,22.2144997 C72.7585785,25.0323018 72.0015746,27.272608 70.4887479,28.9330563 C68.9759213,30.5958666 66.9033133,31.4260908 64.2732859,31.4260908 C61.5877529,31.4260908 59.4997922,30.5864188 58.0082231,28.9082559 C56.5154729,27.2312739 55.7702788,24.9992346 55.7702788,22.2144997 Z M60.0631165,22.2144997 C60.0631165,26.1105303 61.4661126,28.0591361 64.2732859,28.0591361 C65.5605467,28.0591361 66.5820886,27.5513177 67.3355495,26.5404046 C68.0890104,25.5283106 68.4657408,24.0851613 68.4657408,22.2144997 C68.4657408,18.3739748 67.0686495,16.4525314 64.2732859,16.4525314 C62.9860252,16.4525314 61.9609404,16.9591689 61.2015746,17.971263 C60.4422089,18.983357 60.0631165,20.3981629 60.0631165,22.2144997 Z" id="Shape" fill="#201F1F" fill-rule="nonzero"></path>
                        <path d="M89.352433,14.8180645 L87.5845161,17.9051285 C86.6172991,16.9922362 85.3182285,16.5351996 83.6884855,16.5351996 C82.126058,16.5351996 80.89076,17.0548278 79.9825916,18.0952652 C79.0732422,19.1345216 78.6197485,20.5741279 78.6197485,22.4117223 C78.6197485,26.1211591 80.3876654,27.975287 83.9199563,27.975287 C85.4493166,27.975287 86.7991689,27.4686495 87.9647895,26.4565555 L89.483521,29.7089557 C88.2824713,30.4576927 87.2349481,30.931263 86.3385894,31.1284855 C85.4410498,31.326889 84.3828978,31.4260908 83.1605905,31.4260908 C80.4301804,31.4260908 78.2772663,30.6301148 76.6971241,29.0393439 C75.1181629,27.449754 74.3280919,25.2389721 74.3280919,22.4117223 C74.3280919,19.6281684 75.1913833,17.3760525 76.9191471,15.6589174 C78.6469109,13.9429634 81.0029524,13.0832149 83.9849098,13.0832149 C86.0445271,13.0855768 87.8337015,13.6630727 89.352433,14.8180645 Z" id="Shape" fill="#201F1F"></path>
                        <path d="M90.9164352,7.09135046 L95.0427556,6.10169492 L95.0427556,25.978655 C95.0427556,28.1587315 95.6922909,29.4554401 96.9913614,29.8758666 C96.3524549,31.0863641 95.2624166,31.6910224 93.7224276,31.6910224 C91.850585,31.6910224 90.9152542,30.3919519 90.9152542,27.7949918 L90.9152542,7.09135046 L90.9164352,7.09135046 Z" id="Shape" fill="#201F1F"></path>
                        <path d="M109.628956,31.1229743 L109.628956,29.63731 C109.045555,30.1321378 108.242493,30.5549262 107.218589,30.9080372 C106.194686,31.2611482 105.25345,31.4359322 104.394882,31.4359322 C100.288639,31.4359322 98.2372881,29.2558557 98.2372881,24.8980645 L98.2372881,13.4237288 L102.363609,13.4237288 L102.363609,24.5839256 C102.363609,26.8525752 103.381607,27.9851285 105.418786,27.9851285 C106.354117,27.9851285 107.223313,27.743029 108.027556,27.25883 C108.830618,26.7758119 109.364418,26.2136687 109.627775,25.5747622 L109.627775,13.4249098 L113.755276,13.4249098 L113.755276,31.1229743 L109.628956,31.1229743 Z" id="Shape" fill="#201F1F"></path>
                        <path d="M119.794773,30.386047 L118.871252,31.6898414 L116.542373,31.6898438 L116.542373,7.09135046 L120.669874,6.10169492 L120.669874,14.3555167 C121.770541,13.6847239 122.969229,13.3481465 124.269481,13.3481465 C126.854631,13.3481465 128.941411,14.16538 130.526277,15.7998469 C132.111143,17.4343138 132.903576,19.5281793 132.903576,22.0814434 C132.903576,25.0421432 132.106419,27.3828321 130.510924,29.1058721 C128.915429,30.828912 126.751886,31.6898414 124.022657,31.6898414 C122.381104,31.6910224 120.973384,31.2564243 119.794773,30.386047 Z M120.669874,17.8889885 L120.669874,27.1159322 C121.275714,27.831602 122.095309,28.1894369 123.129841,28.1894369 C125.122143,28.1894369 126.533406,27.7170476 127.364811,26.7699071 C128.195036,25.8227665 128.611919,24.3099399 128.611919,22.230246 C128.611919,18.6424494 126.894784,16.8473701 123.461695,16.8473701 C122.238207,16.8497321 121.308781,17.1957572 120.669874,17.8889885 Z" id="Shape" fill="#201F1F" fill-rule="nonzero"></path>
                    </g>
                </g>
            </g>
        </g>
    </g>
</svg>